<?xml version="1.0" standalone="no"?>
<!DOCTYPE svg PUBLIC "-//W3C//DTD SVG 1.1//EN" "http://www.w3.org/Graphics/SVG/1.1/DTD/svg11.dtd" >
<svg xmlns="http://www.w3.org/2000/svg">
<metadata>
This is a custom SVG webfont generated by Fontspring.
Designer    : Patrick Griffin
Foundry     : Canada Type
Foundry URL : http://www.canadatype.com
</metadata>
<defs>
<font id="webfontNr6bQE5o" horiz-adv-x="789" >
<font-face units-per-em="1000" ascent="745" descent="-255" />
<missing-glyph horiz-adv-x="229" />
<glyph unicode=" "  horiz-adv-x="229" />
<glyph unicode="&#x09;" horiz-adv-x="229" />
<glyph unicode="&#xa0;" horiz-adv-x="229" />
<glyph unicode="!" horiz-adv-x="438" d="M315 93q0 -40 -30 -69t-70 -29q-41 0 -68 29.5t-27 70.5q0 39 27.5 66.5t66.5 27.5q41 0 71 -27.5t30 -68.5zM215 719q54 0 81 -29.5t27 -83.5q0 -12 -26.5 -148.5t-26.5 -237.5h-101q0 62 -14.5 153t-29 159.5t-14.5 75.5q0 47 29 79t75 32z" />
<glyph unicode="&#x22;" horiz-adv-x="480" d="M298 459l-30 238q0 48 75 48q76 0 76 -46l-31 -240h-90zM91 459l-30 238q0 48 75 48q76 0 76 -46l-31 -240h-90z" />
<glyph unicode="#" horiz-adv-x="1291" d="M132 102q9 0 16.5 6.5t7.5 15.5v433q0 33 -34 33h-68v99h301l307 -450q1 -1 4.5 -11l9 -25.5t9.5 -25.5l-10 66v309q0 24 -10 31t-33 7h-52v99h307v-99h-68q-16 0 -24.5 -6.5t-8.5 -28.5v-555h-200l-304 444l-26 58l13 -56v-322q0 -9 8 -15.5t17 -6.5h77v-102h-317v102 h78zM866 418q0 87 56 150.5t145 63.5q85 0 136.5 -63.5t51.5 -148.5q0 -89 -53.5 -154t-142.5 -65q-91 0 -142 63t-51 154zM1003 413q0 -116 53 -116q62 0 62 115q0 123 -56 123q-59 0 -59 -122zM915 146h287v-124h-287v124z" />
<glyph unicode="$" horiz-adv-x="761" d="M325 -76v70q-46 3 -87 12t-81 27t-63.5 51.5t-23.5 77.5q0 94 103 94q34 0 61.5 -25.5t27.5 -56.5q0 -33 -30 -54q26 -23 93 -30v185q-44 8 -72.5 15.5t-65 23.5t-58 37.5t-37 57t-15.5 82.5q0 88 72.5 148.5t175.5 73.5v67h100v-66q62 -6 113 -24t89.5 -57.5t38.5 -94.5 q0 -42 -30 -63.5t-67 -21.5q-45 0 -68.5 22t-23.5 54q0 36 26 61q-34 16 -78 25v-183q33 -6 54.5 -11t52 -14.5t50.5 -20.5t42.5 -28t36 -38t22 -50.5t8.5 -64.5q0 -50 -23 -89t-62.5 -62.5t-84.5 -37.5t-96 -19v-73h-100zM515 173q0 32 -23 51t-67 31v-161q90 18 90 79z M249 527q0 -52 76 -73v157q-76 -21 -76 -84z" />
<glyph unicode="%" horiz-adv-x="866" d="M60 559q0 86 47 135.5t133 49.5q82 0 126 -50t44 -135q0 -82 -48.5 -131t-129.5 -49q-80 0 -126 50t-46 130zM236 673q-31 0 -31 -47v-133q0 -44 29 -44q23 0 27 38q3 66 3 137q0 49 -28 49zM455 166q0 86 47.5 135.5t133.5 49.5q82 0 126 -50t44 -135q0 -83 -48.5 -132 t-130.5 -49q-79 0 -125.5 50t-46.5 131zM632 280q-31 0 -31 -48v-133q0 -44 29 -44q23 0 27 38q3 66 3 137q0 50 -28 50zM611 743h104l-452 -743h-101z" />
<glyph unicode="&#x26;" horiz-adv-x="864" d="M725 243h97q1 -31 1 -87q0 -47 -16 -81t-44.5 -52.5t-60.5 -27t-69 -8.5q-70 0 -142 52q-90 -51 -208 -51q-93 0 -165 58.5t-72 148.5q0 75 43 124.5t120 91.5q-36 86 -36 135q0 158 217 158q60 0 99 -39t39 -101q0 -47 -31.5 -82t-88.5 -70q61 -105 133 -188 q23 35 37 71.5t14 56.5q0 16 -5 21t-21 5q-4 0 -15.5 -0.5t-19.5 -0.5v94h260v-94h-27q-62 0 -68 -25q-29 -123 -83 -200q34 -28 56 -28q35 0 45.5 20.5t10.5 98.5zM351 99q33 0 57 10q-85 88 -150 205q-37 -35 -37 -78q0 -62 38.5 -99.5t91.5 -37.5zM337 575q0 -26 25 -79 q52 36 52 81q0 21 -11.5 32t-27.5 11q-18 0 -28 -13.5t-10 -31.5z" />
<glyph unicode="'" horiz-adv-x="273" d="M91 459l-30 238q0 48 75 48q76 0 76 -46l-31 -240h-90z" />
<glyph unicode="(" horiz-adv-x="452" d="M401 -136l-42 -68q-156 63 -237.5 190t-81.5 291q0 156 87 279.5t234 186.5l41 -69q-42 -33 -70.5 -64t-56.5 -79t-42.5 -115.5t-14.5 -153.5q0 -87 14 -152.5t42 -111.5t56 -74.5t71 -59.5z" />
<glyph unicode=")" horiz-adv-x="452" d="M93 -204l-42 68q43 31 71 59.5t56 74.5t42 111.5t14 152.5q0 86 -14.5 153.5t-42.5 115.5t-56.5 79t-70.5 64l41 69q148 -63 234.5 -186t86.5 -280q0 -164 -81.5 -291t-237.5 -190z" />
<glyph unicode="*" horiz-adv-x="508" d="M102 415q0 15 8.5 30t16.5 22t27.5 21.5t24.5 18.5q-129 0 -129 71q0 27 18 46.5t46 19.5q15 0 29.5 -5.5t23 -11.5t22 -17t20.5 -15q-2 10 -7.5 30l-9.5 35.5t-4 23.5q0 26 21 44t47 18q28 0 46 -18.5t18 -47.5q0 -13 -9 -43t-10 -42q67 51 95 51q26 0 44 -21t18 -47 q0 -65 -76 -65q-55 0 -64 1q27 -11 57.5 -40.5t30.5 -58.5q0 -25 -20 -45.5t-46 -20.5q-60 0 -85 103q-4 -9 -12 -32t-14 -35.5t-21.5 -24t-37.5 -11.5q-30 0 -49 18t-19 48z" />
<glyph unicode="+" horiz-adv-x="547" d="M211 102v151h-150v124h150v150h124v-150h151v-124h-151v-151h-124z" />
<glyph unicode="," horiz-adv-x="309" d="M152 184q53 0 78.5 -38.5t25.5 -95.5q0 -84 -48.5 -133.5t-132.5 -49.5v62q30 0 51.5 15.5t21.5 45.5v12q-92 0 -92 87q0 41 27 68t69 27z" />
<glyph unicode="-" horiz-adv-x="325" d="M37 374h251v-125h-251v125z" />
<glyph unicode="." horiz-adv-x="307" d="M57 93q0 42 27.5 69t68.5 27t70 -28t29 -68t-29 -69t-70 -29q-40 0 -68 28.5t-28 69.5z" />
<glyph unicode="/" horiz-adv-x="504" d="M376 743h104l-358 -743h-101z" />
<glyph unicode="0" horiz-adv-x="672" d="M50 362q0 73 14.5 132t47 108t91.5 76t140 27q279 0 279 -353q0 -181 -66 -274.5t-228 -93.5q-71 0 -123.5 24.5t-81.5 60.5t-46 90t-22 100t-5 103zM339 601q-46 0 -63 -35t-17 -125v-228q0 -127 76 -127q77 0 77 123q0 46 1 121t1 110q0 30 -1.5 50t-8 49.5t-23 45.5 t-42.5 16z" />
<glyph unicode="1" horiz-adv-x="557" d="M49 0v102h113q12 0 21.5 9.5t9.5 27.5v353q-65 -15 -150 -15v90q36 3 52.5 4.5t43.5 6.5t41 13t31.5 21.5t28.5 34.5t19 49h129v-556q0 -38 33 -38h106v-102h-478z" />
<glyph unicode="2" horiz-adv-x="679" d="M616 241v-124q-8 -59 -48.5 -93t-100.5 -34q-52 0 -151.5 33t-116.5 33q-23 0 -31 -13.5t-13 -42.5h-102v19q0 48 20 108.5t58 96.5q22 22 73.5 56.5l90.5 62t71 70.5t32 89q0 51 -29.5 79t-80.5 28q-27 0 -55.5 -8.5t-35.5 -27.5q53 -11 53 -68q0 -37 -24 -60t-62 -23 q-47 0 -76.5 30.5t-29.5 77.5q0 40 19 72t48 51t68 31t74 16.5t71 4.5q52 0 98 -10.5t86.5 -32.5t64 -62t23.5 -95q0 -63 -37.5 -114t-97.5 -79q-176 -83 -238.5 -124.5t-62.5 -72.5q29 25 51.5 36t54.5 11q62 0 178 -20q59 0 61 41l4 58h93z" />
<glyph unicode="3" horiz-adv-x="658" d="M32 149q0 43 30.5 70.5t73.5 27.5q42 0 65.5 -21t23.5 -62q0 -44 -35 -63q29 -16 78 -16q121 0 121 120q0 24 -5 41t-19.5 34.5t-46 26.5t-80.5 9h-31v89h13q26 0 41 0.5t38 3.5t36.5 10.5t27 19t20 30.5t6.5 45q0 48 -35 74.5t-82 26.5q-41 0 -72 -20q37 -24 37 -64 q0 -39 -26 -61t-65 -22q-48 0 -73.5 27t-25.5 75q0 47 27.5 80t73 48.5t87.5 22t86 6.5q50 0 94.5 -8.5t86 -28t66 -57.5t24.5 -92q0 -71 -47.5 -110t-122.5 -49q85 -3 132 -45.5t47 -126.5q0 -46 -18.5 -82.5t-48 -58.5t-70 -36.5t-80.5 -20t-83 -5.5q-42 0 -84.5 7 t-86.5 24t-71 50.5t-27 80.5z" />
<glyph unicode="4" horiz-adv-x="691" d="M254 0v99h56q33 0 33 40v46h-306v96l324 411h171v-411h103v-96h-103v-63q0 -24 32 -24q53 0 57 -1v-97h-367zM166 281h179v198l5 60l-36 -62z" />
<glyph unicode="5" horiz-adv-x="677" d="M64 147q0 43 28 71.5t72 28.5q37 0 64.5 -23t27.5 -60q0 -38 -33 -65q29 -14 68 -14q59 0 93 45t34 106q0 59 -32.5 101.5t-90.5 42.5q-38 0 -57 -13t-38 -48l-3 -2h-103q0 79 1.5 223.5t1.5 155.5q5 -1 43.5 -3t104 -4t126.5 -2q150 0 219 12v-2q0 -9 -11 -31 q-45 -109 -286 -109q-21 0 -52.5 0.5t-39.5 0.5q0 -3 -0.5 -21t-0.5 -50v-67q33 36 70.5 47.5t94.5 11.5q113 0 181 -61t68 -171q0 -128 -86 -194t-219 -66q-40 0 -80 8t-78.5 25.5t-62.5 50.5t-24 76z" />
<glyph unicode="6" horiz-adv-x="679" d="M612 559q0 -45 -27.5 -71t-72.5 -26q-37 0 -63 21t-26 57q0 40 33 54q-10 16 -52 16q-145 0 -145 -163q0 -41 4 -63q47 48 137 48q96 0 158 -57.5t62 -153.5q0 -113 -79 -175.5t-195 -62.5q-85 0 -143 27t-89 79.5t-44 114.5t-13 146q0 357 327 357q39 0 76 -7t73 -22.5 t57.5 -46t21.5 -72.5zM420 210q0 26 -2 43t-8.5 38t-22.5 31.5t-41 10.5q-38 0 -56.5 -26.5t-18.5 -90.5q0 -28 1.5 -44.5t7.5 -40t22 -35.5t42 -12q25 0 41.5 11t23.5 32t9 39t2 44z" />
<glyph unicode="7" horiz-adv-x="616" d="M177 115q0 55 26.5 113t67.5 102q111 119 151 168t40 76q0 6 -1 8q-23 -47 -97 -47q-22 0 -90.5 10t-70.5 10q-66 0 -66 -43v-88h-97v270h89v-74q17 43 40 63t64 20q21 0 111.5 -24t106.5 -24q31 0 35 39h98v-17q0 -24 -2.5 -44l-4.5 -36t-11.5 -37.5l-15 -34.5 t-24 -42.5l-29 -45.5l-39 -59.5l-45.5 -69.5q-19 -29 -28.5 -66t-11.5 -64t-3 -73q0 -117 -94 -117q-99 0 -99 127z" />
<glyph unicode="8" horiz-adv-x="677" d="M55 185q0 56 27.5 91t84.5 63q-57 38 -80.5 71.5t-23.5 91.5q0 76 42 126.5t102.5 70.5t136.5 20q46 0 89 -9.5t82 -29.5t63 -56.5t24 -85.5q0 -57 -30 -91t-89 -57q69 -31 104 -71t35 -107q0 -59 -26 -102.5t-70.5 -66.5t-94 -33t-106.5 -10q-51 0 -95 8.5t-85.5 27.5 t-65.5 57t-24 92zM209 200q0 -42 28 -70t93 -28q110 0 110 76q0 50 -53 71l-120 46q-58 -30 -58 -95zM238 542q0 -52 60 -76q4 -2 25 -10.5l40 -16.5t18 -7q37 21 50.5 41.5t13.5 58.5q0 45 -30.5 66t-78.5 21q-39 0 -68.5 -19.5t-29.5 -57.5z" />
<glyph unicode="9" horiz-adv-x="676" d="M58 141q0 45 27 71t72 26q38 0 64 -21t26 -57q0 -40 -33 -54q10 -16 52 -16q75 0 110.5 43t35.5 120q0 26 -5 63q-47 -48 -137 -48q-96 0 -158 57.5t-62 153.5q0 114 79 176t195 62q85 0 143 -27t89 -79t44 -114.5t13 -145.5q0 -58 -7.5 -106t-29.5 -96t-57.5 -81 t-94.5 -53.5t-138 -20.5q-40 0 -76.5 7t-72.5 22t-57.5 45.5t-21.5 72.5zM249 490q0 -20 1 -34t5 -32t11.5 -29.5t22.5 -19.5t35 -8q38 0 56 26.5t18 90.5q0 28 -1.5 44.5t-7.5 40t-22 35.5t-41 12t-41.5 -11t-23.5 -31.5t-9.5 -39t-2.5 -44.5z" />
<glyph unicode=":" horiz-adv-x="335" d="M70 93q0 42 27.5 69t68.5 27t70 -28t29 -68t-29 -69t-70 -29q-40 0 -68 28.5t-28 69.5zM70 440q0 40 27.5 67.5t68.5 27.5t70 -27.5t29 -67.5q0 -42 -29 -70t-70 -28q-42 0 -69 28t-27 70z" />
<glyph unicode=";" horiz-adv-x="335" d="M163 184q53 0 78.5 -38.5t25.5 -95.5q0 -84 -48.5 -133.5t-132.5 -49.5v62q30 0 51.5 15.5t21.5 45.5v12q-92 0 -92 87q0 41 27 68t69 27zM69 438q0 40 30 68.5t71 28.5q39 0 66.5 -28.5t27.5 -68.5q0 -42 -29 -70t-70 -28q-39 0 -67.5 29t-28.5 69z" />
<glyph unicode="&#x3c;" horiz-adv-x="455" d="M46 304l222 300h137l-219 -300l220 -304h-138z" />
<glyph unicode="=" horiz-adv-x="547" d="M61 460h425v-124h-425v124zM61 248h425v-124h-425v124z" />
<glyph unicode="&#x3e;" horiz-adv-x="456" d="M187 604l223 -300l-223 -304h-138l221 304l-219 300h136z" />
<glyph unicode="?" horiz-adv-x="575" d="M163 95q0 40 28.5 67t69.5 27t69 -28t28 -68q0 -42 -30 -70t-72 -28q-39 0 -66 30t-27 70zM325 534q0 91 -79 91q-52 0 -66 -38q39 0 59 -20.5t20 -51.5q0 -36 -24 -64.5t-62 -28.5q-44 0 -79 33t-35 89q0 84 71 128t162 44q92 0 158.5 -44.5t66.5 -129.5 q0 -52 -21 -91.5t-51.5 -64.5t-61 -47.5t-51.5 -52t-21 -66.5h-104q-1 8 -1 23q0 47 18.5 87.5t41 65t41 61t18.5 77.5z" />
<glyph unicode="@" horiz-adv-x="1181" d="M653 77q-50 -90 -169 -90q-71 0 -120.5 36.5t-49.5 105.5q0 37 14.5 65.5t42.5 48t54.5 31t65.5 23.5q76 23 145 31v83q-4 57 -67 57q-46 0 -68 -22q39 -19 39 -56q0 -35 -29 -53t-66 -18q-42 0 -72 23t-30 63q0 130 252 130q44 0 82 -6.5t77 -22t62 -48.5t23 -80v-238 q0 -34 32 -34q38 0 73.5 66.5t35.5 142.5q0 137 -100 216t-267 79q-176 0 -299.5 -109t-123.5 -288q0 -163 110 -261t285 -98q120 0 203.5 30.5t164.5 99.5l51 -76q-188 -148 -419 -148q-134 0 -248 59t-181.5 164t-67.5 232q0 132 73 245.5t194 179t258 65.5 q120 0 227 -49.5t173.5 -140t66.5 -199.5q0 -148 -88 -238.5t-226 -90.5q-47 0 -76 18.5t-37 71.5zM524 155q0 -21 11 -35t32 -14q27 0 48 21t21 47v77q-47 -7 -79.5 -30t-32.5 -66z" />
<glyph unicode="A" d="M-18 102h60q23 0 36 35l220 552h191l222 -542q12 -30 30.5 -39t66.5 -9v-99h-400v102h73q19 0 19 20q0 25 -36 102h-237q0 -1 -6.5 -16.5l-13 -31t-12 -32t-5.5 -22.5q0 -7 8.5 -13.5t16.5 -6.5h75v-102h-308v102zM337 504l-70 -180h160l-68 180l-10 50z" />
<glyph unicode="B" horiz-adv-x="827" d="M39 102h79q27 0 27 43v399q0 46 -27 46h-79v99h526q85 0 142 -45t57 -127q0 -71 -44.5 -110.5t-121.5 -49.5q189 -14 189 -168q0 -88 -63 -138.5t-155 -50.5h-530v102zM361 307v-203h98q50 0 77 26t27 75q0 35 -9.5 57.5t-28 31t-32 11t-34.5 2.5h-98zM361 588v-181h104 q37 0 57 27.5t20 65.5q0 35 -20.5 61.5t-56.5 26.5h-104z" />
<glyph unicode="C" horiz-adv-x="778" d="M35 342q0 164 107.5 267t272.5 103q117 0 201 -58l23 48h96v-274h-104q-21 88 -61.5 131t-125.5 43q-173 0 -173 -262q0 -243 178 -243q177 0 190 183h108q0 -72 -28 -130t-75.5 -95t-108 -56.5t-127.5 -19.5q-162 0 -267.5 100.5t-105.5 262.5z" />
<glyph unicode="D" horiz-adv-x="900" d="M39 102h78q9 0 17.5 7.5t8.5 17.5v430q0 11 -9 22t-20 11h-75v99h474q156 0 254 -99t98 -248q0 -159 -96.5 -250.5t-256.5 -91.5h-473v102zM357 588v-486h121q47 0 80.5 23.5t49.5 62.5t22.5 77t6.5 80q0 243 -160 243h-120z" />
<glyph unicode="E" horiz-adv-x="818" d="M39 102h78q9 0 16.5 6.5t7.5 15.5v439q0 11 -9 19t-20 8h-73v99h723v-274h-100q-1 7 -4 40t-4 39q-3 39 -24 66.5t-57 27.5h-216v-179h67q20 0 34 17t14 37v50h99v-312h-99v49q0 55 -46 55h-69v-203h224q43 0 66 37.5t23 83.5v76h103v-299h-734v102z" />
<glyph unicode="F" horiz-adv-x="782" d="M382 102h77v-102h-420v102h78q9 0 16.5 6.5t7.5 15.5v439q0 11 -9 19t-20 8h-73v99h723v-274h-100q-1 7 -4 40t-4 39q-3 39 -24 66.5t-57 27.5h-216v-179h67q20 0 34 17t14 37v50h99v-312h-99v49q0 55 -46 55h-69v-181q0 -9 8 -15.5t17 -6.5z" />
<glyph unicode="G" horiz-adv-x="857" d="M35 342q0 162 109 266t271 104q105 0 201 -56l21 43h95v-271h-101q-16 85 -59.5 128.5t-123.5 43.5q-56 0 -93 -21.5t-54.5 -61.5t-23.5 -80.5t-6 -96.5q0 -51 6 -89.5t22 -77t51 -59.5t86 -21q50 0 78 24t28 58v60q0 28 -45 28h-59v100h414v-100h-51q-12 0 -27.5 -6.5 t-15.5 -20.5v-236h-107l-29 62q-32 -42 -96.5 -62.5t-131.5 -20.5q-157 0 -258 102.5t-101 260.5z" />
<glyph unicode="H" horiz-adv-x="958" d="M918 587h-77q-9 0 -17 -6.5t-8 -15.5v-441q0 -9 8 -15.5t17 -6.5h77v-102h-420v102h78q9 0 17 6.5t8 15.5v181h-244v-181q0 -9 8 -15.5t17 -6.5h77v-102h-420v102h78q9 0 16.5 6.5t7.5 15.5v441q0 9 -7.5 15.5t-16.5 6.5h-78v102h420v-102h-77q-9 0 -17 -6.5t-8 -15.5 v-156h244v156q0 9 -8 15.5t-17 6.5h-78v102h420v-102z" />
<glyph unicode="I" horiz-adv-x="499" d="M357 565v-441q0 -9 8 -15.5t17 -6.5h77v-102h-420v102h78q9 0 16.5 6.5t7.5 15.5v441q0 9 -7.5 15.5t-16.5 6.5h-78v102h420v-102h-77q-9 0 -17 -6.5t-8 -15.5z" />
<glyph unicode="J" horiz-adv-x="588" d="M0 147q0 51 33.5 86t85.5 35q39 0 67.5 -25.5t28.5 -64.5q0 -32 -20 -54.5t-51 -22.5q-4 0 -9.5 1t-7.5 1q13 -24 54 -24q79 0 79 64v403q0 44 -33 44h-71v99h417v-99h-70q-12 0 -20.5 -10t-8.5 -23v-381q0 -98 -66.5 -147.5t-168.5 -49.5q-47 0 -86.5 8t-75.5 25.5 t-56.5 52t-20.5 82.5z" />
<glyph unicode="K" horiz-adv-x="901" d="M911 0h-409v98h48q16 1 16 21q0 8 -6 20.5t-21 33.5t-27.5 36.5l-40 50l-43.5 54.5l-34 -26.5t-35 -28.5v-135q0 -10 9 -18t25 -8h64v-98h-413v97h64q35 0 35 32v423q0 35 -36 38h-68v99h418v-99h-64q-13 0 -23.5 -11t-10.5 -29v-157l51 39.5l42.5 32l33.5 25.5l27 20.5 l20 15.5t14.5 13t8.5 10.5t5.5 9.5t1.5 8q0 20 -21 23h-42v99h382v-101h-65q-16 0 -36.5 -9t-47 -27.5t-48 -35.5l-53 -42.5l-49.5 -39.5q0 -1 30 -38.5l89 -113.5l113 -147q11 -15 28 -22t30.5 -8.5t37.5 -1.5v-103z" />
<glyph unicode="L" horiz-adv-x="749" d="M459 588h-77q-9 0 -17 -6.5t-8 -15.5v-464h197q24 0 41 12t26 27t14 42t6 42.5t1.5 43.5t0.5 31h102v-299h-706v99h73q11 0 20 8t9 19v439q0 9 -7.5 15.5t-16.5 6.5h-78v102h420v-102z" />
<glyph unicode="M" horiz-adv-x="1116" d="M735 102q9 0 17 6.5t8 15.5v411l6 45l-16 -37l-187 -543h-114l-190 542l-10 36l5 -42v-412q0 -9 8 -15.5t17 -6.5h61v-102h-301v102h78q9 0 16.5 6.5t7.5 15.5v420q0 46 -34 46h-68v99h378l138 -394l138 394h382v-99h-70q-31 0 -31 -33v-433q0 -9 8 -15.5t17 -6.5h77 v-102h-406v102h65z" />
<glyph unicode="N" horiz-adv-x="872" d="M117 102q9 0 16.5 6.5t7.5 15.5v433q0 33 -34 33h-68v99h301l307 -450q1 -1 4.5 -11l9 -25.5t9.5 -25.5l-10 66v309q0 24 -10 31t-33 7h-52v99h307v-99h-68q-16 0 -24.5 -6.5t-8.5 -28.5v-555h-200l-304 444l-26 58l13 -56v-322q0 -9 8 -15.5t17 -6.5h77v-102h-317v102 h78z" />
<glyph unicode="O" horiz-adv-x="852" d="M35 342q0 171 110.5 269.5t283.5 98.5q167 0 277.5 -100.5t110.5 -267.5q0 -168 -108 -266t-281 -98q-170 0 -281.5 99.5t-111.5 264.5zM271 342q0 -38 2.5 -68.5t11.5 -68t25 -62.5t45 -42.5t69 -17.5q41 0 70.5 16.5t45.5 40t25 60.5t11 67.5t2 71.5q0 37 -1 60 t-5 58.5t-14 57.5t-26.5 44.5t-43.5 33.5t-63 11q-41 0 -70.5 -17.5t-45.5 -42t-25 -63t-11 -69t-2 -70.5z" />
<glyph unicode="P" d="M355 287l-1 -163q0 -9 8 -15.5t17 -6.5h77v-102h-417v102h78q9 0 16.5 6.5t7.5 15.5v441q0 9 -7.5 15.5t-16.5 6.5h-78v102h470q106 0 180.5 -50.5t74.5 -150.5q0 -87 -59 -144t-147 -57h-203zM355 588v-200h102q45 0 67 28t22 74q0 43 -22 70.5t-65 27.5h-104z" />
<glyph unicode="Q" horiz-adv-x="904" d="M920 135v-108q0 -74 -53.5 -115t-129.5 -41q-67 0 -108.5 30t-75.5 94q-60 -18 -119 -18q-171 0 -282.5 100t-111.5 268q0 167 111.5 266t282.5 99q172 0 281 -99.5t109 -268.5q0 -186 -126 -284q20 -31 34 -42.5t39 -11.5q47 0 56 50v81h93zM436 604q-42 0 -72 -16.5 t-46.5 -41t-25.5 -62t-11.5 -68t-2.5 -71.5q0 -66 13 -132q31 86 128 86q96 0 159 -81q10 54 10 133q0 39 -2.5 69t-11.5 66.5t-24.5 60.5t-44.5 40.5t-69 16.5zM339 110q0 -10 32.5 -18.5t54.5 -8.5q45 0 73 16q-36 90 -94 90q-32 0 -49 -22.5t-17 -56.5z" />
<glyph unicode="R" horiz-adv-x="863" d="M355 299v-175q0 -9 8 -15.5t17 -6.5h77v-102h-418v102h78q9 0 16.5 6.5t7.5 15.5v442q0 9 -7.5 15.5t-16.5 6.5h-78v101h491q243 0 243 -172q0 -86 -56.5 -123t-150.5 -44q72 -15 107 -40t42 -88q1 -10 2 -28.5t2 -32.5t3.5 -28.5t7.5 -22.5t12 -8q22 0 22 27v91h94v-54 q0 -99 -38 -140t-137 -41q-67 0 -110.5 29.5t-51.5 91.5l-16 129q-2 13 -4 21.5t-8.5 20t-20.5 17t-35 5.5h-82zM355 588v-185h69q60 0 92 19t32 78q0 43 -21.5 65.5t-61.5 22.5h-110z" />
<glyph unicode="S" horiz-adv-x="704" d="M634 698v-259h-99q-1 0 -4.5 11.5t-7 25t-5.5 16.5q-24 55 -74.5 83t-112.5 28q-47 0 -83.5 -17.5t-36.5 -57.5q0 -42 41 -52l237 -58q88 -22 135.5 -70t47.5 -134q0 -110 -83 -171t-198 -61q-138 0 -227 60q-23 -52 -24 -52h-96v268h102q12 -82 77 -126.5t150 -44.5 q49 0 89.5 18.5t40.5 61.5q0 42 -60 57l-252 63q-72 18 -113.5 69.5t-41.5 125.5q0 109 81.5 167.5t196.5 58.5q100 0 199 -51h2l23 41h96z" />
<glyph unicode="T" horiz-adv-x="782" d="M497 586v-462q0 -9 8 -15.5t17 -6.5h77v-102h-419v102h77q9 0 17 6.5t8 15.5v462h-65q-26 0 -44 -11.5t-27.5 -25.5t-16 -41.5t-8 -43.5t-3.5 -49h-98v277h742v-277h-96q-2 33 -3.5 50t-8 44t-17 41t-30 25t-46.5 11h-64z" />
<glyph unicode="U" horiz-adv-x="827" d="M746 590q-9 0 -17 -6.5t-8 -15.5v-361q0 -115 -87 -169.5t-233 -54.5q-49 0 -98 12t-93.5 36t-72 65.5t-27.5 94.5v377q0 9 -8 15.5t-17 6.5h-77v102h419v-102h-78q-9 0 -17 -6.5t-8 -15.5v-381q0 -45 31 -71.5t75 -26.5q90 0 134.5 24.5t44.5 100.5v354q0 9 -8 15.5 t-17 6.5h-71v102h310v-102h-77z" />
<glyph unicode="V" horiz-adv-x="772" d="M300 1l-222 544q-12 30 -30.5 39t-67.5 9v99h400v-102h-72q-20 0 -20 -20q0 -16 73 -206l68 -178l5 -46l8 46l147 384q0 20 -25 20h-74v102h307v-102h-60q-12 0 -21.5 -11.5t-13.5 -23.5l-220 -554h-182z" />
<glyph unicode="W" horiz-adv-x="1110" d="M270 0l-189 557q-12 35 -69 35h-27v100h366v-100q-20 -1 -30 -2t-20 -7t-10 -18q0 -11 39 -128l65 -198l10 -52l10 58l87 264l-6 20.5t-5 18t-4.5 13.5t-6.5 11t-8.5 7.5t-11.5 6.5t-16 3t-21.5 2.5t-27.5 0.5v100h375v-100q-41 0 -58 -4.5t-17 -23.5q0 -5 95 -310 l11 -68l10 52q103 318 103 327q0 27 -48 27h-42v100h306v-100q-29 0 -41 -0.5t-27 -4.5t-22 -12.5t-12 -24.5l-183 -550h-179l-101 313l-8 51l-9 -51l-100 -313h-178z" />
<glyph unicode="X" horiz-adv-x="767" d="M-1 99q3 0 18 0.5t21 1t16.5 1.5t17 4t10.5 8l198 216l-198 241q-17 21 -83 21v100h402v-100h-26q-47 0 -47 -21q0 -3 0.5 -5.5t2.5 -6.5t4 -7.5t6.5 -10t9 -11.5t12 -14.5l14.5 -18l18.5 -22.5l21.5 -26q74 79 87 95t13 27q0 21 -47 21h-26v100h324v-100q-48 0 -63.5 -3 t-28.5 -18l-191 -203l202 -247q12 -15 27.5 -18.5t53.5 -3.5v-99h-399v99h22q51 0 51 22q0 3 -1 7t-5 9.5l-8 11t-13 16l-17 20.5l-23 27.5l-29 34.5q-102 -106 -102 -125q0 -23 56 -23h23v-99h-324v99z" />
<glyph unicode="Y" horiz-adv-x="737" d="M158 0v102h75q29 0 29 45v137l-199 279q-14 18 -25 23.5t-31 5.5h-32v100h399v-100h-70q-8 0 -14 -6.5t-6 -14.5q0 -9 11 -26.5t56 -81.5l54 -77l48 65q52 69 64.5 88.5t12.5 31.5q0 21 -21 21h-65v100h321v-100h-22q-50 0 -66 -19l-201 -276v-165q0 -15 7 -22.5t14.5 -9 t19.5 -1.5h63v-99h-422z" />
<glyph unicode="Z" horiz-adv-x="684" d="M18 98l401 492h-175q-28 0 -48.5 -11t-32 -26.5t-18.5 -41t-9.5 -46t-3.5 -50.5h-98v277h630v-100l-395 -490h154q72 0 103.5 24t35.5 92l4 66h98v-284h-646v98z" />
<glyph unicode="[" horiz-adv-x="382" d="M65 774h287v-90h-115v-805h115v-93h-287v988z" />
<glyph unicode="\" horiz-adv-x="341" d="M22 713h110l193 -736h-108z" />
<glyph unicode="]" horiz-adv-x="382" d="M30 774h287v-988h-287v93h115v805h-115v90z" />
<glyph unicode="^" horiz-adv-x="415" d="M156 693h120l132 -241h-129l-67 140l-70 -138h-136z" />
<glyph unicode="_" horiz-adv-x="399" d="M0 62h399v-125h-399v125z" />
<glyph unicode="`" horiz-adv-x="312" d="M207 744l87 -148h-112l-157 148h182z" />
<glyph unicode="a" horiz-adv-x="665" d="M172 319q-42 0 -72 23t-30 63q0 130 252 130q44 0 82 -6.5t77 -22t62 -48.5t23 -80v-238q0 -34 32 -34q18 0 46 13v-102l-12 -6t-15 -7t-18 -6t-26 -6t-34 -3.5t-46 -1.5q-45 0 -74.5 17.5t-38.5 72.5q-50 -90 -169 -90q-71 0 -120.5 36.5t-49.5 105.5q0 37 14.5 65.5 t42.5 48t54.5 31t65.5 23.5q76 23 145 31v83q-4 57 -67 57q-46 0 -68 -22q39 -19 39 -56q0 -35 -29 -53t-66 -18zM251 155q0 -21 11.5 -35t31.5 -14q27 0 48 21t21 47v77q-47 -7 -79.5 -30t-32.5 -66z" />
<glyph unicode="b" horiz-adv-x="684" d="M227 85l-37 -85h-117v628q0 15 -5 20.5t-22 5.5h-55v89l284 18v-234l-10 -66q50 73 160 73q109 0 166.5 -79t57.5 -194q0 -120 -63 -198t-180 -78q-64 0 -104 22.5t-75 77.5zM433 247q0 189 -79 189q-28 0 -46.5 -16.5t-25.5 -48.5t-9 -57.5t-2 -65.5q0 -82 16.5 -125.5 t62.5 -43.5q23 0 39.5 12.5t24.5 28.5t13 42t5.5 43t0.5 42z" />
<glyph unicode="c" horiz-adv-x="599" d="M29 259q0 130 84.5 202.5t216.5 72.5q41 0 80 -9t75 -27t58 -51t22 -77q0 -47 -30 -77t-76 -30q-42 0 -70.5 23.5t-28.5 64.5q0 48 43 77q-13 13 -49 13q-55 0 -86.5 -52t-31.5 -122q0 -73 33.5 -126.5t93.5 -53.5q52 0 84 32t33 82h99q0 -76 -40 -126.5t-96 -70 t-123 -19.5q-133 0 -212 72t-79 202z" />
<glyph unicode="d" horiz-adv-x="695" d="M32 264q0 118 62 194t177 76q97 0 147 -74l-10 37v126q0 17 -5 25t-20 8h-60v88l287 16v-650q0 -8 6 -14.5t14 -6.5h54v-89h-274v52q-45 -69 -155 -69q-78 0 -129.5 41t-72.5 102t-21 138zM331 438q-47 0 -64 -42t-17 -143t15.5 -137.5t61.5 -36.5q27 0 45 16t26 45 t10.5 55t2.5 60q0 27 -0.5 43.5t-4.5 46.5t-12 47.5t-24 31.5t-39 14z" />
<glyph unicode="e" horiz-adv-x="650" d="M34 259q0 130 82 202.5t215 72.5q143 0 217 -78t74 -221h-370q0 -74 30 -111t101 -37q56 0 85.5 20.5t43.5 72.5h104q-3 -52 -30 -91.5t-68.5 -61t-87.5 -32t-95 -10.5q-138 0 -219.5 68t-81.5 206zM331 440q-39 0 -58 -36t-19 -80h150q0 116 -73 116z" />
<glyph unicode="f" horiz-adv-x="483" d="M33 89h57q20 0 20 27v310h-83v89h83q0 73 6 108q14 72 79.5 102.5t148.5 30.5q194 0 194 -118q0 -42 -26 -67t-67 -25q-38 0 -64 23t-26 60q0 26 14 46q-2 2 -8 2q-28 0 -44 -19t-16 -47q0 -34 6.5 -62t6.5 -34h114v-89h-114v-312q0 -25 30 -25h84v-89h-395v89z" />
<glyph unicode="g" horiz-adv-x="677" d="M34 -119q0 62 73 83q-66 36 -66 111q0 51 24 79.5t77 54.5q-40 30 -57.5 61t-17.5 77q0 52 23.5 90t63.5 58.5t84 30t93 9.5q79 0 154 -28l23 10h156v-87h-91q16 -48 16 -78q0 -52 -22.5 -90t-61 -58.5t-82 -30t-93.5 -9.5q-63 0 -117 13q-16 0 -23.5 -12t-7.5 -28 q0 -33 49 -33h283q66 0 104.5 -43t38.5 -109q0 -208 -317 -208q-306 0 -306 137zM170 -98q0 -69 160 -69q90 0 136 14.5t46 56.5q0 17 -11 27t-28 10h-271q-15 0 -23.5 -12t-8.5 -27zM331 458q-20 0 -32.5 -10t-17 -29.5t-5.5 -32.5t-1 -35q0 -62 11 -85t44 -23 q18 0 29.5 11t15.5 31.5t5 34t1 34.5q0 57 -10.5 80.5t-39.5 23.5z" />
<glyph unicode="h" horiz-adv-x="745" d="M398 89h37q19 0 19 37v233q0 28 -18.5 44t-45.5 16q-40 0 -65 -23.5t-25 -61.5v-207q0 -38 20 -38h39v-89h-333v89h51q19 0 19 37v504q0 25 -20 25h-57v88l279 19v-268l-8 -55q49 96 183 96q72 0 127.5 -34t55.5 -103v-271q0 -38 20 -38h53v-89h-331v89z" />
<glyph unicode="i" horiz-adv-x="401" d="M99 669q0 43 31 73.5t75 30.5q42 0 70.5 -31t28.5 -73t-29.5 -72t-71.5 -30q-41 0 -72.5 29.5t-31.5 72.5zM30 89h58q19 0 19 37v274q0 12 -7.5 18.5t-17.5 6.5h-52v89l281 12v-399q0 -38 20 -38h52v-89h-353v89z" />
<glyph unicode="j" horiz-adv-x="416" d="M-87 -131q0 47 27 73.5t75 26.5q38 0 63.5 -21t25.5 -58q0 -42 -40 -57q20 -5 24 -5q22 0 39 13.5t17 35.5q0 9 -2.5 38t-2.5 42v449q0 7 -5.5 15t-12.5 8h-61v85l281 12v-585q0 -112 -59 -156t-174 -44q-35 0 -66 5.5t-62 19t-49 40t-18 63.5zM129 667q0 43 31 73t75 30 q40 0 70.5 -30.5t30.5 -70.5q0 -43 -30.5 -72.5t-72.5 -29.5q-41 0 -72.5 29.5t-31.5 70.5z" />
<glyph unicode="k" horiz-adv-x="718" d="M9 89h51q21 0 21 32v502q0 33 -28 33h-51v87l283 18v-468l39.5 28.5l33.5 24l25.5 18.5l20.5 15.5t13 11.5t8.5 10t2.5 8q0 14 -14 15h-48v91h334v-89h-69q-15 0 -34.5 -11.5t-54.5 -40t-41 -32.5l154 -232q10 -15 26 -19t46 -4v-87h-351v87h14q34 0 34 21q0 7 -5.5 17 t-27 41.5t-39.5 61.5l-67 -50v-66q0 -26 58 -26v-86h-334v89z" />
<glyph unicode="l" horiz-adv-x="404" d="M27 89h51q19 0 19 37v503q0 25 -25 25h-52v89l281 18v-634q0 -38 20 -38h59v-89h-353v89z" />
<glyph unicode="m" horiz-adv-x="1086" d="M388 89h37q6 0 9.5 1.5t7 10t3.5 25.5v227q0 62 -63 62q-79 0 -79 -95v-193q0 -38 20 -38h39v-89h-336v89h54q6 0 9.5 1.5t7 10t3.5 25.5v275q0 25 -28 25h-47v88l276 9l-8 -82q60 93 178 93q114 0 161 -87q39 48 79.5 66.5t101.5 18.5q75 0 128.5 -40.5t53.5 -119.5 v-245q0 -38 20 -38h51v-89h-333v89h37q6 0 9.5 1.5t7 10t3.5 25.5v231q0 29 -18 45t-47 16q-34 0 -55.5 -23.5t-21.5 -57.5v-210q0 -38 20 -38h36v-89h-316v89z" />
<glyph unicode="n" horiz-adv-x="752" d="M401 89h37q19 0 19 37v229q0 29 -18 44.5t-46 15.5q-40 0 -65 -23.5t-25 -61.5v-203q0 -38 20 -38h39v-89h-337v89h55q6 0 9.5 1.5t7 10t3.5 25.5v275q0 25 -21 25h-54v88l274 9l-6 -88q49 97 183 97q72 0 127.5 -34.5t55.5 -102.5v-268q0 -38 20 -38h54v-89h-332v89z " />
<glyph unicode="o" horiz-adv-x="656" d="M623 259q0 -132 -83 -203t-217 -71q-125 0 -207.5 69.5t-82.5 204.5t81.5 205t219.5 70q130 0 209.5 -71.5t79.5 -203.5zM250 258q0 -88 17 -133.5t62 -45.5t60.5 45t15.5 134q0 90 -15.5 136t-59.5 46q-46 0 -63 -47t-17 -135z" />
<glyph unicode="p" horiz-adv-x="702" d="M17 -162h53q6 0 9.5 1.5t7 10t3.5 25.5v533q0 8 -6.5 14.5t-14.5 6.5h-54v86l276 9l-8 -63q55 74 162 74q78 0 129.5 -41t72 -102t20.5 -138q0 -118 -62 -194t-177 -76q-96 0 -146 74l10 -47v-135q0 -38 20 -38h63v-89h-358v89zM368 80q47 0 64 41.5t17 143.5 q0 101 -15.5 137.5t-61.5 36.5q-84 0 -84 -176q0 -27 0.5 -43.5t4.5 -46.5t12 -47.5t24 -31.5t39 -14z" />
<glyph unicode="q" horiz-adv-x="680" d="M382 -163q9 0 16.5 6.5t7.5 15.5v133l10 72q-53 -79 -160 -79q-109 0 -166.5 79t-57.5 194q0 120 63.5 198t180.5 78q63 0 103 -22.5t75 -77.5l37 93h117v-668q0 -9 8 -15.5t17 -6.5h52v-89h-357v89h54zM248 271q0 -188 79 -188q28 0 46.5 16.5t25.5 48.5t9 57.5t2 64.5 q0 82 -16.5 126t-62.5 44q-23 0 -39.5 -12.5t-25 -28.5t-13 -42.5t-5 -43.5t-0.5 -42z" />
<glyph unicode="r" horiz-adv-x="597" d="M29 89h56q17 0 17 17v282q0 18 -6 26.5t-13 10t-23 1.5h-31v89l275 9l-9 -88q53 96 154 96q59 0 97 -30.5t38 -88.5q0 -47 -29 -76.5t-75 -29.5q-39 0 -66.5 23t-27.5 60q0 24 17 46q-34 0 -65 -40t-31 -92v-194q0 -21 19 -21h106v-89h-403v89z" />
<glyph unicode="s" horiz-adv-x="596" d="M144 40l-18 -40h-81v190h89q17 -51 65 -77t104 -26q82 0 82 46q0 32 -35 37l-195 43q-120 24 -120 142q0 92 68.5 137.5t165.5 45.5q87 0 171 -39l23 39h74v-187h-89q-16 47 -57 70t-95 23q-30 0 -54 -10.5t-24 -36.5q0 -23 27 -29l216 -50q49 -11 78 -51.5t29 -91.5 q0 -61 -39 -104.5t-92.5 -62t-110.5 -18.5q-112 0 -182 50z" />
<glyph unicode="t" horiz-adv-x="462" d="M288 -11q-179 0 -179 137v299h-97v84q93 0 143 53t50 152h106v-200h129v-89h-129v-272q0 -27 10 -36.5t39 -9.5q37 0 78 10v-111q-68 -17 -150 -17z" />
<glyph unicode="u" horiz-adv-x="755" d="M14 426v89l275 9v-364q0 -28 18.5 -44t45.5 -16q40 0 65 23t25 62v203q0 38 -20 38h-57v89l281 10v-411q0 -25 20 -25h62v-88h-283l7 79q-49 -97 -183 -97q-44 0 -84 15t-69.5 50t-29.5 82v258q0 38 -20 38h-53z" />
<glyph unicode="v" horiz-adv-x="636" d="M214 0l-147 400q-11 26 -46 26h-32v87h360v-87h-59q-16 0 -16 -17q0 -10 87 -259l7 -39l6 30l95 264q0 21 -14 21h-67v87h264v-87h-51q-15 0 -20.5 -6t-9.5 -19l-154 -401h-203z" />
<glyph unicode="w" horiz-adv-x="948" d="M483 216l-6 33l-5 -33l-71 -216h-202l-126 395q-4 11 -5.5 14t-12.5 10t-29 7h-32v87h329v-87h-42q-13 0 -13 -18q0 -6 72 -244l8 -43l7 43q76 235 76 247q0 15 -27 15h-40v87h316v-87h-46q-14 0 -14 -15q0 -7 74 -247l8 -44l9 44q77 231 77 243q0 19 -20 19h-51v87h249 v-87h-35q-36 0 -46 -36l-131 -390h-198q-1 0 -73 216z" />
<glyph unicode="x" horiz-adv-x="700" d="M93 104l152 155l-139 152q-14 15 -68 15h-30v87h367v-87q-36 0 -36 -17q0 -6 25 -36t31 -34q58 55 58 72q0 15 -36 15v87h279v-87h-62q-12 0 -21 -4t-23 -17t-27.5 -27.5l-43 -45.5l-60.5 -62l131 -149q19 -23 39.5 -28.5t67.5 -5.5v-87h-367v87h13q35 0 35 17 q0 16 -69 85l-38 -39q-26 -26 -30.5 -32t-4.5 -14q0 -6 4.5 -11.5t10.5 -5.5h40v-87h-289v87h23q51 0 68 17z" />
<glyph unicode="y" horiz-adv-x="635" d="M-13 -131q0 49 29 75.5t77 26.5q37 0 61 -20.5t24 -56.5q0 -41 -41 -62q8 -8 25 -8q73 0 108 112l-16 38l-184 427q-13 26 -55 26l-24 -1v87h359v-87h-28q-30 0 -38 -2.5t-8 -14.5q0 -13 88 -217l9 -47l10 46q90 205 90 218q0 9 -4.5 13t-19.5 4h-59v87h264v-87h-45 q-19 0 -34.5 -28.5t-74.5 -169.5l-158 -370q-25 -57 -76.5 -86.5t-116.5 -29.5q-66 0 -114 32.5t-48 94.5z" />
<glyph unicode="z" horiz-adv-x="617" d="M32 87l314 331h-150q-16 0 -28 -5t-18 -11.5t-9.5 -20t-4.5 -22t-2 -27.5t-2 -27h-91v208h540v-87l-312 -330h152q46 0 59 23.5t13 98.5h88v-218h-549v87z" />
<glyph unicode="{" horiz-adv-x="373" d="M328 -242h-51q-161 0 -161 121v279q0 51 -9 67.5t-44 16.5h-20v103h20q34 0 43.5 15t9.5 60v218q0 121 161 121h51v-85h-12q-39 0 -51 -14t-12 -59v-147q0 -74 -16.5 -112.5t-64.5 -48.5q49 -12 65 -48.5t16 -126.5v-198q0 -46 12.5 -60t50.5 -14h12v-88z" />
<glyph unicode="|" horiz-adv-x="349" d="M259 743v-1005h-169v1005h169z" />
<glyph unicode="}" horiz-adv-x="372" d="M96 -242h-51v88h12q38 0 50.5 14t12.5 60v198q0 90 15.5 126.5t65.5 48.5q-48 10 -64.5 48.5t-16.5 112.5v147q0 45 -12 59t-51 14h-12v85h51q161 0 161 -121v-218q0 -46 9 -60.5t43 -14.5h20v-103h-20q-35 0 -43.5 -16t-8.5 -68v-279q0 -121 -161 -121z" />
<glyph unicode="~" horiz-adv-x="534" d="M50 483q0 51 28.5 91t78.5 40q34 0 114 -22.5t106 -22.5q21 0 21 46h99l-1 -22q-1 -49 -27.5 -90t-73.5 -41q-35 0 -115.5 21t-95.5 21q-22 0 -27 -8t-5 -31h-100q-2 1 -2 18z" />
<glyph unicode="&#xa2;" horiz-adv-x="626" d="M42 342q0 114 66 184t174 86v76h101v-73q82 -10 138.5 -49.5t56.5 -112.5q0 -47 -30 -77t-76 -30q-42 0 -70.5 23.5t-28.5 63.5q0 49 43 78q-12 12 -49 12q-55 0 -86.5 -51.5t-31.5 -121.5q0 -73 33.5 -126.5t93.5 -53.5q52 0 84 32t33 82h99q0 -97 -59.5 -149 t-149.5 -64v-71h-101v71q-112 13 -176 83.5t-64 187.5z" />
<glyph unicode="&#xa3;" horiz-adv-x="736" d="M68 83q0 88 145 97q6 20 6 25q0 17 -6 32.5t-19.5 41t-21.5 42.5h-131v92h91q-20 53 -20 89q0 59 29.5 101.5t78.5 64t100 30.5t107 9q43 0 83.5 -7.5t80 -24.5t64 -51t24.5 -80q0 -41 -29.5 -67.5t-70.5 -26.5t-67.5 21.5t-26.5 62.5q0 32 33 55q-42 23 -91 23 q-54 0 -92 -24t-38 -76q0 -39 25 -99h151v-92h-125q8 -35 8 -64q0 -44 -21 -85q23 -4 65.5 -13t77 -14.5t65.5 -5.5q14 0 26 11.5t12 29.5v68h102q0 -35 -0.5 -53t-3.5 -50.5t-8.5 -50.5t-17 -41.5t-27.5 -35.5t-41.5 -21t-57.5 -9q-41 0 -80 15t-89 45t-72 40 q-3 -4 -14 -20.5t-19 -24.5t-22.5 -20t-36 -17.5t-48.5 -5.5q-31 0 -54.5 25t-23.5 59z" />
<glyph unicode="&#xa5;" horiz-adv-x="846" d="M83 254h232v30l-20 28h-212v96h143l-110 155q-14 18 -25 23.5t-31 5.5h-32v100h399v-100h-70q-8 0 -14 -6.5t-6 -14.5q0 -9 11 -26.5t56 -81.5l54 -77l48 65q52 69 64.5 88.5t12.5 31.5q0 21 -21 21h-65v100h321v-100h-22q-50 0 -66 -19l-120 -165h148v-96h-219l-10 -15 v-43h229v-97h-229v-25q0 -15 7 -22.5t14.5 -9t19.5 -1.5h63v-99h-422v102h75q29 0 29 45v10h-232v97z" />
<glyph unicode="&#xa8;" horiz-adv-x="532" d="M59 660q0 35 25.5 59.5t61.5 24.5q34 0 58.5 -24.5t24.5 -59.5t-26 -60.5t-61 -25.5q-34 0 -58.5 25.5t-24.5 60.5zM312 660q0 36 24 60t61 24q35 0 59 -24t24 -59t-25.5 -61t-61.5 -26q-35 0 -58 25.5t-23 60.5z" />
<glyph unicode="&#xa9;" horiz-adv-x="957" d="M889 348q0 -170 -120.5 -290.5t-289.5 -120.5q-171 0 -291.5 120.5t-120.5 290.5q0 169 120.5 289.5t291.5 120.5q169 0 289.5 -120.5t120.5 -289.5zM829 347q0 145 -102.5 247.5t-247.5 102.5q-146 0 -249 -102.5t-103 -247.5q0 -146 103 -249t249 -103q145 0 247.5 103 t102.5 249zM241 339q0 107 70.5 174.5t178.5 67.5q74 0 132 -37l14 32h63v-180h-68q-12 57 -39 85.5t-83 28.5q-113 0 -113 -171q0 -161 117 -161q114 0 123 121h72q0 -93 -65.5 -146t-157.5 -53q-105 0 -174.5 66.5t-69.5 172.5z" />
<glyph unicode="&#xab;" horiz-adv-x="513" d="M36 255l117 193h118l-95 -193l95 -190h-120zM239 255l117 193h117l-94 -193l94 -190h-119z" />
<glyph unicode="&#xad;" horiz-adv-x="325" d="M37 374h251v-125h-251v125z" />
<glyph unicode="&#xae;" horiz-adv-x="957" d="M889 348q0 -170 -120.5 -290.5t-289.5 -120.5q-171 0 -291.5 120.5t-120.5 290.5q0 169 120.5 289.5t291.5 120.5q169 0 289.5 -120.5t120.5 -289.5zM829 347q0 145 -102.5 247.5t-247.5 102.5q-146 0 -249 -102.5t-103 -247.5q0 -146 103 -249t249 -103q145 0 247.5 103 t102.5 249zM442 321v-104q0 -5 4.5 -9.5t9.5 -4.5h46v-60h-250v60h47q5 0 10 4.5t5 9.5v263q0 6 -4.5 10t-10.5 4h-47v60h294q145 0 145 -102q0 -52 -33.5 -74.5t-89.5 -26.5q43 -9 64 -23.5t24 -52.5q1 -6 1.5 -17t1 -19.5t2 -17t4.5 -13.5t8 -5q13 0 13 17v54h56v-32 q0 -59 -22.5 -84t-81.5 -25q-87 0 -97 73l-10 76q-1 12 -3 18.5t-11.5 13.5t-26.5 7h-48zM442 494v-110h40q37 0 56 11t19 47q0 52 -50 52h-65z" />
<glyph unicode="&#xb4;" horiz-adv-x="339" d="M102 596l87 148h182l-157 -148h-112z" />
<glyph unicode="&#xb8;" horiz-adv-x="362" d="M211 -38q50 0 79.5 -16t29.5 -61q0 -34 -16.5 -58t-45 -36t-56.5 -17t-60 -5q-44 0 -98 10l21 73q28 -7 63 -7q53 0 53 38q0 33 -51 33q-16 0 -38 -2l33 106h104z" />
<glyph unicode="&#xbb;" horiz-adv-x="512" d="M157 448l117 -193l-115 -190h-120l95 190l-95 193h118zM360 448l116 -193l-115 -190h-119l95 190l-95 193h118z" />
<glyph unicode="&#xc0;" d="M-18 102h60q23 0 36 35l220 552h191l222 -542q12 -30 30.5 -39t66.5 -9v-99h-400v102h73q19 0 19 20q0 25 -36 102h-237q0 -1 -6.5 -16.5l-13 -31t-12 -32t-5.5 -22.5q0 -7 8.5 -13.5t16.5 -6.5h75v-102h-308v102zM337 504l-70 -180h160l-68 180l-10 50zM397 913l88 -148 h-113l-157 148h182z" />
<glyph unicode="&#xc1;" d="M-18 102h60q23 0 36 35l220 552h191l222 -542q12 -30 30.5 -39t66.5 -9v-99h-400v102h73q19 0 19 20q0 25 -36 102h-237q0 -1 -6.5 -16.5l-13 -31t-12 -32t-5.5 -22.5q0 -7 8.5 -13.5t16.5 -6.5h75v-102h-308v102zM337 504l-70 -180h160l-68 180l-10 50zM340 774l88 148 h182l-158 -148h-112z" />
<glyph unicode="&#xc2;" d="M-18 102h60q23 0 36 35l220 552h191l222 -542q12 -30 30.5 -39t66.5 -9v-99h-400v102h73q19 0 19 20q0 25 -36 102h-237q0 -1 -6.5 -16.5l-13 -31t-12 -32t-5.5 -22.5q0 -7 8.5 -13.5t16.5 -6.5h75v-102h-308v102zM337 504l-70 -180h160l-68 180l-10 50zM197 771l103 150 h178l114 -150h-134l-73 77l-60 -77h-128z" />
<glyph unicode="&#xc4;" d="M-18 102h60q23 0 36 35l220 552h191l222 -542q12 -30 30.5 -39t66.5 -9v-99h-400v102h73q19 0 19 20q0 25 -36 102h-237q0 -1 -6.5 -16.5l-13 -31t-12 -32t-5.5 -22.5q0 -7 8.5 -13.5t16.5 -6.5h75v-102h-308v102zM337 504l-70 -180h160l-68 180l-10 50zM181 837 q0 35 26 60t61 25q34 0 58.5 -25t24.5 -60t-25.5 -60t-61.5 -25q-34 0 -58.5 25t-24.5 60zM434 837q0 36 24.5 60.5t61.5 24.5q34 0 58 -24.5t24 -58.5q0 -36 -25.5 -61.5t-61.5 -25.5q-35 0 -58 25t-23 60z" />
<glyph unicode="&#xc8;" horiz-adv-x="818" d="M468 922l87 -148h-112l-157 148h182zM39 102h78q9 0 16.5 6.5t7.5 15.5v439q0 11 -9 19t-20 8h-73v99h723v-274h-100q-1 7 -4 40t-4 39q-3 39 -24 66.5t-57 27.5h-216v-179h67q20 0 34 17t14 37v50h99v-312h-99v49q0 55 -46 55h-69v-203h224q43 0 66 37.5t23 83.5v76h103 v-299h-734v102z" />
<glyph unicode="&#xc9;" horiz-adv-x="818" d="M39 102h78q9 0 16.5 6.5t7.5 15.5v439q0 11 -9 19t-20 8h-73v99h723v-274h-100q-1 7 -4 40t-4 39q-3 39 -24 66.5t-57 27.5h-216v-179h67q20 0 34 17t14 37v50h99v-312h-99v49q0 55 -46 55h-69v-203h224q43 0 66 37.5t23 83.5v76h103v-299h-734v102zM336 774l88 148h182 l-157 -148h-113z" />
<glyph unicode="&#xca;" horiz-adv-x="818" d="M39 102h78q9 0 16.5 6.5t7.5 15.5v439q0 11 -9 19t-20 8h-73v99h723v-274h-100q-1 7 -4 40t-4 39q-3 39 -24 66.5t-57 27.5h-216v-179h67q20 0 34 17t14 37v50h99v-312h-99v49q0 55 -46 55h-69v-203h224q43 0 66 37.5t23 83.5v76h103v-299h-734v102zM223 771l103 150h179 l114 -150h-134l-73 77l-60 -77h-129z" />
<glyph unicode="&#xcb;" horiz-adv-x="818" d="M39 102h78q9 0 16.5 6.5t7.5 15.5v439q0 11 -9 19t-20 8h-73v99h723v-274h-100q-1 7 -4 40t-4 39q-3 39 -24 66.5t-57 27.5h-216v-179h67q20 0 34 17t14 37v50h99v-312h-99v49q0 55 -46 55h-69v-203h224q43 0 66 37.5t23 83.5v76h103v-299h-734v102zM210 837q0 35 26 60 t62 25q34 0 58.5 -25t24.5 -60t-26 -60t-62 -25q-34 0 -58.5 25t-24.5 60zM463 837q0 36 24.5 60.5t61.5 24.5q34 0 58.5 -24.5t24.5 -58.5q0 -36 -26 -61.5t-62 -25.5q-35 0 -58 25t-23 60z" />
<glyph unicode="&#xcc;" horiz-adv-x="499" d="M250 922l87 -148h-112l-157 148h182zM357 565v-441q0 -9 8 -15.5t17 -6.5h77v-102h-420v102h78q9 0 16.5 6.5t7.5 15.5v441q0 9 -7.5 15.5t-16.5 6.5h-78v102h420v-102h-77q-9 0 -17 -6.5t-8 -15.5z" />
<glyph unicode="&#xcd;" horiz-adv-x="499" d="M357 565v-441q0 -9 8 -15.5t17 -6.5h77v-102h-420v102h78q9 0 16.5 6.5t7.5 15.5v441q0 9 -7.5 15.5t-16.5 6.5h-78v102h420v-102h-77q-9 0 -17 -6.5t-8 -15.5zM193 774l87 148h183l-158 -148h-112z" />
<glyph unicode="&#xce;" horiz-adv-x="499" d="M357 565v-441q0 -9 8 -15.5t17 -6.5h77v-102h-420v102h78q9 0 16.5 6.5t7.5 15.5v441q0 9 -7.5 15.5t-16.5 6.5h-78v102h420v-102h-77q-9 0 -17 -6.5t-8 -15.5zM51 771l103 150h179l114 -150h-134l-73 77l-60 -77h-129z" />
<glyph unicode="&#xcf;" horiz-adv-x="499" d="M357 565v-441q0 -9 8 -15.5t17 -6.5h77v-102h-420v102h78q9 0 16.5 6.5t7.5 15.5v441q0 9 -7.5 15.5t-16.5 6.5h-78v102h420v-102h-77q-9 0 -17 -6.5t-8 -15.5zM38 837q0 35 26 60t62 25q34 0 58.5 -25t24.5 -60t-26 -60t-62 -25q-34 0 -58.5 25t-24.5 60zM291 837 q0 36 24.5 60.5t61.5 24.5q34 0 58.5 -24.5t24.5 -58.5q0 -36 -26 -61.5t-62 -25.5q-35 0 -58 25t-23 60z" />
<glyph unicode="&#xd2;" horiz-adv-x="852" d="M35 342q0 171 110.5 269.5t283.5 98.5q167 0 277.5 -100.5t110.5 -267.5q0 -168 -108 -266t-281 -98q-170 0 -281.5 99.5t-111.5 264.5zM271 342q0 -38 2.5 -68.5t11.5 -68t25 -62.5t45 -42.5t69 -17.5q41 0 70.5 16.5t45.5 40t25 60.5t11 67.5t2 71.5q0 37 -1 60 t-5 58.5t-14 57.5t-26.5 44.5t-43.5 33.5t-63 11q-41 0 -70.5 -17.5t-45.5 -42t-25 -63t-11 -69t-2 -70.5zM428 922l88 -148h-113l-157 148h182z" />
<glyph unicode="&#xd3;" horiz-adv-x="852" d="M355 774l87 148h182l-157 -148h-112zM35 342q0 171 110.5 269.5t283.5 98.5q167 0 277.5 -100.5t110.5 -267.5q0 -168 -108 -266t-281 -98q-170 0 -281.5 99.5t-111.5 264.5zM271 342q0 -38 2.5 -68.5t11.5 -68t25 -62.5t45 -42.5t69 -17.5q41 0 70.5 16.5t45.5 40 t25 60.5t11 67.5t2 71.5q0 37 -1 60t-5 58.5t-14 57.5t-26.5 44.5t-43.5 33.5t-63 11q-41 0 -70.5 -17.5t-45.5 -42t-25 -63t-11 -69t-2 -70.5z" />
<glyph unicode="&#xd4;" horiz-adv-x="852" d="M35 342q0 171 110.5 269.5t283.5 98.5q167 0 277.5 -100.5t110.5 -267.5q0 -168 -108 -266t-281 -98q-170 0 -281.5 99.5t-111.5 264.5zM271 342q0 -38 2.5 -68.5t11.5 -68t25 -62.5t45 -42.5t69 -17.5q41 0 70.5 16.5t45.5 40t25 60.5t11 67.5t2 71.5q0 37 -1 60 t-5 58.5t-14 57.5t-26.5 44.5t-43.5 33.5t-63 11q-41 0 -70.5 -17.5t-45.5 -42t-25 -63t-11 -69t-2 -70.5zM228 771l103 150h178l114 -150h-134l-73 77l-59 -77h-129z" />
<glyph unicode="&#xd6;" horiz-adv-x="852" d="M35 342q0 171 110.5 269.5t283.5 98.5q167 0 277.5 -100.5t110.5 -267.5q0 -168 -108 -266t-281 -98q-170 0 -281.5 99.5t-111.5 264.5zM271 342q0 -38 2.5 -68.5t11.5 -68t25 -62.5t45 -42.5t69 -17.5q41 0 70.5 16.5t45.5 40t25 60.5t11 67.5t2 71.5q0 37 -1 60 t-5 58.5t-14 57.5t-26.5 44.5t-43.5 33.5t-63 11q-41 0 -70.5 -17.5t-45.5 -42t-25 -63t-11 -69t-2 -70.5zM215 837q0 35 25.5 60t61.5 25q34 0 58.5 -25t24.5 -60q0 -34 -26 -59.5t-61 -25.5q-34 0 -58.5 25t-24.5 60zM468 837q0 36 24.5 60.5t60.5 24.5q34 0 58.5 -24.5 t24.5 -58.5q0 -36 -25.5 -61.5t-61.5 -25.5q-35 0 -58 25t-23 60z" />
<glyph unicode="&#xd9;" horiz-adv-x="827" d="M746 590q-9 0 -17 -6.5t-8 -15.5v-361q0 -115 -87 -169.5t-233 -54.5q-49 0 -98 12t-93.5 36t-72 65.5t-27.5 94.5v376q0 9 -8 15.5t-17 6.5h-77v102h419v-102h-78q-9 0 -17 -6.5t-8 -15.5v-380q0 -45 31 -71.5t75 -26.5q90 0 134.5 24.5t44.5 100.5v354q0 9 -8 15.5 t-17 6.5h-71v102h310v-102h-77zM441 922l88 -148h-112l-158 148h182z" />
<glyph unicode="&#xda;" horiz-adv-x="827" d="M404 774l87 148h182l-157 -148h-112zM746 590q-9 0 -17 -6.5t-8 -15.5v-361q0 -115 -87 -169.5t-233 -54.5q-49 0 -98 12t-93.5 36t-72 65.5t-27.5 94.5v376q0 9 -8 15.5t-17 6.5h-77v102h419v-102h-78q-9 0 -17 -6.5t-8 -15.5v-380q0 -45 31 -71.5t75 -26.5 q90 0 134.5 24.5t44.5 100.5v354q0 9 -8 15.5t-17 6.5h-71v102h310v-102h-77z" />
<glyph unicode="&#xdb;" horiz-adv-x="827" d="M746 590q-9 0 -17 -6.5t-8 -15.5v-361q0 -115 -87 -169.5t-233 -54.5q-49 0 -98 12t-93.5 36t-72 65.5t-27.5 94.5v376q0 9 -8 15.5t-17 6.5h-77v102h419v-102h-78q-9 0 -17 -6.5t-8 -15.5v-380q0 -45 31 -71.5t75 -26.5q90 0 134.5 24.5t44.5 100.5v354q0 9 -8 15.5 t-17 6.5h-71v102h310v-102h-77zM272 771l103 150h179l114 -150h-135l-72 77l-60 -77h-129z" />
<glyph unicode="&#xdc;" horiz-adv-x="827" d="M746 590q-9 0 -17 -6.5t-8 -15.5v-361q0 -115 -87 -169.5t-233 -54.5q-49 0 -98 12t-93.5 36t-72 65.5t-27.5 94.5v376q0 9 -8 15.5t-17 6.5h-77v102h419v-102h-78q-9 0 -17 -6.5t-8 -15.5v-380q0 -45 31 -71.5t75 -26.5q90 0 134.5 24.5t44.5 100.5v354q0 9 -8 15.5 t-17 6.5h-71v102h310v-102h-77zM259 837q0 35 26 60t62 25q34 0 58.5 -25t24.5 -60t-26 -60t-62 -25q-34 0 -58.5 25t-24.5 60zM512 837q0 36 24.5 60.5t61.5 24.5q34 0 58.5 -24.5t24.5 -58.5q0 -36 -26 -61.5t-62 -25.5q-35 0 -58 25t-23 60z" />
<glyph unicode="&#xdd;" horiz-adv-x="737" d="M341 774l87 148h182l-157 -148h-112zM158 0v102h75q29 0 29 45v137l-199 279q-14 18 -25 23.5t-31 5.5h-32v100h399v-100h-70q-8 0 -14 -6.5t-6 -14.5q0 -9 11 -26.5t56 -81.5l54 -77l48 65q52 69 64.5 88.5t12.5 31.5q0 21 -21 21h-65v100h321v-100h-22q-50 0 -66 -19 l-201 -276v-165q0 -15 7 -22.5t14.5 -9t19.5 -1.5h63v-99h-422z" />
<glyph unicode="&#xe0;" horiz-adv-x="665" d="M644 119v-102l-12 -6t-15 -7t-18 -6t-26 -6t-34 -3.5t-46 -1.5q-45 0 -74.5 17.5t-38.5 72.5q-50 -90 -169 -90q-71 0 -120.5 36.5t-49.5 105.5q0 37 14.5 65.5t42.5 48t54.5 31t65.5 23.5q76 23 145 31v83q-4 57 -67 57q-46 0 -68 -22q39 -19 39 -56q0 -35 -29 -53 t-66 -18q-42 0 -72 23t-30 63q0 130 252 130q44 0 82 -6.5t77 -22t62 -48.5t23 -80v-238q0 -34 32 -34q14 0 46 13zM251 155q0 -21 11.5 -35t31.5 -14q27 0 48 21t21 47v77q-47 -7 -79.5 -30t-32.5 -66zM334 744l87 -148h-112l-158 148h183z" />
<glyph unicode="&#xe2;" horiz-adv-x="665" d="M644 119v-102l-12 -6t-15 -7t-18 -6t-26 -6t-34 -3.5t-46 -1.5q-45 0 -74.5 17.5t-38.5 72.5q-50 -90 -169 -90q-71 0 -120.5 36.5t-49.5 105.5q0 37 14.5 65.5t42.5 48t54.5 31t65.5 23.5q76 23 145 31v83q-4 57 -67 57q-46 0 -68 -22q39 -19 39 -56q0 -35 -29 -53 t-66 -18q-42 0 -72 23t-30 63q0 130 252 130q44 0 82 -6.5t77 -22t62 -48.5t23 -80v-238q0 -34 32 -34q14 0 46 13zM251 155q0 -21 11.5 -35t31.5 -14q27 0 48 21t21 47v77q-47 -7 -79.5 -30t-32.5 -66zM141 593l103 150h179l114 -150h-134l-73 78l-60 -78h-129z" />
<glyph unicode="&#xe4;" horiz-adv-x="665" d="M644 119v-102l-12 -6t-15 -7t-18 -6t-26 -6t-34 -3.5t-46 -1.5q-45 0 -74.5 17.5t-38.5 72.5q-50 -90 -169 -90q-71 0 -120.5 36.5t-49.5 105.5q0 37 14.5 65.5t42.5 48t54.5 31t65.5 23.5q76 23 145 31v83q-4 57 -67 57q-46 0 -68 -22q39 -19 39 -56q0 -35 -29 -53 t-66 -18q-42 0 -72 23t-30 63q0 130 252 130q44 0 82 -6.5t77 -22t62 -48.5t23 -80v-238q0 -34 32 -34q14 0 46 13zM251 155q0 -21 11.5 -35t31.5 -14q27 0 48 21t21 47v77q-47 -7 -79.5 -30t-32.5 -66zM128 660q0 35 26 59.5t62 24.5q34 0 58.5 -24.5t24.5 -59.5t-26 -60.5 t-62 -25.5q-34 0 -58.5 25.5t-24.5 60.5zM381 660q0 36 24.5 60t61.5 24q35 0 59 -24t24 -59t-26 -61t-62 -26q-35 0 -58 25.5t-23 60.5z" />
<glyph unicode="&#xe8;" horiz-adv-x="650" d="M34 259q0 130 82 202.5t215 72.5q143 0 217 -78t74 -221h-370q0 -74 30 -111t101 -37q56 0 85.5 20.5t43.5 72.5h104q-3 -52 -30 -91.5t-68.5 -61t-87.5 -32t-95 -10.5q-138 0 -219.5 68t-81.5 206zM331 440q-39 0 -58 -36t-19 -80h150q0 116 -73 116zM345 744l88 -148 h-113l-157 148h182z" />
<glyph unicode="&#xe9;" horiz-adv-x="650" d="M34 259q0 130 82 202.5t215 72.5q143 0 217 -78t74 -221h-370q0 -74 30 -111t101 -37q56 0 85.5 20.5t43.5 72.5h104q-3 -52 -30 -91.5t-68.5 -61t-87.5 -32t-95 -10.5q-138 0 -219.5 68t-81.5 206zM331 440q-39 0 -58 -36t-19 -80h150q0 116 -73 116zM263 596l88 148 h182l-157 -148h-113z" />
<glyph unicode="&#xea;" horiz-adv-x="650" d="M34 259q0 130 82 202.5t215 72.5q143 0 217 -78t74 -221h-370q0 -74 30 -111t101 -37q56 0 85.5 20.5t43.5 72.5h104q-3 -52 -30 -91.5t-68.5 -61t-87.5 -32t-95 -10.5q-138 0 -219.5 68t-81.5 206zM331 440q-39 0 -58 -36t-19 -80h150q0 116 -73 116zM137 593l103 150 h179l114 -150h-134l-73 78l-60 -78h-129z" />
<glyph unicode="&#xeb;" horiz-adv-x="650" d="M34 259q0 130 82 202.5t215 72.5q143 0 217 -78t74 -221h-370q0 -74 30 -111t101 -37q56 0 85.5 20.5t43.5 72.5h104q-3 -52 -30 -91.5t-68.5 -61t-87.5 -32t-95 -10.5q-138 0 -219.5 68t-81.5 206zM331 440q-39 0 -58 -36t-19 -80h150q0 116 -73 116zM124 660 q0 35 26 59.5t62 24.5q34 0 58.5 -24.5t24.5 -59.5t-26 -60.5t-62 -25.5q-34 0 -58.5 25.5t-24.5 60.5zM377 660q0 36 24.5 60t61.5 24q35 0 59 -24t24 -59t-26 -61t-62 -26q-34 0 -57.5 25.5t-23.5 60.5z" />
<glyph unicode="&#xec;" horiz-adv-x="419" d="M212 744l87 -148h-112l-157 148h182zM48 89h58q19 0 19 37v274q0 12 -7.5 18.5t-17.5 6.5h-52v89l281 10v-397q0 -38 20 -38h52v-89h-353v89z" />
<glyph unicode="&#xed;" horiz-adv-x="407" d="M30 89h58q19 0 19 37v274q0 12 -7.5 18.5t-17.5 6.5h-52v89l281 10v-397q0 -38 20 -38h52v-89h-353v89zM119 596l88 148h182l-157 -148h-113z" />
<glyph unicode="&#xee;" horiz-adv-x="444" d="M56 89h58q19 0 19 37v274q0 12 -7.5 18.5t-17.5 6.5h-52v89l281 10v-397q0 -38 20 -38h52v-89h-353v89zM30 593l103 150h179l114 -150h-134l-73 78l-60 -78h-129z" />
<glyph unicode="&#xef;" horiz-adv-x="470" d="M69 89h58q19 0 19 37v274q0 12 -7.5 18.5t-17.5 6.5h-52v89l281 10v-397q0 -38 20 -38h52v-89h-353v89zM30 660q0 35 26 59.5t62 24.5q34 0 58.5 -24.5t24.5 -59.5t-26 -60.5t-62 -25.5q-34 0 -58.5 25.5t-24.5 60.5zM283 660q0 36 24.5 60t61.5 24q35 0 59 -24t24 -59 t-26 -61t-62 -26q-35 0 -58 25.5t-23 60.5z" />
<glyph unicode="&#xf2;" horiz-adv-x="656" d="M623 259q0 -132 -83 -203t-217 -71q-125 0 -207.5 69.5t-82.5 204.5t81.5 205t219.5 70q130 0 209.5 -71.5t79.5 -203.5zM250 258q0 -88 17 -133.5t62 -45.5t60.5 45t15.5 134q0 90 -15.5 136t-59.5 46q-46 0 -63 -47t-17 -135zM330 744l87 -148h-112l-158 148h183z" />
<glyph unicode="&#xf3;" horiz-adv-x="656" d="M258 596l87 148h182l-157 -148h-112zM623 259q0 -132 -83 -203t-217 -71q-125 0 -207.5 69.5t-82.5 204.5t81.5 205t219.5 70q130 0 209.5 -71.5t79.5 -203.5zM250 258q0 -88 17 -133.5t62 -45.5t60.5 45t15.5 134q0 90 -15.5 136t-59.5 46q-46 0 -63 -47t-17 -135z" />
<glyph unicode="&#xf4;" horiz-adv-x="656" d="M623 259q0 -132 -83 -203t-217 -71q-125 0 -207.5 69.5t-82.5 204.5t81.5 205t219.5 70q130 0 209.5 -71.5t79.5 -203.5zM250 258q0 -88 17 -133.5t62 -45.5t60.5 45t15.5 134q0 90 -15.5 136t-59.5 46q-46 0 -63 -47t-17 -135zM130 593l103 150h178l115 -150h-135 l-72 78l-60 -78h-129z" />
<glyph unicode="&#xf6;" horiz-adv-x="656" d="M623 259q0 -132 -83 -203t-217 -71q-125 0 -207.5 69.5t-82.5 204.5t81.5 205t219.5 70q130 0 209.5 -71.5t79.5 -203.5zM250 258q0 -88 17 -133.5t62 -45.5t60.5 45t15.5 134q0 90 -15.5 136t-59.5 46q-46 0 -63 -47t-17 -135zM117 660q0 35 25.5 59.5t61.5 24.5 q35 0 59 -24.5t24 -59.5t-25.5 -60.5t-61.5 -25.5q-34 0 -58.5 25.5t-24.5 60.5zM370 660q0 36 24.5 60t61.5 24q34 0 58 -24t24 -59t-25.5 -61t-61.5 -26q-35 0 -58 25.5t-23 60.5z" />
<glyph unicode="&#xf9;" horiz-adv-x="755" d="M345 744l87 -148h-112l-157 148h182zM14 426v89l275 9v-364q0 -28 18.5 -44t45.5 -16q40 0 65 23t25 62v203q0 38 -20 38h-57v89l281 9v-410q0 -25 20 -25h62v-88h-283l7 79q-49 -97 -183 -97q-44 0 -84 15t-69.5 50t-29.5 82v258q0 38 -20 38h-53z" />
<glyph unicode="&#xfa;" horiz-adv-x="755" d="M292 596l87 148h182l-157 -148h-112zM14 426v89l275 9v-364q0 -28 18.5 -44t45.5 -16q40 0 65 23t25 62v203q0 38 -20 38h-57v89l281 9v-410q0 -25 20 -25h62v-88h-283l7 79q-49 -97 -183 -97q-44 0 -84 15t-69.5 50t-29.5 82v258q0 38 -20 38h-53z" />
<glyph unicode="&#xfb;" horiz-adv-x="755" d="M159 593l103 150h179l114 -150h-135l-72 78l-60 -78h-129zM14 426v89l275 9v-364q0 -28 18.5 -44t45.5 -16q40 0 65 23t25 62v203q0 38 -20 38h-57v89l281 9v-410q0 -25 20 -25h62v-88h-283l7 79q-49 -97 -183 -97q-44 0 -84 15t-69.5 50t-29.5 82v258q0 38 -20 38h-53z " />
<glyph unicode="&#xfc;" horiz-adv-x="755" d="M14 426v89l275 9v-364q0 -28 18.5 -44t45.5 -16q40 0 65 23t25 62v203q0 38 -20 38h-57v89l281 9v-410q0 -25 20 -25h62v-88h-283l7 79q-49 -97 -183 -97q-44 0 -84 15t-69.5 50t-29.5 82v258q0 38 -20 38h-53zM142 660q0 35 25.5 59.5t61.5 24.5q34 0 58.5 -24.5 t24.5 -59.5t-26 -60.5t-62 -25.5q-34 0 -58 25.5t-24 60.5zM395 660q0 36 24 60t61 24q34 0 58.5 -24t24.5 -59t-26 -61t-61 -26t-58 25.5t-23 60.5z" />
<glyph unicode="&#xfd;" horiz-adv-x="635" d="M299 589l87 148h182l-157 -148h-112zM-13 -131q0 49 29 75.5t77 26.5q37 0 61 -20.5t24 -56.5q0 -41 -41 -62q8 -8 25 -8q73 0 108 112l-16 38l-184 427q-13 26 -55 26l-24 -1v87h359v-87h-28q-30 0 -38 -2.5t-8 -14.5q0 -13 88 -217l9 -47l10 46q90 205 90 218 q0 9 -4.5 13t-19.5 4h-59v87h264v-87h-45q-19 0 -34.5 -28.5t-74.5 -169.5l-158 -370q-25 -57 -76.5 -86.5t-116.5 -29.5q-66 0 -114 32.5t-48 94.5z" />
<glyph unicode="&#xff;" horiz-adv-x="635" d="M-13 -131q0 49 29 75.5t77 26.5q37 0 61 -20.5t24 -56.5q0 -41 -41 -62q8 -8 25 -8q73 0 108 112l-16 38l-184 427q-13 26 -55 26l-24 -1v87h359v-87h-28q-30 0 -38 -2.5t-8 -14.5q0 -13 88 -217l9 -47l10 46q90 205 90 218q0 9 -4.5 13t-19.5 4h-59v87h264v-87h-45 q-19 0 -34.5 -28.5t-74.5 -169.5l-158 -370q-25 -57 -76.5 -86.5t-116.5 -29.5q-66 0 -114 32.5t-48 94.5zM163 660q0 35 25.5 59.5t61.5 24.5q34 0 58.5 -24.5t24.5 -59.5t-26 -60.5t-62 -25.5q-34 0 -58 25.5t-24 60.5zM416 660q0 36 24 60t61 24q35 0 59 -24t24 -59 t-26 -61t-61 -26t-58 25.5t-23 60.5z" />
<glyph unicode="&#x178;" horiz-adv-x="737" d="M158 0v102h75q29 0 29 45v137l-199 279q-14 18 -25 23.5t-31 5.5h-32v100h399v-100h-70q-8 0 -14 -6.5t-6 -14.5q0 -9 11 -26.5t56 -81.5l54 -77l48 65q52 69 64.5 88.5t12.5 31.5q0 21 -21 21h-65v100h321v-100h-22q-50 0 -66 -19l-201 -276v-165q0 -15 7 -22.5t14.5 -9 t19.5 -1.5h63v-99h-422zM193 837q0 35 26 60t62 25q34 0 58.5 -25t24.5 -60t-26 -60t-62 -25q-34 0 -58.5 25t-24.5 60zM446 837q0 36 24.5 60.5t61.5 24.5q34 0 58.5 -24.5t24.5 -58.5q0 -36 -26 -61.5t-62 -25.5q-35 0 -58 25t-23 60z" />
<glyph unicode="&#x2c6;" horiz-adv-x="479" d="M44 593l103 150h179l114 -150h-135l-72 78l-60 -78h-129z" />
<glyph unicode="&#x2da;" horiz-adv-x="379" d="M43 647q0 97 150 97q58 0 103.5 -23.5t45.5 -73.5q0 -98 -153 -98q-146 0 -146 98zM155 647q0 -38 38 -38q15 0 26 10.5t11 27.5t-10.5 27t-26.5 10q-38 0 -38 -37z" />
<glyph unicode="&#x2dc;" horiz-adv-x="553" d="M52 614q0 50 28.5 90t78.5 40q34 0 114 -22t106 -22q21 0 21 45h99l-1 -21q-1 -49 -27.5 -90.5t-73.5 -41.5q-35 0 -115.5 21.5t-95.5 21.5q-22 0 -27 -8.5t-5 -31.5h-100q-2 2 -2 19z" />
<glyph unicode="&#x2000;" horiz-adv-x="461" />
<glyph unicode="&#x2001;" horiz-adv-x="922" />
<glyph unicode="&#x2002;" horiz-adv-x="461" />
<glyph unicode="&#x2003;" horiz-adv-x="922" />
<glyph unicode="&#x2004;" horiz-adv-x="307" />
<glyph unicode="&#x2005;" horiz-adv-x="230" />
<glyph unicode="&#x2006;" horiz-adv-x="153" />
<glyph unicode="&#x2007;" horiz-adv-x="153" />
<glyph unicode="&#x2008;" horiz-adv-x="115" />
<glyph unicode="&#x2009;" horiz-adv-x="184" />
<glyph unicode="&#x200a;" horiz-adv-x="51" />
<glyph unicode="&#x2010;" horiz-adv-x="325" d="M37 374h251v-125h-251v125z" />
<glyph unicode="&#x2011;" horiz-adv-x="325" d="M37 374h251v-125h-251v125z" />
<glyph unicode="&#x2013;" horiz-adv-x="545" d="M50 374h445v-125h-445v125z" />
<glyph unicode="&#x2014;" horiz-adv-x="895" d="M61 374h773v-125h-773v125z" />
<glyph unicode="&#x2018;" horiz-adv-x="296" d="M151 444q-53 0 -78.5 39t-25.5 96q0 83 49 133t133 50v-63q-30 0 -52 -16t-22 -45q0 -8 1 -11q91 0 91 -88q0 -40 -27 -67.5t-69 -27.5z" />
<glyph unicode="&#x2019;" horiz-adv-x="296" d="M147 761q53 0 78.5 -38.5t25.5 -95.5q0 -84 -49 -134t-132 -50v63q30 0 51.5 15.5t21.5 45.5v12q-92 0 -92 87q0 40 27 67.5t69 27.5z" />
<glyph unicode="&#x201a;" horiz-adv-x="296" d="M147 184q53 0 78.5 -38.5t25.5 -95.5q0 -84 -48.5 -133.5t-132.5 -49.5v62q30 0 51.5 15.5t21.5 45.5v12q-92 0 -92 87q0 41 27 68t69 27z" />
<glyph unicode="&#x201c;" horiz-adv-x="546" d="M395 445q-54 0 -79 39t-25 96q0 83 49 133t132 50v-63q-30 0 -52 -16t-22 -45q0 -8 1 -12q91 0 91 -87q0 -40 -27 -67.5t-68 -27.5zM144 445q-53 0 -78.5 39t-25.5 96q0 83 49 133t133 50v-63q-30 0 -52 -16t-22 -45q0 -8 1 -12q91 0 91 -87q0 -40 -27 -67.5t-69 -27.5z " />
<glyph unicode="&#x201d;" horiz-adv-x="546" d="M147 762q53 0 78.5 -38.5t25.5 -96.5q0 -83 -49 -133t-132 -50v63q30 0 51.5 15.5t21.5 45.5v12q-92 0 -92 87q0 40 27 67.5t69 27.5zM397 762q54 0 79 -38.5t25 -96.5q0 -83 -49 -133t-132 -50v63q30 0 52 16t22 45q0 8 -1 12q-91 0 -91 87q0 40 27 67.5t68 27.5z" />
<glyph unicode="&#x201e;" horiz-adv-x="546" d="M147 184q53 0 78.5 -38.5t25.5 -95.5q0 -84 -48.5 -133.5t-132.5 -49.5v62q30 0 51.5 15.5t21.5 45.5v12q-92 0 -92 87q0 41 27 68t69 27zM397 184q54 0 79 -38.5t25 -95.5q0 -84 -48.5 -133.5t-132.5 -49.5v62q30 0 52 16t22 45q0 8 -1 12q-91 0 -91 87q0 41 26.5 68 t68.5 27z" />
<glyph unicode="&#x2026;" horiz-adv-x="942" d="M70 93q0 42 27.5 69t68.5 27t70 -28t29 -68t-29 -69t-70 -29q-40 0 -68 28.5t-28 69.5zM687 93q0 42 27.5 69t68.5 27t70 -28t29 -68t-29 -69t-70 -29q-40 0 -68 28.5t-28 69.5zM379 93q0 42 27.5 69t68.5 27t70 -28t29 -68t-29 -69t-70 -29t-68.5 28.5t-27.5 69.5z" />
<glyph unicode="&#x202f;" horiz-adv-x="184" />
<glyph unicode="&#x2039;" horiz-adv-x="310" d="M36 255l117 193h118l-95 -193l95 -190h-120z" />
<glyph unicode="&#x203a;" horiz-adv-x="290" d="M147 448l117 -193l-115 -190h-120l95 190l-95 193h118z" />
<glyph unicode="&#x205f;" horiz-adv-x="230" />
<glyph unicode="&#x20ac;" horiz-adv-x="823" d="M29 316h52q-1 8 -1 26t1 27h-52v75h63q32 122 131.5 195t236.5 73q78 0 148.5 -20t122 -68t51.5 -116q0 -51 -33.5 -86t-85.5 -35q-40 0 -68 25t-28 65q0 33 20 55t52 22q4 0 16 -2q-51 52 -167 52q-64 0 -105.5 -41t-57.5 -119h208v-75h-217v-53h217v-75h-208 q31 -144 169 -144q177 0 190 183h108q0 -72 -28 -130t-75.5 -95t-108 -56.5t-127.5 -19.5q-134 0 -232 71t-129 191h-63v75z" />
<glyph unicode="&#x2122;" horiz-adv-x="1273" d="M510 693v-190h-64q-3 22 -6.5 34.5t-12.5 31t-27 27t-46 8.5h-16v-218q0 -14 6.5 -18.5t21.5 -6.5h52v-86h-283v86h55q11 0 18.5 8t7.5 19v216h-14q-23 0 -39.5 -7.5t-25 -15t-15 -25.5t-8 -25t-4.5 -28h-63v190h463zM1008 361q12 0 19 8t7 19v213l-137 -326h-47 l-136 323v-212q0 -14 6.5 -18.5t22.5 -6.5h51v-86h-253v86h53q12 0 19 8t7 19v192q0 11 -7 18.5t-19 7.5h-53v87h229q3 0 120 -244l113 244h234v-87h-53q-15 -2 -21.5 -6.5t-6.5 -18.5v-195q0 -14 6.5 -18.5t21.5 -6.5h53v-86h-283v86h54z" />
</font>
</defs>
</svg>
