<?xml version="1.0" standalone="no"?>
<!DOCTYPE svg PUBLIC "-//W3C//DTD SVG 1.1//EN" "http://www.w3.org/Graphics/SVG/1.1/DTD/svg11.dtd" >
<svg xmlns="http://www.w3.org/2000/svg">
<metadata>
This is a custom SVG webfont generated by Fontspring.
</metadata>
<defs>
<font id="webfontogLVewVZ" horiz-adv-x="1120" >
<font-face units-per-em="2048" ascent="1542" descent="-506" />
<missing-glyph horiz-adv-x="512" />
<glyph unicode=" "  horiz-adv-x="512" />
<glyph unicode="&#x09;" horiz-adv-x="512" />
<glyph unicode="&#xa0;" horiz-adv-x="512" />
<glyph unicode="!" horiz-adv-x="530" d="M190 61.5q0 30.5 23 52t53.5 21.5t52 -21.5t21.5 -52t-22.5 -53t-51.5 -22.5q-31 0 -53.5 22.5t-22.5 53zM221 244v1122h88v-1122h-88z" />
<glyph unicode="&#x22;" horiz-adv-x="737" d="M215 1366h94l-16 -469h-64zM428 1366h92l-14 -469h-64z" />
<glyph unicode="#" horiz-adv-x="1228" d="M92 451v81h252l41 328h-242v82h252l51 430l89 -12l-52 -418h328l53 430l88 -12l-51 -418h236v-82h-244l-41 -328h233v-81h-243l-58 -457l-86 12l56 445h-332l-57 -457l-86 12l55 445h-242zM432 532h330l39 328h-328z" />
<glyph unicode="$" d="M150 274l75 35q102 -244 324 -243v626q-119 57 -160 84q-86 55 -123 116.5t-37 149.5q0 137 89.5 230.5t230.5 103.5v191h80v-193q88 -12 162.5 -63t113.5 -127l-65 -54q-86 141 -211 160v-540q168 -82 215 -119q129 -92 129 -250q0 -143 -97.5 -253t-246.5 -138v-209 h-80v203q-290 5 -399 290zM319 1038q0 -82 46.5 -132t183.5 -120v508q-98 -8 -164 -81t-66 -175zM629 74q111 27 182.5 112.5t71.5 192.5q0 88 -55.5 147.5t-198.5 126.5v-579z" />
<glyph unicode="%" horiz-adv-x="1239" d="M68 1114q0 111 79.5 187.5t194.5 76.5q119 0 197.5 -76.5t78.5 -191.5t-79.5 -191.5t-198.5 -76.5q-115 0 -193.5 78.5t-78.5 193.5zM150 1114q0 -82 56 -139t138 -57q78 0 135.5 57t57.5 137t-57.5 136.5t-137.5 56.5q-78 0 -135 -56.5t-57 -134.5zM182 2l809 1395 l60 -31l-811 -1397zM618 260q0 111 80 187.5t195 76.5q119 0 197.5 -76.5t78.5 -191.5t-79.5 -191.5t-198.5 -76.5q-115 0 -194 78.5t-79 193.5zM698 258q0 -82 56.5 -139.5t138.5 -57.5q80 0 137 57.5t57 137.5t-57 136.5t-137 56.5t-137.5 -56.5t-57.5 -134.5z" />
<glyph unicode="&#x26;" horiz-adv-x="1288" d="M129 328q0 137 95 252.5t313 242.5q-137 207 -138 301q0 111 79 189t188 78q104 0 175.5 -74t71.5 -180q0 -94 -54 -166t-197 -172l333 -451q78 74 160 182l80 -36q-106 -137 -188 -218l206 -278h-114l-162 217q-156 -131 -270.5 -186.5t-223.5 -55.5q-147 0 -250.5 104 t-103.5 251zM219 336q0 -119 78 -200t190 -81q172 0 441 232l-342 467l-129 -82q-238 -152 -238 -336zM487 1118q0 -63 62 -155q37 -53 61 -95q139 102 177 150.5t38 122.5q0 70 -49 118t-118.5 48t-120 -56.5t-50.5 -132.5z" />
<glyph unicode="'" horiz-adv-x="501" d="M199 1366h94l-17 -469h-63z" />
<glyph unicode="(" horiz-adv-x="550" d="M178 584q0 252 41 519t103 419l67 -47q-127 -446 -127 -891q0 -446 127 -893l-67 -47q-61 154 -102.5 420t-41.5 520z" />
<glyph unicode=")" horiz-adv-x="550" d="M164 -309q127 442 127 892.5t-127 891.5l67 47q61 -152 102.5 -419t41.5 -519q0 -254 -41 -520.5t-103 -419.5z" />
<glyph unicode="*" d="M238 1227l26 84l258 -90l-6 272h88l-6 -272l256 90l29 -84l-262 -78l165 -217l-71 -51l-156 225l-153 -225l-72 51l166 217z" />
<glyph unicode="+" d="M63 655v82h455v449h82v-449h455v-82h-455v-448h-82v448h-455z" />
<glyph unicode="," horiz-adv-x="415" d="M78 -281l123 414l82 -24l-152 -410z" />
<glyph unicode="-" horiz-adv-x="344" d="M0 383v82h344v-82h-344z" />
<glyph unicode="." horiz-adv-x="415" d="M133 61q0 29 22.5 51.5t53.5 22.5t52.5 -21.5t21.5 -52t-22.5 -53t-51.5 -22.5q-31 0 -53.5 22t-22.5 53z" />
<glyph unicode="/" horiz-adv-x="1114" d="M14 -324l1039 1846l63 -33l-1036 -1845z" />
<glyph unicode="0" d="M63 686q0 285 147.5 490.5t354.5 205.5q203 0 346.5 -202.5t143.5 -489.5q0 -293 -145.5 -500.5t-350.5 -207.5t-350.5 205.5t-145.5 498.5zM154 680q0 -262 117.5 -438t291.5 -176q164 0 284 182t120 432q0 258 -119 438t-289 180q-168 0 -286.5 -181t-118.5 -437z" />
<glyph unicode="1" d="M344 1284l39 82h262v-1366h-88v1284h-213z" />
<glyph unicode="2" d="M125 0l522 578q131 143 182.5 234t51.5 181q0 127 -94.5 216t-227.5 89q-84 0 -158.5 -39.5t-113.5 -105.5q-37 -61 -43 -174h-90q6 145 55 221q53 82 151.5 132t202.5 50q170 0 289 -115.5t119 -279.5q0 -143 -119 -303q-25 -33 -178 -203l-357 -399h648v-82h-840z" />
<glyph unicode="3" d="M156 336h86q12 -96 45 -146q35 -53 105.5 -88.5t139.5 -35.5q127 0 219.5 93t92.5 220q0 82 -40 150.5t-110 103.5q-59 29 -157 35v82q102 8 168 51q121 82 120 227q0 117 -75.5 193.5t-190.5 76.5q-70 0 -129 -28.5t-92 -77.5t-47 -152h-84q14 115 51 183 q41 74 121 116.5t176 42.5q152 0 256 -102t104 -252q0 -213 -206 -315q109 -43 167 -130t58 -204q0 -168 -116 -282.5t-286 -114.5q-104 0 -194 48t-137 130q-43 76 -45 176z" />
<glyph unicode="4" d="M20 260l824 1151v-1069h192v-82h-192v-260h-88v260h-736zM184 342h572v803z" />
<glyph unicode="5" d="M61 207l80 33q121 -174 330 -174q168 0 282.5 113.5t114.5 279.5q0 164 -114.5 275.5t-284.5 111.5q-100 0 -205 -60l178 580h519v-82h-457l-113 -369q59 14 101 15q199 0 332.5 -135.5t133.5 -333.5q0 -205 -141 -342t-348 -137q-265 0 -408 225z" />
<glyph unicode="6" d="M74 463q0 154 88 278l452 641l70 -51l-301 -430q98 37 182 37q197 0 337 -140.5t140 -336.5q0 -199 -141 -339t-342 -140q-205 0 -345 140t-140 341zM164 461q0 -164 116.5 -279.5t280.5 -115.5q160 0 276.5 115.5t116.5 273.5q0 168 -115.5 283.5t-279.5 115.5 t-279.5 -115.5t-115.5 -277.5z" />
<glyph unicode="7" d="M72 37l882 1247h-829v82h989l-975 -1380z" />
<glyph unicode="8" d="M164 362q0 231 221 349q-188 111 -188 313q0 152 104.5 255t260 103t261 -102t105.5 -254q0 -96 -53.5 -181t-143.5 -134q223 -106 223 -342q0 -164 -114.5 -275.5t-282.5 -111.5q-166 0 -279.5 109t-113.5 271zM252 371q0 -127 89 -216t216 -89t216 89t89 214t-89 213 t-216 88q-125 0 -215 -88t-90 -211zM287 1026q0 -115 81 -196.5t193.5 -81.5t193.5 80.5t81 195.5t-80 194.5t-195 79.5q-113 0 -193.5 -79.5t-80.5 -192.5z" />
<glyph unicode="9" d="M78 905q0 199 142 338t343 139q203 0 343.5 -139t140.5 -340q0 -156 -89 -278l-452 -641l-70 53l301 428q-98 -35 -182 -35q-197 0 -337 140t-140 335zM166 909q0 -166 115.5 -281.5t281.5 -115.5q164 0 279.5 115.5t115.5 277.5t-116.5 277.5t-280.5 115.5 q-162 0 -278.5 -114.5t-116.5 -274.5z" />
<glyph unicode=":" horiz-adv-x="415" d="M133 61q0 29 22.5 51.5t53.5 22.5t52.5 -21.5t21.5 -52t-22.5 -53t-51.5 -22.5q-31 0 -53.5 22t-22.5 53zM133 780q0 29 22.5 51.5t53.5 22.5t52.5 -21.5t21.5 -52t-22.5 -53t-51.5 -22.5q-31 0 -53.5 22t-22.5 53z" />
<glyph unicode=";" horiz-adv-x="415" d="M78 -281l123 414l82 -24l-152 -410zM141 780q0 29 22.5 51.5t53.5 22.5q29 0 51.5 -21.5t22.5 -52t-22.5 -53t-51.5 -22.5q-33 0 -54.5 22t-21.5 53z" />
<glyph unicode="&#x3c;" horiz-adv-x="1024" d="M68 645v82l886 395v-90l-790 -346l790 -348v-90z" />
<glyph unicode="=" d="M63 547v82h992v-82h-992zM63 764v82h992v-82h-992z" />
<glyph unicode="&#x3e;" horiz-adv-x="1024" d="M70 248v90l790 348l-790 346v90l886 -395v-82z" />
<glyph unicode="?" horiz-adv-x="952" d="M150 1073q0 131 93 218t232 87q141 0 233.5 -93t92.5 -236q0 -88 -37 -162t-98 -113q-43 -27 -121 -48l-130 -37q-52 -15 -94 -60t-42 -123q0 -84 57 -141.5t139 -57.5q180 0 197 219h84v-20q0 -123 -78 -201t-203 -78q-123 0 -204 80t-81 201q0 207 259 276 q98 27 129.5 39.5t60.5 36.5q74 61 74 182q0 109 -70 181.5t-174 72.5q-100 0 -168 -68.5t-68 -168.5q0 -45 13 -98h-84q-12 65 -12 112zM397 61q0 29 22.5 51.5t53.5 22.5t52.5 -21.5t21.5 -52t-22.5 -53t-51.5 -22.5q-31 0 -53.5 22t-22.5 53z" />
<glyph unicode="@" horiz-adv-x="1572" d="M106 684q0 295 206 497.5t507 202.5q276 0 462.5 -173t186.5 -429q0 -186 -97 -322t-228 -136q-55 0 -95 35.5t-40 84.5v21q-68 -82 -127.5 -114t-141.5 -32q-139 0 -230 95.5t-91 242.5q0 168 103.5 281t258.5 113q90 0 153.5 -37t123.5 -125l18 143l96 -2l-86 -563 q0 -31 21.5 -51.5t54.5 -20.5q94 0 164 114t70 263q0 233 -164 386t-414 153q-266 0 -449.5 -182.5t-183.5 -446.5q0 -172 83 -318.5t226.5 -228.5t350.5 -82q225 0 452 113l29 -70q-231 -115 -479 -114q-229 0 -397 96q-158 90 -250.5 253t-92.5 353zM502 662 q0 -115 69.5 -191t176.5 -76q119 0 205.5 97.5t86.5 228.5q0 111 -70.5 181.5t-178.5 70.5q-123 0 -206 -89t-83 -222z" />
<glyph unicode="A" horiz-adv-x="1196" d="M27 0l573 1407l569 -1407h-100l-180 449h-582l-182 -449h-98zM340 530h516l-256 648z" />
<glyph unicode="B" horiz-adv-x="1091" d="M184 0v1366h295q188 0 285 -104q92 -102 92 -254q0 -98 -36 -163t-124 -120q100 -27 160 -74q125 -98 125 -272q0 -176 -137 -289q-111 -90 -289 -90h-371zM272 82h230q121 0 181 16.5t114 65.5q94 84 94 215q0 82 -41 150.5t-109 97.5q-90 39 -256 39h-213v-584z M272 748h174q94 0 139.5 11t88.5 46q90 70 90 205q0 145 -90 217q-78 57 -228 57h-174v-536z" />
<glyph unicode="C" horiz-adv-x="1386" d="M109 680q0 287 209.5 495.5t498.5 208.5q250 0 459 -176v-123q-84 90 -160 134q-145 82 -301 81q-248 0 -431 -186t-183 -438q0 -276 213 -457q186 -158 401 -158q174 0 342 105q55 35 119 100v-119q-217 -170 -455 -170q-289 0 -500.5 209t-211.5 494z" />
<glyph unicode="D" horiz-adv-x="1263" d="M184 0v1366h271q309 0 499 -188q201 -201 201 -494q0 -297 -201 -494q-190 -190 -499 -190h-271zM272 82h181q260 0 426 158q184 172 184 444q0 270 -184 442q-166 158 -426 158h-181v-1202z" />
<glyph unicode="E" horiz-adv-x="948" d="M184 0v1366h654v-82h-566v-496h553v-81h-553v-625h566v-82h-654z" />
<glyph unicode="F" horiz-adv-x="831" d="M184 0v1366h551v-82h-463v-496h451v-81h-451v-707h-88z" />
<glyph unicode="G" horiz-adv-x="1579" d="M109 678q0 293 208.5 499.5t503.5 206.5q244 0 428 -147q66 -51 164 -172l-72 -55q-66 86 -131 145q-172 145 -393 145q-252 0 -435 -185t-183 -439q0 -250 182 -432.5t432 -182.5q150 0 290 74t210 189q55 90 61 249h-479v82h575q0 -131 -16 -209.5t-59 -152.5 q-82 -141 -242 -228.5t-338 -87.5q-291 0 -498.5 207t-207.5 494z" />
<glyph unicode="H" horiz-adv-x="1374" d="M184 0v1366h88v-580h830v580h88v-1366h-88v705h-830v-705h-88z" />
<glyph unicode="I" horiz-adv-x="456" d="M184 0v1366h88v-1366h-88z" />
<glyph unicode="J" horiz-adv-x="542" d="M-109 -137l66 49q59 -113 170 -113q143 0 143 205v1362h88v-1362q0 -129 -45 -197q-63 -92 -190 -92q-156 1 -232 148z" />
<glyph unicode="K" horiz-adv-x="1103" d="M184 0v1366h88v-635l641 635h121l-667 -659l710 -707h-131l-641 649l-33 -33v-616h-88z" />
<glyph unicode="L" horiz-adv-x="645" d="M184 0v1366h88v-1284h346v-82h-434z" />
<glyph unicode="M" horiz-adv-x="1837" d="M170 0l154 1413l589 -1263l596 1263l156 -1413h-90l-123 1098l-539 -1147l-534 1147l-119 -1098h-90z" />
<glyph unicode="N" horiz-adv-x="1603" d="M184 0v1380l1147 -1200v1186h88v-1401l-1147 1200v-1165h-88z" />
<glyph unicode="O" horiz-adv-x="1634" d="M109 692q0 279 210.5 485.5t495.5 206.5q291 0 500 -207.5t209 -494.5q0 -291 -210 -498t-503 -207q-289 0 -495.5 211t-206.5 504zM201 690q0 -281 198 -463q182 -166 412 -166q256 0 438.5 182.5t182.5 438.5q0 254 -182.5 436t-434.5 182q-250 0 -432 -181t-182 -429z " />
<glyph unicode="P" horiz-adv-x="911" d="M184 0v1366h262q201 0 299 -104q98 -102 99 -254q0 -168 -105.5 -263.5t-289.5 -95.5h-177v-649h-88zM272 731h179q137 0 219 76t82 201q0 127 -74 200q-76 76 -240 76h-166v-553z" />
<glyph unicode="Q" horiz-adv-x="1634" d="M109 680q0 289 208.5 496.5t499.5 207.5t499 -206.5t208 -495.5q0 -135 -46 -249t-153 -243l178 -190h-117l-122 139q-211 -162 -453 -162q-289 0 -495.5 207t-206.5 496zM201 678q0 -254 181 -435.5t435 -181.5q197 0 385 142l-340 356h123l277 -303q94 111 132 205 t38 213q0 260 -179.5 443t-433.5 183t-436 -183t-182 -439z" />
<glyph unicode="R" horiz-adv-x="956" d="M184 0v1366h193q190 0 289 -70q137 -96 137 -292q0 -219 -172 -314q-68 -37 -217 -45l446 -645h-108l-439 645h-41v-645h-88zM272 727h131q147 0 228.5 72.5t81.5 206.5q0 80 -33 143t-88 94q-74 41 -207 41h-113v-557z" />
<glyph unicode="S" horiz-adv-x="1048" d="M109 270l75 37q43 -90 76 -131q94 -115 252 -115q137 0 235.5 94.5t98.5 223.5q0 131 -133 211l-254 129q-156 78 -213.5 146.5t-57.5 178.5q0 147 99.5 243.5t251.5 96.5q219 0 331 -194l-65 -53q-59 90 -119.5 126.5t-148.5 36.5q-109 0 -182.5 -74.5t-73.5 -183.5 q0 -82 51 -137t190 -123q199 -94 273 -141q143 -94 143 -262q0 -166 -126 -284t-302 -118q-280 0 -401 293z" />
<glyph unicode="T" horiz-adv-x="849" d="M27 1284v82h794v-82h-356v-1284h-88v1284h-350z" />
<glyph unicode="U" horiz-adv-x="1296" d="M184 487v879h88v-854q0 -127 10.5 -187.5t39.5 -105.5q45 -70 136 -114t189 -44q100 0 191.5 44.5t136.5 113.5q29 45 39 105.5t10 187.5v854h88v-879q0 -135 -14.5 -200.5t-57.5 -122.5q-61 -86 -166.5 -136.5t-226.5 -50.5q-119 0 -224.5 50.5t-166.5 136.5 q-43 59 -57.5 124.5t-14.5 198.5z" />
<glyph unicode="V" horiz-adv-x="1040" d="M27 1366h98l399 -1153l394 1153h94l-488 -1421z" />
<glyph unicode="W" horiz-adv-x="2011" d="M27 1366h100l371 -1155l495 1229l463 -1229l426 1155h100l-526 -1417l-463 1239l-508 -1239z" />
<glyph unicode="X" horiz-adv-x="946" d="M47 0l373 698l-359 668h101l309 -575l307 575h103l-359 -668l377 -698h-100l-328 606l-324 -606h-100z" />
<glyph unicode="Y" horiz-adv-x="1052" d="M27 1366h102l389 -686l400 686h104l-461 -782v-584h-88v584z" />
<glyph unicode="Z" horiz-adv-x="1136" d="M76 0l833 1284h-753v82h907l-836 -1284h811v-82h-962z" />
<glyph unicode="[" horiz-adv-x="567" d="M178 -328v1821h307v-82h-219v-1659h219v-80h-307z" />
<glyph unicode="\" horiz-adv-x="1114" d="M-2 1489l63 33l1039 -1846l-66 -32z" />
<glyph unicode="]" horiz-adv-x="567" d="M82 -246h219v1659h-219v80h307v-1821h-307v82z" />
<glyph unicode="^" horiz-adv-x="1024" d="M74 780l379 586h118l379 -586h-102l-338 516l-336 -516h-100z" />
<glyph unicode="_" horiz-adv-x="1024" d="M0 -156h1024v-84h-1024v84z" />
<glyph unicode="`" horiz-adv-x="1024" d="M295 1190l86 55l188 -256l-61 -33z" />
<glyph unicode="a" horiz-adv-x="1054" d="M92 422q0 190 113.5 311t294.5 121q205 0 327 -164v146h82v-836h-82v150q-113 -172 -325 -173q-178 0 -294 126t-116 319zM176 426q0 -162 93 -267.5t235 -105.5q143 0 236.5 104.5t93.5 268.5q0 172 -105 264q-100 88 -225 88q-139 0 -233.5 -101t-94.5 -251z" />
<glyph unicode="b" horiz-adv-x="1054" d="M145 0v1493h82v-803q125 164 328 164q180 0 294 -121t114 -311q0 -193 -116 -319t-294 -126q-211 0 -326 173v-150h-82zM221 426q0 -162 92.5 -267.5t235.5 -105.5q139 0 234.5 104.5t95.5 258.5q0 180 -115 280q-92 82 -211 82q-150 0 -254 -114q-78 -84 -78 -238z" />
<glyph unicode="c" horiz-adv-x="903" d="M92 410q0 190 124 317t308 127q156 0 291 -106v-109q-137 139 -293 139q-143 0 -244.5 -106.5t-101.5 -257.5q0 -150 100.5 -255.5t245.5 -105.5q170 0 303 152v-111q-141 -117 -303 -117q-182 0 -306 125.5t-124 307.5z" />
<glyph unicode="d" horiz-adv-x="1054" d="M92 422q0 190 113.5 311t294.5 121q203 0 327 -164v803h82v-1493h-82v150q-113 -172 -325 -173q-178 0 -294 126t-116 319zM176 426q0 -162 93 -267.5t235 -105.5q143 0 236.5 104.5t93.5 268.5q0 172 -105 264q-100 88 -225 88q-139 0 -233.5 -101t-94.5 -251z" />
<glyph unicode="e" horiz-adv-x="991" d="M92 413.5q0 188.5 117 314.5t291 126q176 0 286.5 -123t112.5 -323h-717q2 -115 45 -189q41 -76 118 -121t163 -45q121 0 211 80q39 37 84 113l69 -41q-129 -227 -370 -228q-176 0 -293 124t-117 312.5zM188 485h617q-25 133 -109 213t-198 80q-117 0 -204.5 -83 t-105.5 -210z" />
<glyph unicode="f" horiz-adv-x="436" d="M53 760v76h92v397q0 137 41 197q63 88 179 88q37 0 73 -13v-75q-41 10 -65 10q-78 0 -112 -52.5t-34 -170.5v-381h211v-76h-211v-760h-82v760h-92z" />
<glyph unicode="g" horiz-adv-x="1067" d="M92 -121h84q10 -92 49 -149q90 -133 279 -133q162 0 249 108.5t87 310.5v127q-139 -164 -330 -163q-172 0 -291 126.5t-119 311.5q0 186 121 311t301 125q98 0 171 -38t147 -126v146h82v-820q0 -127 -19.5 -203.5t-71.5 -140.5q-119 -152 -329 -151q-115 0 -210 49 t-147 133q-41 65 -53 176zM184 420q0 -158 91.5 -261.5t232.5 -103.5q156 0 260 121q78 94 78 246q0 166 -103 260q-102 96 -231 96q-137 0 -232.5 -104t-95.5 -254z" />
<glyph unicode="h" horiz-adv-x="903" d="M145 0v1493h82v-788q94 150 256 149q74 0 136.5 -31.5t95.5 -85.5q41 -68 41 -211v-526h-82v526q0 119 -31 170q-45 82 -170 82q-133 0 -201 -114q-45 -78 -45 -230v-434h-82z" />
<glyph unicode="i" horiz-adv-x="374" d="M113 1114q0 29 22.5 51.5t50.5 22.5q33 0 54.5 -21.5t21.5 -52.5t-22.5 -53.5t-51.5 -22.5q-31 0 -53 22.5t-22 53.5zM145 0v836h82v-836h-82z" />
<glyph unicode="j" horiz-adv-x="374" d="M113 1114q0 29 22.5 51.5t50.5 22.5q33 0 54.5 -21.5t21.5 -52.5t-22.5 -53.5t-51.5 -22.5q-33 0 -54 22.5t-21 53.5zM145 -489v1325h82v-1325h-82z" />
<glyph unicode="k" horiz-adv-x="811" d="M145 0v1493h82v-1012l342 355h107l-350 -363l469 -473h-113l-412 414l-43 -43v-371h-82z" />
<glyph unicode="l" horiz-adv-x="374" d="M145 0v1493h82v-1493h-82z" />
<glyph unicode="m" horiz-adv-x="1327" d="M145 0v836h82v-105q76 123 215 123q160 0 234 -152q80 152 246 152q135 0 206 -92q51 -66 52 -215v-547h-82v557q0 113 -37 160q-49 61 -143 61q-102 0 -156.5 -70.5t-54.5 -203.5v-504h-82v537q0 96 -31 151q-51 90 -154 90q-55 0 -104 -29.5t-74 -78.5 q-35 -74 -35 -187v-483h-82z" />
<glyph unicode="n" horiz-adv-x="901" d="M145 0v836h82v-131q94 150 254 149q74 0 136.5 -31.5t95.5 -85.5q41 -68 41 -211v-526h-82v526q0 119 -31 170q-45 82 -170 82q-131 0 -199 -114q-45 -78 -45 -230v-434h-82z" />
<glyph unicode="o" horiz-adv-x="1058" d="M92 424q0 176 129 303t309 127q182 0 309.5 -127t127.5 -311.5t-127 -311.5t-314 -127q-182 0 -308 130.5t-126 316.5zM176 422q0 -156 100.5 -262.5t247.5 -106.5q152 0 255.5 104.5t103.5 258.5q0 152 -103.5 257t-253.5 105q-145 0 -247.5 -104.5t-102.5 -251.5z" />
<glyph unicode="p" horiz-adv-x="1054" d="M145 -489v1325h82v-150q115 168 326 168q178 0 294 -125t116 -317q0 -190 -114 -312.5t-292 -122.5q-205 0 -330 168v-634h-82zM221 408q0 -174 105 -265q100 -90 225 -90q139 0 233.5 101.5t94.5 251.5q0 162 -92.5 267t-235.5 105q-145 0 -237.5 -104t-92.5 -266z" />
<glyph unicode="q" horiz-adv-x="1054" d="M92 411.5q0 192.5 116 317.5t294 125q211 0 325 -168v150h82v-1325h-82v634q-127 -168 -329 -168q-178 0 -292 121t-114 313.5zM176 418q0 -156 93 -260.5t233 -104.5q145 0 254 115q78 84 78 240q0 162 -92.5 266t-235.5 104q-139 0 -234.5 -103t-95.5 -257z" />
<glyph unicode="r" horiz-adv-x="532" d="M145 0v836h82v-109q66 127 185 127q41 0 90 -20l-45 -72q-31 18 -58 18q-74 0 -127 -69q-27 -35 -36 -86.5t-9 -175.5v-449h-82z" />
<glyph unicode="s" horiz-adv-x="700" d="M78 199l80 24q59 -170 207 -170q80 0 134 54.5t54 132.5q0 63 -35 100t-127 70q-137 49 -191.5 100t-54.5 129q0 90 65.5 152.5t160.5 62.5q145 0 217 -135l-70 -37q-53 96 -143 96q-59 0 -102.5 -40t-43.5 -95q0 -49 35 -81t129 -66q121 -45 162 -76q82 -63 82 -178 t-77 -190t-195 -75q-106 0 -180 58t-107 164z" />
<glyph unicode="t" horiz-adv-x="397" d="M61 760v76h93v299h82v-299h147v-76h-147v-760h-82v760h-93z" />
<glyph unicode="u" horiz-adv-x="892" d="M145 309v527h82v-498q0 -129 27 -184q23 -45 76 -73t114 -28q63 0 116.5 28t76.5 73q27 55 27 184v498h81v-527q0 -158 -61 -229q-86 -102 -240 -103q-152 0 -237 103q-62 71 -62 229z" />
<glyph unicode="v" horiz-adv-x="798" d="M16 836h97l288 -676l289 676h92l-381 -887z" />
<glyph unicode="w" horiz-adv-x="1376" d="M16 836h95l282 -672l291 723l289 -723l291 672h96l-387 -887l-289 725l-289 -725z" />
<glyph unicode="x" horiz-adv-x="821" d="M16 0l340 438l-309 398h107l258 -334l254 334h106l-303 -398l336 -438h-107l-286 375l-287 -375h-109z" />
<glyph unicode="y" horiz-adv-x="876" d="M16 836h97l342 -742l311 742h94l-561 -1325h-92l205 475z" />
<glyph unicode="z" horiz-adv-x="927" d="M37 0l682 760h-574v76h746l-678 -760h674v-76h-850z" />
<glyph unicode="{" horiz-adv-x="491" d="M74 553v61q47 12 76 39q27 27 35 72t8 168v354q0 109 26 164q47 90 166 90h47v-74q-14 -2 -31 -2q-53 -2 -69 -12q-51 -33 -51 -162v-360q0 -156 -15.5 -209t-75.5 -98q51 -41 71 -86t20 -123v-461q0 -152 71 -170q14 -4 80 -4v-76h-47q-117 0 -166 90q-27 53 -26 164 v455q0 80 -26.5 120t-92.5 60z" />
<glyph unicode="|" horiz-adv-x="1024" d="M467 -342v1708h88v-1708h-88z" />
<glyph unicode="}" horiz-adv-x="491" d="M59 -260q63 0 88 6q63 23 64 168v362q0 154 15.5 207.5t74.5 100.5q-51 39 -70.5 84t-19.5 123v460q0 129 -51 162q-16 10 -70 12q-18 0 -31 2v74h47q119 0 166 -90q27 -55 27 -164v-454q0 -80 26.5 -120t92.5 -59v-61q-53 -16 -76 -41q-27 -27 -35 -72t-8 -168v-354 q0 -111 -27 -164q-49 -90 -166 -90h-47v76z" />
<glyph unicode="~" horiz-adv-x="1366" d="M193 1253q59 113 120.5 162t145.5 49q88 0 237 -78q145 -74 213 -73.5t119 47.5q53 53 70 86q10 25 20 24q16 0 53 -36q-115 -209 -264 -209q-53 0 -105 17.5t-167 76.5q-115 57 -186 57q-66 0 -113 -47q-53 -53 -72 -90q-10 -25 -18 -25q-18 0 -53 39z" />
<glyph unicode="&#xa1;" horiz-adv-x="530" d="M190 979q0 31 23 52.5t53.5 21.5t52 -21.5t21.5 -54.5q0 -29 -22.5 -51.5t-51.5 -22.5q-31 0 -53.5 22.5t-22.5 53.5zM221 -328v1121h88v-1121h-88z" />
<glyph unicode="&#xa2;" d="M193 690q0 176 104 297t274 143v211h80v-208q150 -6 264 -107v-106q-117 123 -264 137v-721q74 4 148.5 44t126.5 103v-108q-55 -49 -131 -81t-144 -36v-231h-80v233q-170 23 -274 141.5t-104 288.5zM276 692q0 -135 85 -237.5t210 -116.5v715q-133 -23 -214 -122.5 t-81 -238.5z" />
<glyph unicode="&#xa3;" d="M139 45q45 53 115 86t129 31q115 109 115 219q0 6 -4 51h-226v82h203q-61 119 -147 252q-98 147 -99 266q0 145 105.5 246.5t259.5 101.5q152 0 250 -102t98 -260h-86q-6 92 -35 147q-33 61 -96.5 96t-138.5 35q-111 0 -189 -78.5t-78 -191.5q0 -57 20.5 -102t117.5 -201 q84 -137 112 -209h246v-82h-231q6 -35 6 -57q0 -123 -103 -232l131 -45q104 -37 148 -37q113 0 194 144l74 -45q-111 -186 -258 -187q-61 0 -223 58q-123 43 -168 43q-84 0 -193 -94z" />
<glyph unicode="&#xa4;" horiz-adv-x="1366" d="M143 1196l54 53l184 -184q141 115 301 115q162 0 299 -113l186 182l54 -53l-185 -184q109 -135 109 -295q0 -156 -111 -293l187 -186l-52 -54l-188 187q-137 -113 -297 -113q-156 0 -297 109l-184 -185l-53 56l184 182q-113 137 -113 299q0 158 107 293zM305 719 q0 -158 110.5 -269.5t268.5 -111.5q156 0 266.5 112.5t110.5 272.5q0 154 -111.5 265.5t-265.5 111.5q-158 0 -268.5 -111.5t-110.5 -269.5z" />
<glyph unicode="&#xa5;" d="M61 1366h105l387 -686l399 686h107l-285 -483h248v-82h-297l-125 -211h422v-82h-426v-508h-88v508h-410v82h406l-121 211h-285v82h238z" />
<glyph unicode="&#xa6;" horiz-adv-x="1024" d="M467 313h88v-655h-88v655zM467 698v668h88v-668h-88z" />
<glyph unicode="&#xa7;" d="M205 582q0 229 221 331q-102 53 -145 119t-43 168q0 143 92 228t248 85q211 0 284 -145q31 -59 41 -207h-92q0 270 -236 271q-113 0 -179 -64.5t-66 -173.5q0 -106 84 -172q33 -27 62.5 -39t131.5 -43q170 -53 238.5 -135t68.5 -219q0 -217 -221 -330q199 -88 199 -299 q0 -143 -88 -224t-246 -81q-217 0 -287 137q-31 57 -36 217h90q0 -154 53 -213t180 -59q113 0 177.5 61.5t64.5 165.5q0 133 -115 199q-39 23 -205 82q-143 51 -209.5 133t-66.5 207zM297 588q0 -113 77 -191t187 -78q109 0 185.5 78t76.5 186.5t-77.5 186.5t-186.5 78 q-106 0 -184 -77t-78 -183z" />
<glyph unicode="&#xa8;" horiz-adv-x="1024" d="M268 1085.5q0 30.5 22.5 52t53.5 21.5t52.5 -21.5t21.5 -52t-22.5 -53t-51.5 -22.5q-31 0 -53.5 22.5t-22.5 53zM608 1085q0 29 22.5 51.5t53.5 22.5q29 0 51.5 -21.5t22.5 -52t-22.5 -53t-51.5 -22.5q-33 0 -54.5 22t-21.5 53z" />
<glyph unicode="&#xa9;" horiz-adv-x="1515" d="M55 688q0 291 209 494.5t506 203.5q283 0 487.5 -207.5t204.5 -494.5q0 -291 -205.5 -497.5t-496.5 -206.5q-293 0 -499 206.5t-206 501.5zM154 688q0 -254 176 -432t430 -178q250 0 427 178t177 428q0 246 -177 425t-419 179q-276 0 -459 -201q-155 -174 -155 -399z M383 674q0 164 120 282.5t283 118.5q143 0 267 -104v-109q-119 139 -267 139q-131 0 -228 -99t-97 -232q0 -129 97 -226.5t228 -97.5q150 0 267 135v-106q-127 -100 -265 -101q-164 0 -284.5 119t-120.5 281z" />
<glyph unicode="&#xaa;" horiz-adv-x="690" d="M59 1083q0 125 75 204t192 79q133 0 215 -106v94h53v-549h-53v98q-76 -113 -213 -112q-117 0 -193 82.5t-76 209.5zM115 1085q0 -106 60.5 -175.5t154.5 -69.5t154.5 69.5t60.5 175.5q0 113 -68 172q-66 59 -147 60q-90 0 -152.5 -67t-62.5 -165z" />
<glyph unicode="&#xab;" horiz-adv-x="710" d="M68 424l264 305l51 -49l-217 -256l217 -258l-51 -49zM285 424l264 305l53 -49l-219 -256l219 -258l-53 -49z" />
<glyph unicode="&#xac;" horiz-adv-x="1024" d="M68 465v82h886v-547h-88v465h-798z" />
<glyph unicode="&#xad;" horiz-adv-x="344" d="M0 383v82h344v-82h-344z" />
<glyph unicode="&#xae;" horiz-adv-x="1515" d="M55 688q0 291 209 494.5t506 203.5q283 0 487.5 -207.5t204.5 -494.5q0 -291 -205.5 -497.5t-496.5 -206.5q-293 0 -499 206.5t-206 501.5zM154 688q0 -256 176 -433t430 -177q250 0 427 178t177 428q0 246 -177 425t-419 179q-276 0 -459 -201q-155 -172 -155 -399z M600 287v778h119q250 0 250 -213q0 -96 -64 -156q-45 -43 -141 -51l248 -358h-94l-242 356v-356h-76zM676 715h57q158 0 158 139t-168 139h-47v-278z" />
<glyph unicode="&#xaf;" horiz-adv-x="1024" d="M256 1036v78h510v-78h-510z" />
<glyph unicode="&#xb0;" d="M287 1092q0 115 81 194.5t195 79.5q111 0 191 -81t80 -191q0 -113 -80 -194t-192.5 -81t-193.5 80t-81 193zM369 1094q0 -80 56 -136.5t136 -56.5q78 0 134.5 56.5t56.5 136.5q0 78 -56.5 134t-132.5 56q-82 0 -138 -55t-56 -135z" />
<glyph unicode="&#xb1;" d="M63 0v82h992v-82h-992zM63 655v82h455v449h82v-449h455v-82h-455v-448h-82v448h-455z" />
<glyph unicode="&#xb2;" horiz-adv-x="792" d="M106 547l343 352q82 86 113.5 138.5t31.5 103.5q0 72 -57.5 123t-139.5 51q-113 0 -166 -84q-25 -39 -26 -107h-70q2 94 37 142q33 49 97.5 79.5t131.5 30.5q109 0 186 -69.5t77 -169.5q0 -68 -36 -126.5t-153 -179.5l-215 -223h399v-61h-553z" />
<glyph unicode="&#xb3;" horiz-adv-x="792" d="M139 758h68q8 -63 29 -88q23 -31 65.5 -51.5t83.5 -20.5q78 0 134 53.5t56 124.5q0 154 -194 164v61q86 4 134 46.5t48 111.5q0 66 -45 110t-115 44q-145 0 -163 -154h-68q8 76 35 119q59 98 192 98q98 0 166 -62.5t68 -154.5q0 -125 -119 -186q59 -25 95 -78t36 -119 q0 -100 -75.5 -170.5t-184.5 -70.5q-68 0 -126 29.5t-89 78.5q-29 45 -31 115z" />
<glyph unicode="&#xb4;" horiz-adv-x="1024" d="M457 989l186 256l88 -55l-215 -234z" />
<glyph unicode="&#xb5;" horiz-adv-x="892" d="M145 -489v1325h82v-498q0 -129 27 -184q23 -45 76 -73t114 -28q63 0 116.5 28t76.5 73q27 55 27 184v498h81v-527q0 -158 -61 -229q-86 -102 -235 -103q-127 0 -222 89v-555h-82z" />
<glyph unicode="&#xb6;" d="M117 1024q0 156 96 252q86 90 276 90h498l-37 -76h-90v-1499h-82v1499h-235v-1499h-82v901q-123 0 -205 49q-63 41 -101 117t-38 166z" />
<glyph unicode="&#xb7;" horiz-adv-x="421" d="M137 424q0 29 22.5 51.5t53.5 22.5t52.5 -21.5t21.5 -52.5t-22.5 -53.5t-51.5 -22.5q-31 0 -53.5 22.5t-22.5 53.5z" />
<glyph unicode="&#xb8;" horiz-adv-x="1024" d="M377 -358l168 262l92 -43l-197 -252z" />
<glyph unicode="&#xb9;" horiz-adv-x="792" d="M248 1305l33 61h176v-819h-70v758h-139z" />
<glyph unicode="&#xba;" horiz-adv-x="694" d="M59 1083q0 117 85 200t202 83q121 0 204 -83t83 -204t-84 -203.5t-205 -82.5q-119 0 -202 84.5t-83 205.5zM115 1083q0 -100 65.5 -170.5t161.5 -70.5q100 0 168 68.5t68 169t-68 169t-166 68.5q-94 0 -161.5 -69t-67.5 -165z" />
<glyph unicode="&#xbb;" horiz-adv-x="710" d="M109 166l219 258l-219 256l51 49l264 -305l-264 -307zM326 166l219 258l-219 256l51 49l266 -305l-266 -307z" />
<glyph unicode="&#xbc;" horiz-adv-x="1851" d="M248 1305l33 61h176v-819h-70v758h-139zM492 2l811 1395l57 -31l-809 -1397zM1104 154l538 706v-645h121v-61h-121v-154h-69v154h-469zM1233 215h340v447z" />
<glyph unicode="&#xbd;" horiz-adv-x="1851" d="M248 1305l33 61h176v-819h-70v758h-139zM492 2l811 1395l57 -31l-809 -1397zM1165 0l342 352q82 84 114 136.5t32 103.5q0 72 -57.5 123t-139.5 51q-51 0 -97 -22.5t-69 -59.5q-25 -37 -26 -106h-70q2 94 37 141q33 49 97.5 79.5t131.5 30.5q109 0 185.5 -69.5 t76.5 -169.5q0 -70 -36.5 -128.5t-151.5 -176.5l-215 -224h399v-61h-553z" />
<glyph unicode="&#xbe;" horiz-adv-x="1851" d="M139 758h68q8 -63 29 -88q23 -31 65.5 -51.5t83.5 -20.5q78 0 134 53.5t56 124.5q0 154 -194 164v61q86 4 134 46.5t48 111.5q0 66 -45 110t-115 44q-145 0 -163 -154h-68q8 76 35 119q59 98 192 98q98 0 166 -62.5t68 -154.5q0 -125 -119 -186q59 -25 95 -78t36 -119 q0 -100 -75.5 -170.5t-184.5 -70.5q-68 0 -126 29.5t-89 78.5q-29 45 -31 115zM492 2l808 1395l60 -31l-809 -1397zM1102 154l538 706v-645h123v-61h-123v-154h-69v154h-469zM1231 215h340v447z" />
<glyph unicode="&#xbf;" horiz-adv-x="952" d="M150 -12q0 88 36.5 162.5t98.5 113.5q51 31 219 76q166 43 166 192q0 84 -57.5 141.5t-139.5 57.5q-55 0 -102 -29.5t-70 -78.5q-16 -33 -25 -111h-81q0 66 8 98q25 92 98.5 146.5t173.5 54.5q121 0 202 -80t81 -201q0 -209 -256 -278q-104 -29 -134 -40t-57 -36 q-74 -61 -73 -182q0 -109 69.5 -181.5t171.5 -72.5q100 0 168 68.5t68 171.5q0 43 -13 96h84q14 -78 15 -113q0 -129 -93.5 -216t-232.5 -87q-141 0 -233 92.5t-92 235.5zM401 977q0 29 22.5 51.5t53.5 22.5t52.5 -21.5t21.5 -54.5q0 -29 -22.5 -51.5t-51.5 -22.5 q-31 0 -53.5 22.5t-22.5 53.5z" />
<glyph unicode="&#xc0;" horiz-adv-x="1196" d="M27 0l573 1407l569 -1407h-100l-180 449h-582l-182 -449h-98zM328 1671l94 64l250 -222l-72 -53zM340 530h516l-256 648z" />
<glyph unicode="&#xc1;" horiz-adv-x="1196" d="M27 0l573 1407l569 -1407h-100l-180 449h-582l-182 -449h-98zM340 530h516l-256 648zM539 1513l249 222l95 -64l-273 -211z" />
<glyph unicode="&#xc2;" horiz-adv-x="1196" d="M27 0l573 1407l569 -1407h-100l-180 449h-582l-182 -449h-98zM340 530h516l-256 648zM350 1520l256 215l254 -215l-74 -58l-180 154l-182 -154z" />
<glyph unicode="&#xc3;" horiz-adv-x="1196" d="M27 0l573 1407l569 -1407h-100l-180 449h-582l-182 -449h-98zM340 530h516l-256 648zM358 1548q31 68 64 95.5t82 27.5q47 0 127 -35q82 -37 117 -37q29 0 46 16.5t37 61.5l58 -45q-39 -123 -146 -123q-41 0 -120 33q-96 39 -125 39t-46.5 -16.5t-33.5 -61.5z" />
<glyph unicode="&#xc4;" horiz-adv-x="1196" d="M27 0l573 1407l569 -1407h-100l-180 449h-582l-182 -449h-98zM336 1591q0 33 23.5 55.5t56.5 22.5t55.5 -22.5t22.5 -55t-22.5 -56.5t-55.5 -24q-35 0 -57.5 22.5t-22.5 57.5zM340 530h516l-256 648zM717 1591q0 33 23.5 55.5t56 22.5t55 -22.5t22.5 -55t-22.5 -56.5 t-54.5 -24q-35 0 -57.5 22.5t-22.5 57.5z" />
<glyph unicode="&#xc5;" horiz-adv-x="1196" d="M27 0l573 1407l569 -1407h-100l-180 449h-582l-182 -449h-98zM340 530h516l-256 648zM440 1614q0 66 49.5 114t114.5 48q68 0 116 -48.5t48 -116t-48 -115.5t-115.5 -48t-116 48t-48.5 118zM520 1614q0 -35 24.5 -60.5t59.5 -25.5t59.5 24.5t24.5 59.5t-24.5 59.5 t-59.5 24.5q-33 0 -58.5 -24.5t-25.5 -57.5z" />
<glyph unicode="&#xc6;" horiz-adv-x="1742" d="M27 0l551 1366h593l33 -82h-563l203 -496h549l32 -81h-546l251 -625h566l33 -82h-662l-180 449h-586l-176 -449h-98zM336 530h516l-260 644z" />
<glyph unicode="&#xc7;" horiz-adv-x="1386" d="M109 680q0 287 209.5 495.5t498.5 208.5q250 0 459 -176v-123q-84 90 -160 134q-145 82 -301 81q-248 0 -431 -186t-183 -438q0 -276 213 -457q186 -158 401 -158q174 0 342 105q55 35 119 100v-119q-217 -170 -455 -170q-289 0 -500.5 209t-211.5 494zM571 -369l181 273 l102 -51l-209 -259z" />
<glyph unicode="&#xc8;" horiz-adv-x="948" d="M184 0v1366h654v-82h-566v-496h553v-81h-553v-625h566v-82h-654zM279 1671l94 64l250 -222l-72 -53z" />
<glyph unicode="&#xc9;" horiz-adv-x="948" d="M184 0v1366h654v-82h-566v-496h553v-81h-553v-625h566v-82h-654zM440 1513l250 222l94 -64l-272 -211z" />
<glyph unicode="&#xca;" horiz-adv-x="948" d="M184 0v1366h654v-82h-566v-496h553v-81h-553v-625h566v-82h-654zM272 1520l256 215l254 -215l-73 -58l-181 154l-182 -154z" />
<glyph unicode="&#xcb;" horiz-adv-x="948" d="M184 0v1366h654v-82h-566v-496h553v-81h-553v-625h566v-82h-654zM252 1591q0 33 23.5 55.5t56.5 22.5t55.5 -22.5t22.5 -55t-22.5 -56.5t-55.5 -24t-56.5 22.5t-23.5 57.5zM633 1591q0 33 23.5 55.5t56 22.5t55.5 -22.5t23 -55t-23 -56.5t-55.5 -24t-56 22.5t-23.5 57.5z " />
<glyph unicode="&#xcc;" horiz-adv-x="456" d="M-27 1671l93 64l223 -222l-72 -53zM186 0v1366h88v-1366h-88z" />
<glyph unicode="&#xcd;" horiz-adv-x="456" d="M176 1513l225 222l91 -64l-244 -211zM184 0v1366h88v-1366h-88z" />
<glyph unicode="&#xce;" horiz-adv-x="456" d="M-6 1520l235 215l234 -215l-70 -58l-164 154l-166 -154zM184 0v1366h88v-1366h-88z" />
<glyph unicode="&#xcf;" horiz-adv-x="456" d="M29 1591q0 33 23.5 55.5t56 22.5t55 -22.5t22.5 -55t-22.5 -56.5t-54.5 -24q-35 0 -57.5 22.5t-22.5 57.5zM184 0v1366h88v-1366h-88zM287 1591.5q0 32.5 23.5 55t56 22.5t55 -22.5t22.5 -55t-23.5 -56.5t-53.5 -24q-33 0 -56.5 24t-23.5 56.5z" />
<glyph unicode="&#xd0;" horiz-adv-x="1263" d="M47 702v82h137v582h271q309 0 499 -188q201 -201 201 -496t-201 -492q-190 -190 -499 -190h-271v702h-137zM272 82h181q260 0 426 158q184 172 184 442q0 264 -171 433t-439 169h-181v-500h342v-82h-342v-620z" />
<glyph unicode="&#xd1;" horiz-adv-x="1603" d="M184 0v1380l1147 -1200v1186h88v-1401l-1147 1200v-1165h-88zM563 1548q31 68 63.5 95.5t82.5 27.5q47 0 127 -35q82 -37 116 -37q29 0 46.5 16.5t37.5 61.5l58 -45q-39 -123 -146 -123q-41 0 -121 33q-96 39 -124.5 39t-46 -16.5t-33.5 -61.5z" />
<glyph unicode="&#xd2;" horiz-adv-x="1634" d="M109 692q0 279 210.5 485.5t495.5 206.5q291 0 500 -207.5t209 -494.5q0 -291 -210 -498t-503 -207q-289 0 -495.5 211t-206.5 504zM201 690q0 -281 198 -463q182 -166 412 -166q256 0 438.5 182.5t182.5 438.5q0 254 -182.5 436t-434.5 182q-250 0 -432 -181t-182 -429z M571 1671l95 64l249 -222l-71 -53z" />
<glyph unicode="&#xd3;" horiz-adv-x="1634" d="M109 692q0 279 210.5 485.5t495.5 206.5q291 0 500 -207.5t209 -494.5q0 -291 -210 -498t-503 -207q-289 0 -495.5 211t-206.5 504zM201 690q0 -281 198 -463q182 -166 412 -166q256 0 438.5 182.5t182.5 438.5q0 254 -182.5 436t-434.5 182q-250 0 -432 -181t-182 -429z M756 1513l250 222l94 -64l-273 -211z" />
<glyph unicode="&#xd4;" horiz-adv-x="1634" d="M109 692q0 279 210.5 485.5t495.5 206.5q291 0 500 -207.5t209 -494.5q0 -291 -210 -498t-503 -207q-289 0 -495.5 211t-206.5 504zM201 690q0 -281 198 -463q182 -166 412 -166q256 0 438.5 182.5t182.5 438.5q0 254 -182.5 436t-434.5 182q-250 0 -432 -181t-182 -429z M567 1520l256 215l254 -215l-73 -58l-181 154l-182 -154z" />
<glyph unicode="&#xd5;" horiz-adv-x="1634" d="M109 692q0 279 210.5 485.5t495.5 206.5q291 0 500 -207.5t209 -494.5q0 -291 -210 -498t-503 -207q-289 0 -495.5 211t-206.5 504zM201 690q0 -281 198 -463q182 -166 412 -166q256 0 438.5 182.5t182.5 438.5q0 254 -182.5 436t-434.5 182q-250 0 -432 -181t-182 -429z M586 1548q31 68 63.5 95.5t81.5 27.5q47 0 127 -35q82 -37 117 -37q29 0 46 16.5t38 61.5l57 -45q-39 -123 -145 -123q-41 0 -121 33q-96 39 -125 39t-46 -16.5t-34 -61.5z" />
<glyph unicode="&#xd6;" horiz-adv-x="1634" d="M109 692q0 279 210.5 485.5t495.5 206.5q291 0 500 -207.5t209 -494.5q0 -291 -210 -498t-503 -207q-289 0 -495.5 211t-206.5 504zM201 690q0 -281 198 -463q182 -166 412 -166q256 0 438.5 182.5t182.5 438.5q0 254 -182.5 436t-434.5 182q-250 0 -432 -181t-182 -429z M547 1591q0 33 23.5 55.5t56 22.5t55.5 -22.5t23 -55t-23 -56.5t-55.5 -24t-56 22.5t-23.5 57.5zM928 1591q0 33 23.5 55.5t56 22.5t55 -22.5t22.5 -55t-22.5 -56.5t-55 -24t-56 22.5t-23.5 57.5z" />
<glyph unicode="&#xd7;" d="M158 350l346 346l-346 346l55 58l346 -348l348 348l56 -58l-347 -346l347 -346l-56 -55l-348 346l-346 -346z" />
<glyph unicode="&#xd8;" horiz-adv-x="1634" d="M109 684q0 285 209.5 492.5t496.5 207.5q254 0 461 -172l166 166l55 -53l-164 -166q190 -209 191 -479q0 -285 -210 -494t-497 -209q-258 0 -477 187l-166 -172l-51 55l162 170q-176 205 -176 467zM201 682q0 -231 149 -406l862 877q-176 147 -397 147q-250 0 -432 -183 t-182 -435zM403 221q184 -160 414 -160q250 0 432.5 183.5t182.5 435.5q0 242 -164 422z" />
<glyph unicode="&#xd9;" horiz-adv-x="1296" d="M184 487v879h88v-854q0 -127 10.5 -187.5t39.5 -105.5q45 -70 136 -114t189 -44q100 0 191.5 44.5t136.5 113.5q29 45 39 105.5t10 187.5v854h88v-879q0 -135 -14.5 -200.5t-57.5 -122.5q-61 -86 -166.5 -136.5t-226.5 -50.5q-119 0 -224.5 50.5t-166.5 136.5 q-43 59 -57.5 124.5t-14.5 198.5zM406 1671l94 64l250 -222l-72 -53z" />
<glyph unicode="&#xda;" horiz-adv-x="1296" d="M184 487v879h88v-854q0 -127 10.5 -187.5t39.5 -105.5q45 -70 136 -114t189 -44q100 0 191.5 44.5t136.5 113.5q29 45 39 105.5t10 187.5v854h88v-879q0 -135 -14.5 -200.5t-57.5 -122.5q-61 -86 -166.5 -136.5t-226.5 -50.5q-119 0 -224.5 50.5t-166.5 136.5 q-43 59 -57.5 124.5t-14.5 198.5zM596 1513l250 222l94 -64l-272 -211z" />
<glyph unicode="&#xdb;" horiz-adv-x="1296" d="M184 487v879h88v-854q0 -127 10.5 -187.5t39.5 -105.5q45 -70 136 -114t189 -44q100 0 191.5 44.5t136.5 113.5q29 45 39 105.5t10 187.5v854h88v-879q0 -135 -14.5 -200.5t-57.5 -122.5q-61 -86 -166.5 -136.5t-226.5 -50.5q-119 0 -224.5 50.5t-166.5 136.5 q-43 59 -57.5 124.5t-14.5 198.5zM408 1520l256 215l254 -215l-74 -58l-180 154l-183 -154z" />
<glyph unicode="&#xdc;" horiz-adv-x="1296" d="M184 487v879h88v-854q0 -127 10.5 -187.5t39.5 -105.5q45 -70 136 -114t189 -44q100 0 191.5 44.5t136.5 113.5q29 45 39 105.5t10 187.5v854h88v-879q0 -135 -14.5 -200.5t-57.5 -122.5q-61 -86 -166.5 -136.5t-226.5 -50.5q-119 0 -224.5 50.5t-166.5 136.5 q-43 59 -57.5 124.5t-14.5 198.5zM393 1591q0 33 23.5 55.5t56.5 22.5t55.5 -22.5t22.5 -55t-22.5 -56.5t-55.5 -24q-35 0 -57.5 22.5t-22.5 57.5zM774 1591q0 33 23.5 55.5t56.5 22.5t55.5 -22.5t22.5 -55t-22.5 -56.5t-55.5 -24q-35 0 -57.5 22.5t-22.5 57.5z" />
<glyph unicode="&#xdd;" horiz-adv-x="1052" d="M27 1366h102l389 -686l400 686h104l-461 -782v-584h-88v584zM459 1513l250 222l94 -64l-273 -211z" />
<glyph unicode="&#xde;" horiz-adv-x="911" d="M184 0v1366h88v-205h174q201 0 299 -104q98 -102 99 -254q0 -168 -105.5 -263.5t-289.5 -95.5h-177v-444h-88zM272 526h179q137 0 219 76t82 201q0 127 -74 201q-76 76 -240 75h-166v-553z" />
<glyph unicode="&#xdf;" horiz-adv-x="1007" d="M57 760v76h88v362q0 156 78 234q82 86 219 86q127 0 210 -82t83 -209q0 -178 -160 -252q115 -41 175 -96q74 -63 118.5 -169t44.5 -210q0 -121 -57 -228.5t-160 -181.5q-111 -78 -272 -100v84q184 27 294.5 143.5t110.5 286.5q0 106 -49 200.5t-133 149.5q-82 55 -223 78 v72q90 8 137 40q41 27 65.5 78.5t24.5 106.5q0 94 -59.5 153.5t-153.5 59.5q-123 0 -172 -80q-39 -57 -39 -193v-1169h-82v760h-88z" />
<glyph unicode="&#xe0;" horiz-adv-x="1054" d="M92 422q0 190 113.5 311t294.5 121q205 0 327 -164v146h82v-836h-82v150q-113 -172 -325 -173q-178 0 -294 126t-116 319zM176 426q0 -162 93 -267.5t235 -105.5q143 0 236.5 104.5t93.5 268.5q0 172 -105 264q-100 88 -225 88q-139 0 -233.5 -101t-94.5 -251zM336 1190 l86 55l188 -256l-61 -33z" />
<glyph unicode="&#xe1;" horiz-adv-x="1054" d="M92 422q0 190 113.5 311t294.5 121q205 0 327 -164v146h82v-836h-82v150q-113 -172 -325 -173q-178 0 -294 126t-116 319zM176 426q0 -162 93 -267.5t235 -105.5q143 0 236.5 104.5t93.5 268.5q0 172 -105 264q-100 88 -225 88q-139 0 -233.5 -101t-94.5 -251zM463 989 l186 256l88 -55l-215 -234z" />
<glyph unicode="&#xe2;" horiz-adv-x="1054" d="M92 422q0 190 113.5 311t294.5 121q205 0 327 -164v146h82v-836h-82v150q-113 -172 -325 -173q-178 0 -294 126t-116 319zM176 426q0 -162 93 -267.5t235 -105.5q143 0 236.5 104.5t93.5 268.5q0 172 -105 264q-100 88 -225 88q-139 0 -233.5 -101t-94.5 -251zM264 1008 l250 233l248 -233l-66 -52l-182 179l-182 -179z" />
<glyph unicode="&#xe3;" horiz-adv-x="1054" d="M92 422q0 190 113.5 311t294.5 121q205 0 327 -164v146h82v-836h-82v150q-113 -172 -325 -173q-178 0 -294 126t-116 319zM176 426q0 -162 93 -267.5t235 -105.5q143 0 236.5 104.5t93.5 268.5q0 172 -105 264q-100 88 -225 88q-139 0 -233.5 -101t-94.5 -251zM305 1042 q51 119 141 119q31 0 57.5 -9t121.5 -52q29 -14 57 -15q49 0 86 78l51 -39q-37 -119 -143 -118q-35 0 -111 32q-100 45 -129 45q-51 0 -78 -79z" />
<glyph unicode="&#xe4;" horiz-adv-x="1054" d="M92 422q0 190 113.5 311t294.5 121q205 0 327 -164v146h82v-836h-82v150q-113 -172 -325 -173q-178 0 -294 126t-116 319zM176 426q0 -162 93 -267.5t235 -105.5q143 0 236.5 104.5t93.5 268.5q0 172 -105 264q-100 88 -225 88q-139 0 -233.5 -101t-94.5 -251z M287 1085.5q0 30.5 22.5 52t53 21.5t52 -21.5t21.5 -52t-22.5 -53t-51.5 -22.5q-31 0 -53 22.5t-22 53zM627 1085q0 29 22.5 51.5t52.5 22.5q29 0 51.5 -21.5t22.5 -52t-22.5 -53t-51.5 -22.5q-33 0 -54 22t-21 53z" />
<glyph unicode="&#xe5;" horiz-adv-x="1054" d="M92 422q0 190 113.5 311t294.5 121q205 0 327 -164v146h82v-836h-82v150q-113 -172 -325 -173q-178 0 -294 126t-116 319zM176 426q0 -162 93 -267.5t235 -105.5q143 0 236.5 104.5t93.5 268.5q0 172 -105 264q-100 88 -225 88q-139 0 -233.5 -101t-94.5 -251zM377 1114 q0 63 46 109.5t109 46.5q66 0 112 -45t46 -110.5t-46 -112t-109 -46.5q-66 0 -112 46t-46 112zM449 1114q0 -35 25.5 -60.5t60 -25.5t59 24.5t24.5 59.5t-25.5 59.5t-60.5 24.5q-33 0 -58 -24.5t-25 -57.5z" />
<glyph unicode="&#xe6;" horiz-adv-x="1624" d="M92 238q0 119 101.5 191.5t267.5 72.5q156 0 262 -86q0 176 -75 269t-216 93q-117 0 -282 -78v84q145 70 290 70q244 0 334 -233q41 82 84 122q111 111 275 111q111 0 206 -58.5t142 -158.5q45 -92 53 -231h-719q2 -104 41 -181q41 -78 116 -125t163 -47q123 0 215 80 q41 39 86 111l69 -49q-147 -217 -370 -218q-115 0 -206 55.5t-138 153.5q-33 -100 -124.5 -154.5t-224.5 -54.5q-152 0 -251 74t-99 187zM176 240q0 -86 70.5 -136.5t193.5 -50.5q127 0 203 52.5t76 140.5q0 82 -73 131t-193 49q-125 0 -201 -51t-76 -135zM821 483h619 q-12 84 -49 144q-41 70 -113 110.5t-150 40.5q-119 0 -203 -81t-104 -214z" />
<glyph unicode="&#xe7;" horiz-adv-x="903" d="M92 410q0 190 124 317t308 127q156 0 291 -106v-109q-137 139 -293 139q-143 0 -244.5 -106.5t-101.5 -257.5q0 -150 100.5 -255.5t245.5 -105.5q170 0 303 152v-111q-141 -117 -303 -117q-182 0 -306 125.5t-124 307.5zM295 -358l168 262l92 -43l-197 -252z" />
<glyph unicode="&#xe8;" horiz-adv-x="991" d="M92 413.5q0 188.5 117 314.5t291 126q176 0 286.5 -123t112.5 -323h-717q2 -115 45 -189q41 -76 118 -121t163 -45q121 0 211 80q39 37 84 113l69 -41q-129 -227 -370 -228q-176 0 -293 124t-117 312.5zM188 485h617q-25 133 -109 213t-198 80q-117 0 -204.5 -83 t-105.5 -210zM307 1190l86 55l189 -256l-62 -33z" />
<glyph unicode="&#xe9;" horiz-adv-x="991" d="M92 413.5q0 188.5 117 314.5t291 126q176 0 286.5 -123t112.5 -323h-717q2 -115 45 -189q41 -76 118 -121t163 -45q121 0 211 80q39 37 84 113l69 -41q-129 -227 -370 -228q-176 0 -293 124t-117 312.5zM188 485h617q-25 133 -109 213t-198 80q-117 0 -204.5 -83 t-105.5 -210zM451 989l186 256l88 -55l-215 -234z" />
<glyph unicode="&#xea;" horiz-adv-x="991" d="M92 413.5q0 188.5 117 314.5t291 126q176 0 286.5 -123t112.5 -323h-717q2 -115 45 -189q41 -76 118 -121t163 -45q121 0 211 80q39 37 84 113l69 -41q-129 -227 -370 -228q-176 0 -293 124t-117 312.5zM188 485h617q-25 133 -109 213t-198 80q-117 0 -204.5 -83 t-105.5 -210zM262 1008l250 233l248 -233l-66 -52l-182 179l-182 -179z" />
<glyph unicode="&#xeb;" horiz-adv-x="991" d="M92 413.5q0 188.5 117 314.5t291 126q176 0 286.5 -123t112.5 -323h-717q2 -115 45 -189q41 -76 118 -121t163 -45q121 0 211 80q39 37 84 113l69 -41q-129 -227 -370 -228q-176 0 -293 124t-117 312.5zM188 485h617q-25 133 -109 213t-198 80q-117 0 -204.5 -83 t-105.5 -210zM264 1085.5q0 30.5 22.5 52t53.5 21.5t52.5 -21.5t21.5 -52t-22.5 -53t-51.5 -22.5q-31 0 -53.5 22.5t-22.5 53zM604 1085q0 29 22.5 51.5t53.5 22.5q29 0 51.5 -21.5t22.5 -52t-22.5 -53t-51.5 -22.5q-33 0 -54.5 22t-21.5 53z" />
<glyph unicode="&#xec;" horiz-adv-x="374" d="M-39 1190l86 55l189 -256l-62 -33zM145 0v836h82v-836h-82z" />
<glyph unicode="&#xed;" horiz-adv-x="374" d="M145 0v836h82v-836h-82zM145 989l187 256l88 -55l-215 -234z" />
<glyph unicode="&#xee;" horiz-adv-x="374" d="M-25 1008l211 233l211 -233l-65 -52l-146 170l-145 -170zM145 0v836h82v-836h-82z" />
<glyph unicode="&#xef;" horiz-adv-x="374" d="M2 1085.5q0 30.5 22.5 52t53.5 21.5t52.5 -21.5t21.5 -52t-23 -53t-51 -22.5q-31 0 -53.5 22.5t-22.5 53zM147 0v836h82v-836h-82zM238 1085.5q0 30.5 22.5 52t53 21.5t52 -21.5t21.5 -52t-22.5 -53t-51.5 -22.5q-31 0 -53 22.5t-22 53z" />
<glyph unicode="&#xf0;" horiz-adv-x="1058" d="M92 414q0 182 127 310t309 128q176 0 314 -131q-51 184 -130 309t-212 240l-217 -121l-37 65l182 103q-92 63 -274 125l36 57q182 -47 318 -137l219 113l39 -64l-186 -100q180 -150 284.5 -382.5t104.5 -484.5q0 -207 -121 -337t-313 -130q-186 0 -314.5 126.5 t-128.5 310.5zM176 420q0 -156 100.5 -261.5t247.5 -105.5q152 0 255.5 104.5t103.5 258.5q0 152 -103.5 256t-253.5 104q-145 0 -247.5 -104.5t-102.5 -251.5z" />
<glyph unicode="&#xf1;" horiz-adv-x="901" d="M145 0v836h82v-131q94 150 254 149q74 0 136.5 -31.5t95.5 -85.5q41 -68 41 -211v-526h-82v526q0 119 -31 170q-45 82 -170 82q-131 0 -199 -114q-45 -78 -45 -230v-434h-82zM219 1042q51 119 141 119q31 0 57.5 -9t121.5 -52q29 -14 57 -15q49 0 86 78l51 -39 q-37 -119 -143 -118q-35 0 -111 32q-100 45 -129 45q-51 0 -78 -79z" />
<glyph unicode="&#xf2;" horiz-adv-x="1058" d="M92 424q0 176 129 303t309 127q182 0 309.5 -127t127.5 -311.5t-127 -311.5t-314 -127q-182 0 -308 130.5t-126 316.5zM176 422q0 -156 100.5 -262.5t247.5 -106.5q152 0 255.5 104.5t103.5 258.5q0 152 -103.5 257t-253.5 105q-145 0 -247.5 -104.5t-102.5 -251.5z M330 1190l86 55l188 -256l-61 -33z" />
<glyph unicode="&#xf3;" horiz-adv-x="1058" d="M92 424q0 176 129 303t309 127q182 0 309.5 -127t127.5 -311.5t-127 -311.5t-314 -127q-182 0 -308 130.5t-126 316.5zM176 422q0 -156 100.5 -262.5t247.5 -106.5q152 0 255.5 104.5t103.5 258.5q0 152 -103.5 257t-253.5 105q-145 0 -247.5 -104.5t-102.5 -251.5z M483 989l187 256l88 -55l-215 -234z" />
<glyph unicode="&#xf4;" horiz-adv-x="1058" d="M92 424q0 176 129 303t309 127q182 0 309.5 -127t127.5 -311.5t-127 -311.5t-314 -127q-182 0 -308 130.5t-126 316.5zM176 422q0 -156 100.5 -262.5t247.5 -106.5q152 0 255.5 104.5t103.5 258.5q0 152 -103.5 257t-253.5 105q-145 0 -247.5 -104.5t-102.5 -251.5z M287 1008l250 233l247 -233l-65 -52l-182 179l-183 -179z" />
<glyph unicode="&#xf5;" horiz-adv-x="1058" d="M92 424q0 176 129 303t309 127q182 0 309.5 -127t127.5 -311.5t-127 -311.5t-314 -127q-182 0 -308 130.5t-126 316.5zM176 422q0 -156 100.5 -262.5t247.5 -106.5q152 0 255.5 104.5t103.5 258.5q0 152 -103.5 257t-253.5 105q-145 0 -247.5 -104.5t-102.5 -251.5z M313 1042q51 119 142 119q31 0 57.5 -9t120.5 -52q29 -14 57 -15q49 0 86 78l51 -39q-37 -119 -143 -118q-35 0 -111 32q-100 45 -129 45q-51 0 -77 -79z" />
<glyph unicode="&#xf6;" horiz-adv-x="1058" d="M92 424q0 176 129 303t309 127q182 0 309.5 -127t127.5 -311.5t-127 -311.5t-314 -127q-182 0 -308 130.5t-126 316.5zM176 422q0 -156 100.5 -262.5t247.5 -106.5q152 0 255.5 104.5t103.5 258.5q0 152 -103.5 257t-253.5 105q-145 0 -247.5 -104.5t-102.5 -251.5z M299 1085.5q0 30.5 22.5 52t53.5 21.5t52.5 -21.5t21.5 -52t-23 -53t-51 -22.5q-31 0 -53.5 22.5t-22.5 53zM639 1085q0 29 22.5 51.5t53.5 22.5q29 0 51 -21.5t22 -52t-22.5 -53t-50.5 -22.5q-33 0 -54.5 22t-21.5 53z" />
<glyph unicode="&#xf7;" d="M63 655v82h992v-82h-992zM483 473q0 29 22.5 51.5t53.5 22.5t52.5 -21.5t21.5 -52.5t-22.5 -53.5t-51.5 -22.5q-31 0 -53.5 22.5t-22.5 53.5zM483 909q0 29 22.5 51.5t53.5 22.5t52.5 -21.5t21.5 -52t-22.5 -53t-51.5 -22.5q-31 0 -53.5 22t-22.5 53z" />
<glyph unicode="&#xf8;" horiz-adv-x="1058" d="M84 27l106 110q-98 121 -98 281q0 180 128 308t308 128q156 0 279 -98l111 110l51 -49l-111 -110q109 -121 109 -293q0 -182 -126 -309.5t-309 -127.5q-162 0 -292 111l-111 -113zM176 418q0 -129 74 -225l498 507q-102 78 -222 78q-145 0 -247.5 -105t-102.5 -255z M297 141q102 -88 231 -88q150 0 252.5 105.5t102.5 257.5q0 137 -84 237z" />
<glyph unicode="&#xf9;" horiz-adv-x="892" d="M145 309v527h82v-498q0 -129 27 -184q23 -45 76 -73t114 -28q63 0 116.5 28t76.5 73q27 55 27 184v498h81v-527q0 -158 -61 -229q-86 -102 -240 -103q-152 0 -237 103q-62 71 -62 229zM248 1190l86 55l188 -256l-61 -33z" />
<glyph unicode="&#xfa;" horiz-adv-x="892" d="M145 309v527h82v-498q0 -129 27 -184q23 -45 76 -73t114 -28q63 0 116.5 28t76.5 73q27 55 27 184v498h81v-527q0 -158 -61 -229q-86 -102 -240 -103q-152 0 -237 103q-62 71 -62 229zM406 989l186 256l88 -55l-215 -234z" />
<glyph unicode="&#xfb;" horiz-adv-x="892" d="M145 309v527h82v-498q0 -129 27 -184q23 -45 76 -73t114 -28q63 0 116.5 28t76.5 73q27 55 27 184v498h81v-527q0 -158 -61 -229q-86 -102 -240 -103q-152 0 -237 103q-62 71 -62 229zM203 1008l250 233l247 -233l-65 -52l-182 179l-183 -179z" />
<glyph unicode="&#xfc;" horiz-adv-x="892" d="M145 309v527h82v-498q0 -129 27 -184q23 -45 76 -73t114 -28q63 0 116.5 28t76.5 73q27 55 27 184v498h81v-527q0 -158 -61 -229q-86 -102 -240 -103q-152 0 -237 103q-62 71 -62 229zM209 1085.5q0 30.5 22.5 52t53 21.5t52 -21.5t21.5 -52t-22.5 -53t-50.5 -22.5 q-31 0 -53.5 22.5t-22.5 53zM549 1085q0 29 22.5 51.5t53.5 22.5q29 0 51 -21.5t22 -52t-22.5 -53t-50.5 -22.5q-33 0 -54.5 22t-21.5 53z" />
<glyph unicode="&#xfd;" horiz-adv-x="876" d="M16 836h97l342 -742l311 742h94l-561 -1325h-92l205 475zM403 989l187 256l88 -55l-215 -234z" />
<glyph unicode="&#xfe;" horiz-adv-x="1054" d="M145 -489v1982h82v-807q117 168 326 168q178 0 294 -125t116 -317q0 -190 -114 -312.5t-292 -122.5q-205 0 -330 168v-634h-82zM221 408q0 -174 105 -265q100 -90 225 -90q139 0 233.5 101.5t94.5 251.5q0 162 -92.5 267t-235.5 105q-145 0 -237.5 -104t-92.5 -266z" />
<glyph unicode="&#xff;" horiz-adv-x="876" d="M16 836h97l342 -742l311 742h94l-561 -1325h-92l205 475zM207 1085.5q0 30.5 22.5 52t53 21.5t52 -21.5t21.5 -52t-22.5 -53t-50.5 -22.5q-31 0 -53.5 22.5t-22.5 53zM547 1085q0 29 22.5 51.5t53.5 22.5q29 0 51 -21.5t22 -52t-22.5 -53t-50.5 -22.5q-33 0 -54.5 22 t-21.5 53z" />
<glyph unicode="&#x152;" horiz-adv-x="2193" d="M109 682q0 287 209.5 494.5t500.5 207.5q195 0 358.5 -99t254.5 -273v354h653v-82h-565v-496h551v-81h-551v-625h565v-82h-653v352q-90 -174 -254 -274.5t-357 -100.5q-291 0 -501.5 209t-210.5 496zM201 688q0 -279 205 -465q180 -162 405 -162q254 0 436.5 182.5 t182.5 438.5t-179.5 437t-431.5 181q-248 0 -433 -183t-185 -429z" />
<glyph unicode="&#x153;" horiz-adv-x="1777" d="M92 414q0 182 128 311t312 129q268 0 392 -246q47 117 141 181.5t221 64.5q180 0 290 -120t112 -322h-717q2 -109 39 -181q41 -82 119.5 -130t168.5 -48q186 0 291 195l68 -41q-121 -229 -367 -230q-258 0 -366 248q-131 -248 -396 -248q-180 0 -308 128.5t-128 308.5z M176 418q0 -152 102.5 -258.5t245.5 -106.5q150 0 255.5 103.5t105.5 251.5q0 156 -103.5 263t-253.5 107q-145 0 -248.5 -105t-103.5 -255zM977 489h620q-25 137 -105.5 213t-203.5 76q-125 0 -204.5 -75t-106.5 -214z" />
<glyph unicode="&#x178;" horiz-adv-x="1052" d="M27 1366h102l389 -686l400 686h104l-461 -782v-584h-88v584zM270 1591q0 33 23.5 55.5t56.5 22.5t55.5 -22.5t22.5 -55t-22.5 -56.5t-55.5 -24q-35 0 -57.5 22.5t-22.5 57.5zM651 1591q0 33 23.5 55.5t56.5 22.5t55.5 -22.5t22.5 -55t-22.5 -56.5t-55.5 -24 q-35 0 -57.5 22.5t-22.5 57.5z" />
<glyph unicode="&#x2c6;" horiz-adv-x="1024" d="M262 1008l250 233l248 -233l-66 -52l-182 179l-182 -179z" />
<glyph unicode="&#x2dc;" horiz-adv-x="1024" d="M254 1042q51 119 141 119q31 0 57.5 -9t120.5 -52q29 -14 58 -15q49 0 86 78l51 -39q-37 -119 -143 -118q-35 0 -111 32q-100 45 -129 45q-51 0 -78 -79z" />
<glyph unicode="&#x2000;" horiz-adv-x="888" />
<glyph unicode="&#x2001;" horiz-adv-x="1776" />
<glyph unicode="&#x2002;" horiz-adv-x="888" />
<glyph unicode="&#x2003;" horiz-adv-x="1776" />
<glyph unicode="&#x2004;" horiz-adv-x="592" />
<glyph unicode="&#x2005;" horiz-adv-x="444" />
<glyph unicode="&#x2006;" horiz-adv-x="296" />
<glyph unicode="&#x2007;" horiz-adv-x="296" />
<glyph unicode="&#x2008;" horiz-adv-x="222" />
<glyph unicode="&#x2009;" horiz-adv-x="355" />
<glyph unicode="&#x200a;" horiz-adv-x="98" />
<glyph unicode="&#x2010;" horiz-adv-x="344" d="M0 383v82h344v-82h-344z" />
<glyph unicode="&#x2011;" horiz-adv-x="344" d="M0 383v82h344v-82h-344z" />
<glyph unicode="&#x2012;" horiz-adv-x="344" d="M0 383v82h344v-82h-344z" />
<glyph unicode="&#x2013;" d="M256 383v82h608v-82h-608z" />
<glyph unicode="&#x2014;" horiz-adv-x="1034" d="M0 383v82h1034v-82h-1034z" />
<glyph unicode="&#x2018;" horiz-adv-x="464" d="M129 1034l152 410l53 -21l-123 -413z" />
<glyph unicode="&#x2019;" horiz-adv-x="464" d="M129 1028l123 416l82 -25l-152 -409z" />
<glyph unicode="&#x201a;" horiz-adv-x="464" d="M129 -281l123 414l82 -24l-152 -410z" />
<glyph unicode="&#x201c;" horiz-adv-x="702" d="M129 1034l152 410l53 -21l-123 -413zM367 1034l151 410l53 -21l-122 -413z" />
<glyph unicode="&#x201d;" horiz-adv-x="702" d="M129 1028l123 416l82 -25l-152 -409zM367 1028l122 416l82 -25l-151 -409z" />
<glyph unicode="&#x201e;" horiz-adv-x="702" d="M129 -281l123 414l82 -24l-152 -410zM367 -281l122 414l82 -24l-151 -410z" />
<glyph unicode="&#x2022;" horiz-adv-x="1366" d="M401 692q0 119 84 202t205 83q113 0 196 -84t83 -199q0 -119 -83 -201.5t-200 -82.5t-201 83.5t-84 198.5z" />
<glyph unicode="&#x2026;" horiz-adv-x="1312" d="M143 61.5q0 30.5 22.5 52t53.5 21.5t52.5 -21.5t21.5 -52t-22.5 -53t-51.5 -22.5q-31 0 -53.5 22.5t-22.5 53zM580 61.5q0 30.5 22.5 52t53 21.5t52 -21.5t21.5 -52t-22.5 -53t-51.5 -22.5q-31 0 -53 22.5t-22 53zM1018 61q0 29 22.5 51.5t53 22.5t52 -21.5t21.5 -52 t-22.5 -53t-50.5 -22.5q-31 0 -53.5 22t-22.5 53z" />
<glyph unicode="&#x202f;" horiz-adv-x="355" />
<glyph unicode="&#x2039;" horiz-adv-x="493" d="M68 424l264 305l51 -49l-217 -256l217 -258l-51 -49z" />
<glyph unicode="&#x203a;" horiz-adv-x="493" d="M109 166l219 258l-219 256l51 49l264 -305l-264 -307z" />
<glyph unicode="&#x205f;" horiz-adv-x="444" />
<glyph unicode="&#x20ac;" horiz-adv-x="1478" d="M63 563l35 84h101q-2 20 -2 37q0 27 2 47h-136l35 84h113q49 246 246.5 407.5t447.5 161.5q289 0 510 -217l-39 -88q-90 104 -215 162.5t-256 58.5q-213 0 -384 -137t-218 -348h961l-35 -84h-938q-2 -18 -2 -51q0 -20 2 -33h901l-35 -84h-856q39 -213 213 -357.5 t391 -144.5q131 0 256 58.5t215 163.5v-125q-209 -180 -471 -181q-254 0 -452.5 167t-245.5 419h-144z" />
<glyph unicode="&#x2122;" horiz-adv-x="1476" d="M2 1294v72h465v-72h-197v-706h-75v706h-193zM547 588l92 842l332 -713l336 710l92 -839h-76l-63 567l-289 -612l-287 612l-61 -567h-76z" />
<glyph unicode="&#xe000;" horiz-adv-x="835" d="M0 835h835v-835h-835v835z" />
<glyph unicode="&#xfb01;" horiz-adv-x="808" d="M53 760v76h92v397q0 137 41 197q63 88 179 88q37 0 73 -13v-75q-41 10 -65 10q-78 0 -112 -52.5t-34 -170.5v-381h211v-76h-211v-760h-82v760h-92zM549 1114q0 29 22.5 51.5t51.5 22.5q33 0 54 -21.5t21 -52.5t-22.5 -53.5t-50.5 -22.5q-31 0 -53.5 22.5t-22.5 53.5z M582 0v836h82v-836h-82z" />
<glyph unicode="&#xfb02;" horiz-adv-x="808" d="M53 760v76h92v397q0 137 41 197q63 88 179 88q37 0 73 -13v-75q-41 10 -65 10q-78 0 -112 -52.5t-34 -170.5v-381h211v-76h-211v-760h-82v760h-92zM582 0v1493h82v-1493h-82z" />
<glyph unicode="&#xfb03;" horiz-adv-x="1246" d="M985 1114q0 29 22.5 51.5t50.5 22.5q33 0 54.5 -21.5t21.5 -52.5t-22.5 -53.5t-51.5 -22.5q-31 0 -53 22.5t-22 53.5zM1017 0v836h82v-836h-82zM489 760v76h92v397q0 137 41 197q63 88 179 88q37 0 73 -13v-75q-41 10 -65 10q-78 0 -112 -52.5t-34 -170.5v-381h211v-76 h-211v-760h-82v760h-92zM53 760v76h92v397q0 137 41 197q63 88 179 88q37 0 73 -13v-75q-41 10 -65 10q-78 0 -112 -52.5t-34 -170.5v-381h211v-76h-211v-760h-82v760h-92z" />
<glyph unicode="&#xfb04;" horiz-adv-x="1246" d="M1017 0v1493h82v-1493h-82zM489 760v76h92v397q0 137 41 197q63 88 179 88q37 0 73 -13v-75q-41 10 -65 10q-78 0 -112 -52.5t-34 -170.5v-381h211v-76h-211v-760h-82v760h-92zM53 760v76h92v397q0 137 41 197q63 88 179 88q37 0 73 -13v-75q-41 10 -65 10 q-78 0 -112 -52.5t-34 -170.5v-381h211v-76h-211v-760h-82v760h-92z" />
</font>
</defs>
</svg>
