<?xml version="1.0" encoding="utf-8"?>
<!-- Generator: Adobe Illustrator 16.0.4, SVG Export Plug-In . SVG Version: 6.00 Build 0)  -->
<!DOCTYPE svg PUBLIC "-//W3C//DTD SVG 1.0//EN" "http://www.w3.org/TR/2001/REC-SVG-20010904/DTD/svg10.dtd">
<svg version="1.0" xmlns="http://www.w3.org/2000/svg" xmlns:xlink="http://www.w3.org/1999/xlink" x="0px" y="0px"
	 width="601.146px" height="143.617px" viewBox="0 0 601.146 143.617" enable-background="new 0 0 601.146 143.617"
	 xml:space="preserve">
<g id="Guides">
</g>
<g id="background">
</g>
<g id="Foreground">
	<path fill="#FFFFFF" d="M556.092,97.069h0.734V95.14h0.437c0.562,0,0.78,0.195,1.354,1.217l0.401,0.711h0.896l-0.551-0.884
		c-0.379-0.608-0.666-0.999-1.056-1.136v-0.023c0.769-0.046,1.297-0.574,1.297-1.309c0-0.494-0.379-1.193-1.504-1.193h-2.009V97.069
		z M556.827,94.509v-1.366h1.183c0.482,0,0.815,0.264,0.815,0.677c0,0.471-0.379,0.689-0.941,0.689H556.827z M557.94,90.503
		c-2.341,0-4.224,1.882-4.224,4.224c0,2.341,1.883,4.235,4.224,4.235c2.342,0,4.235-1.894,4.235-4.235
		C562.175,92.386,560.282,90.503,557.94,90.503z M557.94,91.203c1.952,0,3.536,1.573,3.536,3.524c0,1.951-1.584,3.535-3.536,3.535
		c-1.951,0-3.523-1.584-3.523-3.535C554.417,92.776,555.989,91.203,557.94,91.203z"/>
</g>
<g id="Layer_1">
	<path fill="#0082C4" fill-opacity="0" stroke="#FFFFFF" stroke-width="2" d="M557.724,85.844c23.428,0,42.422-18.993,42.422-42.422
		C600.146,19.992,581.152,1,557.724,1s-42.42,18.992-42.42,42.422C515.304,66.851,534.296,85.844,557.724,85.844L557.724,85.844z"/>
	<path fill="#FFFFFF" d="M547.441,13.309c0.344,0.066-0.104,0.494,0.305,0.457c0.068,0.124,0.229,0.153,0.363,0.161
		c0.104,0.077,0.294,0.135,0.274,0.295c0.201,0.105-0.026,0.285,0.201,0.371c0.229-0.009,0.218,0.295,0.371,0.39
		c0.143,0.029-0.009,0.239,0.133,0.201c0.029,0.238,0.334,0.437,0.029,0.637c-0.219,0.17-0.361,0.494-0.686,0.437
		c-0.086,0.135-0.276,0.124-0.419,0.182c-0.428,0.152-0.779,0.608-1.256,0.733c-0.218,0.332-0.637,0.247-0.837,0.569
		c-0.286,0.344-0.771,0.21-1.027,0.59c-0.277,0.078-0.467,0.313-0.686,0.486c-0.314,0.143-0.627,0.276-0.895,0.524
		c-0.142,0.017-0.18,0.238-0.342,0.247c-0.379,0.505-1.008,0.486-1.353,0.99c-0.618,0.313-1.065,0.932-1.665,1.256
		c-0.133,0.313-0.446,0.391-0.637,0.656c-0.285,0.068-0.381,0.438-0.666,0.506c-0.305,0.408-0.694,0.684-0.999,1.045
		c-0.21,0.287-0.504,0.534-0.752,0.8c-0.181,0.478-0.847,0.543-0.914,1.076c-0.362,0.267-0.666,0.618-0.875,1.009
		c-0.124-0.01-0.086,0.141-0.153,0.2c-0.456,0.512-0.942,0.904-1.257,1.513c-0.303,0.36-0.58,0.609-0.799,1
		c-0.201,0.245-0.467,0.523-0.485,0.826c-0.285,0.259-0.476,0.629-0.752,0.869c0.038,0.066,0.038,0.16,0,0.227
		c-0.189,0.305-0.38,0.619-0.591,0.914c0.106,0.209-0.188,0.257-0.161,0.437c-0.341,0.239-0.065,0.743-0.409,0.982
		c-0.133,0.161-0.105,0.389-0.229,0.542c0.057,0.143-0.104,0.19-0.113,0.305c-0.126,0.285-0.25,0.637-0.163,0.951
		c-0.2,0.201-0.067,0.542-0.296,0.733c0.115,0.694-0.237,1.236-0.047,1.893c-0.114,0.601,0.019,1.02-0.028,1.582
		c-0.152,0.189,0.095,0.333,0.144,0.504c0.018,0.237-0.039,0.399,0.047,0.637c-0.029,0.248,0.209,0.39,0.198,0.638
		c0.068,0.058,0.059,0.133,0.068,0.209c0.22,0.276,0.399,0.6,0.647,0.819c0.324,0.009,0.381,0.437,0.685,0.456
		c0.133,0.172,0.353,0.133,0.496,0.276c0.228,0.085,0.429,0.201,0.665,0.247c0.295,0.058,0.581,0.152,0.847,0.275
		c0.285,0.039,0.553,0.135,0.847,0.162c1.096,0.2,2.17,0.191,3.218,0.181c0.085-0.113,0.2,0.039,0.295-0.048
		c0.39-0.026,0.724-0.198,1.123-0.198c0.276,0.094,0.476-0.183,0.733-0.114c0.637-0.21,1.285-0.402,1.912-0.638
		c0.058-0.229,0.324-0.124,0.458-0.257c0.306-0.115,0.657-0.125,0.914-0.343c0.113-0.049,0.248-0.105,0.323-0.201
		c0.534-0.046,0.876-0.552,1.418-0.569c0.144-0.135,0.257-0.315,0.458-0.324c0.143-0.239,0.39-0.19,0.571-0.343
		c0.228-0.047,0.467-0.181,0.684-0.323c0.153,0,0.248-0.181,0.411-0.181c0.066-0.106,0.189-0.115,0.247-0.201
		c0.324-0.096,0.628-0.333,0.941-0.552c0.048-0.057,0.125-0.048,0.201-0.048c0.15-0.247,0.38-0.219,0.569-0.428
		c0.524-0.018,0.791-0.656,1.286-0.712c0.04-0.172,0.285-0.125,0.294-0.296c0.286-0.181,0.516-0.446,0.819-0.618
		c0.085-0.106,0.239-0.106,0.276-0.229c0.268-0.133,0.351-0.504,0.665-0.638c0.553-0.419,1.067-1.046,1.619-1.533
		c0.21-0.075,0.324-0.303,0.505-0.474c0.228-0.257,0.371-0.59,0.589-0.866c0.258-0.134,0.409-0.448,0.6-0.647
		c0.056-0.343,0.419-0.495,0.474-0.838c0.25-0.286,0.25-0.658,0.477-0.942c0.057-0.306,0.362-0.505,0.277-0.866
		c0.124-0.162,0.113-0.362,0.047-0.553c0.142-0.684-0.01-1.362-0.391-1.894c0.066-0.418-0.448-0.562-0.571-0.886
		c-0.285-0.17-0.533-0.417-0.866-0.484c-0.18-0.162-0.41-0.229-0.637-0.295c-0.315-0.256-0.714-0.067-1.057-0.249
		c-0.438-0.018-0.904-0.181-1.322-0.046c-0.2,0.077-0.401-0.055-0.591-0.029c-0.219,0.124-0.468-0.144-0.686,0.047
		c-0.494,0.028-1.056-0.047-1.532,0.142c-0.038-0.027-0.085-0.027-0.115-0.075c-0.095,0.143-0.267,0.104-0.39,0.113
		c-0.181,0.03-0.362,0.134-0.543,0.097c-0.304,0.162-0.646,0.238-0.961,0.362c-0.257,0.151-0.561,0.248-0.828,0.304
		c-0.078,0.104-0.209,0.067-0.314,0.113c-0.496,0.287-1.065,0.381-1.533,0.752c-0.399,0.104-0.589,0.62-1.008,0.637
		c-0.22,0.277-0.6,0.229-0.8,0.523c-0.371,0.316-0.743,0.611-1.142,0.847c-0.124,0.305-0.457,0.373-0.637,0.639
		c-0.049,0.028-0.105,0.039-0.134,0.095c-0.055,0.142-0.267,0.276-0.371,0.429c-0.447,0.428-0.714,0.922-1.046,1.399
		c0.066,0.333-0.411,0.276-0.343,0.617c-0.18,0.201-0.314,0.439-0.324,0.687c-0.085,0.094,0.019,0.351-0.2,0.341
		c-0.152,0.125-0.067,0.381-0.257,0.477c-0.124,0.21-0.01,0.438-0.181,0.637c-0.028,0.134-0.153,0.229-0.162,0.372
		c-0.067,0.104-0.152,0.199-0.133,0.342c-0.163,0-0.066,0.238-0.095,0.295c-0.106,0.085-0.19,0.2-0.181,0.342
		c0.048,0.029,0.065,0.078,0.065,0.132c-0.218,0.029,0.066,0.391-0.152,0.258c-0.078,0-0.124,0.066-0.21,0.038
		c-0.009-0.218,0.124-0.485-0.017-0.656c0.123-0.067,0.112-0.229,0.179-0.343c-0.018-0.066-0.104-0.133-0.162-0.066
		c-0.028,0.057-0.103,0.114-0.017,0.181c0,0.066-0.097,0.153-0.144,0.229c-0.01,0.076,0.058,0.143-0.02,0.2
		c0,0.048-0.066,0.019-0.095,0.028c-0.115-0.085-0.171-0.218-0.115-0.342c0.057-0.143-0.009-0.305,0.067-0.457
		c-0.038-0.057-0.104-0.096-0.151-0.048c-0.116,0.133-0.059,0.333-0.144,0.477c0.02,0.113,0.067,0.303-0.047,0.39
		c-0.086-0.029-0.21-0.048-0.248-0.162c0.086-0.076-0.019-0.152,0.049-0.248c0.341-0.152,0.055-0.391,0.246-0.589
		c-0.163-0.372,0.114-0.705,0.114-1.028c-0.029-0.028-0.047-0.067-0.086-0.047c-0.219,0.246-0.151,0.647-0.438,0.819
		c0.009,0.103,0.02,0.226,0.115,0.275c-0.066,0.028-0.106,0.123-0.163,0.162c-0.389,0.143-0.162-0.324-0.228-0.458
		c0.22-0.104-0.046-0.323,0.144-0.438c0.038-0.496,0.181-0.875,0.228-1.37c0.151-0.067-0.028-0.2,0.068-0.295
		c0.028-0.246,0.293-0.399,0.228-0.686c0.38-0.523,0.323-1.247,0.846-1.694c0.047-0.2,0.199-0.352,0.199-0.572
		c0.363-0.495,0.743-0.979,1.01-1.521c0.219-0.344,0.543-0.667,0.732-1.009c0.514-0.228,0.552-0.838,1.094-1.047
		c0.477-0.399,0.913-1.018,1.503-1.284c0.115-0.125,0.229-0.219,0.391-0.228c0.562-0.525,1.208-0.82,1.875-1.095
		c0.199-0.162,0.437-0.247,0.684-0.323c0.324-0.229,0.686-0.372,1.075-0.429c0.381-0.342,0.973-0.191,1.41-0.391
		c0.304-0.103,0.703,0.029,0.989-0.114c0.409-0.123,0.932-0.162,1.371-0.048c0.827,0.01,1.626,0.028,2.35,0.343
		c0.287-0.028,0.544,0.143,0.848,0.162c0.361,0.305,0.866,0.276,1.227,0.59c0.42,0.086,0.771,0.324,1.171,0.458
		c0.268,0.333,0.628,0.57,0.981,0.762c0.132,0.171,0.312,0.304,0.39,0.522c0.199,0.21,0.447,0.314,0.495,0.618
		c0.267,0.296,0.38,0.658,0.647,0.953c0.027,0.418,0.427,0.686,0.475,1.123c0.01,0.275,0.334,0.438,0.248,0.75
		c0.2,0.334,0.191,0.752,0.228,1.143c0.22,0.229-0.018,0.513,0.049,0.752c-0.114,0.161,0.039,0.342-0.049,0.504
		c-0.113,0.334-0.036,0.8-0.199,1.143c-0.029,0.2-0.143,0.343-0.143,0.552c0.048,0.181-0.161,0.286-0.085,0.457
		c-0.257,0.133-0.076,0.361-0.257,0.522c0.047,0.467-0.428,0.724-0.428,1.162c-0.096,0.085-0.124,0.201-0.144,0.324
		c-0.113,0.305-0.379,0.553-0.523,0.846c-0.227,0.305-0.447,0.637-0.656,0.933c-0.4,0.342-0.506,0.818-0.99,1.094
		c-0.438,0.448-0.771,0.856-1.228,1.256c-0.152,0.2-0.342,0.372-0.572,0.457c-0.171,0.419-0.58,0.419-0.846,0.762
		c-0.133,0.01-0.151,0.182-0.275,0.228c-0.372,0.058-0.4,0.552-0.771,0.543c-0.02,0.123-0.132,0.162-0.228,0.21
		c-0.239,0-0.38,0.256-0.553,0.361c-0.524,0.256-1.019,0.58-1.532,0.865c-0.4,0.362-0.923,0.4-1.323,0.762
		c-0.2,0.152-0.447,0.276-0.686,0.38c-0.514,0.066-0.874,0.485-1.389,0.553c-0.18,0.057-0.342,0.162-0.532,0.18
		c-0.066,0.124-0.229,0.038-0.295,0.162c-0.218,0.039-0.285,0.077-0.475,0.163c-0.324,0.028-0.542,0.313-0.896,0.294
		c-0.161,0.124-0.37,0.143-0.571,0.182c-0.142,0.124-0.371,0.142-0.542,0.229c-0.161-0.038-0.305-0.021-0.458,0.066
		c-0.294-0.066-0.475,0.133-0.732,0.142c-0.153,0.048-0.305,0.086-0.457,0.133c-0.181-0.027-0.322,0.153-0.485,0.048
		c-0.181,0.066-0.439,0.153-0.658,0.115c-0.227-0.068-0.457,0.018-0.684,0.018c-0.278,0.077-0.543,0.058-0.801-0.018
		c-0.152,0.018-0.428-0.163-0.551,0.066c-0.514-0.028-0.914-0.115-1.419-0.181c-0.266-0.124-0.569-0.248-0.883-0.181
		c-0.059-0.132-0.174-0.038-0.229,0c-0.201-0.009-0.315-0.256-0.552-0.162c-0.22-0.18-0.543-0.123-0.801-0.229
		c-0.247-0.076-0.503-0.19-0.704-0.342c-0.181,0.067-0.267-0.104-0.438-0.095c-0.19-0.124-0.343-0.314-0.59-0.295
		c-0.466-0.287-0.894-0.714-1.37-0.933c-0.695-0.457-1.342-1.114-1.856-1.761c-0.114-0.285-0.523-0.276-0.523-0.619
		c-0.419-0.426-0.532-1.008-0.98-1.417c0.009-0.144-0.094-0.256-0.094-0.409c-0.019-0.295-0.344-0.523-0.228-0.82
		c-0.125-0.285-0.116-0.627-0.181-0.942c-0.059-0.504,0.026-0.922-0.068-1.389c-0.075-0.171,0.068-0.362,0.02-0.552
		c0.114-0.285-0.095-0.532,0-0.819c-0.039-0.379,0.162-0.694,0.189-1.027c0.058-0.533,0.23-1.028,0.316-1.551
		c0.199-0.314,0.083-0.761,0.276-1.075c0.046-0.191,0.181-0.353,0.228-0.553c0.258-0.257,0.237-0.629,0.438-0.914
		c0-0.019,0-0.038,0-0.066c0.333-0.589,0.542-1.238,1-1.781c0.085-0.342,0.37-0.589,0.456-0.932c0.4-0.639,0.857-1.247,1.256-1.875
		c0.399-0.523,0.799-1.028,1.286-1.513c0.095-0.324,0.495-0.438,0.656-0.724c0.02,0,0.029,0,0.049,0
		c0.323-0.533,0.836-0.808,1.141-1.35c1.152-1.105,2.236-2.247,3.427-3.294c0.19-0.028,0.248-0.248,0.343-0.38
		c0.438-0.381,0.989-0.515,1.351-1.029c0.428-0.314,0.799-0.771,1.227-1.076c0.258,0.047,0.183-0.294,0.392-0.294
		c0.039-0.248,0.306-0.134,0.41-0.305c0.379-0.105,0.638-0.523,1.027-0.61c0.295-0.141,0.343-0.455,0.638-0.598
		c0.228-0.286,0.629-0.162,0.876-0.429c0.142,0.048,0.124-0.142,0.248-0.161c0.447-0.066,0.675-0.506,1.123-0.601
		c0.313-0.181,0.723-0.132,0.952-0.543c0.237-0.019,0.399-0.218,0.618-0.275C546.929,13.119,547.298,13.033,547.441,13.309
		L547.441,13.309z"/>
	<path fill="#FFFFFF" d="M577.963,21.95c0.429,0.038,0.963,0,1.391,0.114c0.238-0.096,0.342,0.153,0.551,0.134
		c0.105,0.237,0.343,0.028,0.506,0.095c0.265,0.066,0.512,0.238,0.798,0.199c0.419,0.295,0.952,0.326,1.342,0.686
		c0.258,0.105,0.466,0.238,0.666,0.41c0.438,0.085,0.591,0.563,1.028,0.667c0.286,0.466,0.876,0.446,1.094,0.98
		c0.352,0.466,0.867,0.818,1.143,1.352c0.066,0.161,0.143,0.362,0.342,0.408c0.229,0.267,0.238,0.62,0.391,0.915
		c-0.038,0.152,0.172,0.189,0.18,0.323c0.057,0.342,0.134,0.694,0.296,0.999c0.133,0.667,0.295,1.323,0.39,2.008
		c0.087,0.144,0.029,0.428,0.047,0.599c-0.057,0.115-0.057,0.257,0.048,0.362c0,0.238,0,0.467-0.096,0.667
		c0.171,0.124-0.067,0.333,0.114,0.457c-0.133,0.257-0.114,0.6-0.208,0.848c0.133,0.37-0.344,0.626-0.229,1.028
		c-0.078,0.113-0.018,0.312-0.181,0.38c-0.029,0.305-0.125,0.571-0.182,0.847c-0.143,0.152-0.112,0.372-0.18,0.551
		c-0.104,0.314-0.363,0.571-0.457,0.885c0.058,0.201-0.201,0.267-0.258,0.418c-0.046,0.143-0.18,0.259-0.153,0.429
		c-0.15,0.124-0.332,0.267-0.341,0.456c-0.238,0.438-0.542,0.781-0.799,1.209c-0.276,0.238-0.467,0.523-0.648,0.781
		c-0.37,0.268-0.466,0.761-0.866,0.98c-0.172,0.429-0.647,0.438-0.817,0.866c-0.067,0.153-0.288,0.038-0.296,0.228
		c-0.258,0.342-0.695,0.457-0.942,0.781c-0.19,0.02-0.305,0.389-0.477,0.275c-0.094,0.256-0.426,0.229-0.598,0.458
		c-0.067,0.104-0.192-0.057-0.228,0.112c-0.087,0-0.174,0.059-0.2,0.135c-0.362,0.162-0.724,0.304-1.076,0.505
		c-0.238-0.04-0.361,0.152-0.589,0.181c-0.22,0.171-0.486,0.227-0.714,0.389c-0.229-0.008-0.333,0.134-0.523,0.229
		c-0.286-0.047-0.524,0.161-0.8,0.209c-0.438,0.124-0.876,0.294-1.322,0.342c-0.295,0.144-0.724,0.096-1.028,0.267
		c-0.314-0.114-0.601,0.115-0.942,0.077c-0.22,0.076-0.485,0.124-0.705,0.133c-0.247,0.02-0.475-0.038-0.75-0.068
		c-0.21,0.171-0.525,0.076-0.781,0.048c-0.428,0.058-0.885-0.113-1.343-0.113c-0.427-0.067-0.837,0.047-1.189-0.191
		c-0.286,0.191-0.486-0.2-0.78-0.067c-0.066-0.133-0.247-0.038-0.296-0.181c-0.38-0.104-0.818-0.038-1.123-0.342
		c-0.371-0.02-0.667-0.219-0.999-0.343c-0.21-0.246-0.523-0.4-0.828-0.523c-0.181-0.324-0.6-0.446-0.771-0.75
		c-0.065-0.163-0.228-0.059-0.295-0.192c0.019-0.343-0.448-0.391-0.505-0.686c-0.276-0.228-0.295-0.607-0.551-0.864
		c-0.248-0.428-0.437-0.886-0.619-1.342c-0.229-0.457-0.2-1.057-0.296-1.533c-0.161-0.351,0.2-0.542,0.143-0.865
		c0.03-0.399,0.087-0.77,0.381-1.057c0.144-0.419,0.334-0.836,0.715-1.143c0.028-0.228,0.389-0.083,0.456-0.36
		c0.066-0.019,0.125-0.067,0.2-0.047c0.048,0.057,0.114,0.152,0.028,0.208c-0.362,0.067-0.132,0.486-0.457,0.59
		c-0.018,0.078-0.066,0.162-0.047,0.229c0.219-0.077,0.238-0.306,0.457-0.409c0.018-0.286,0.447-0.211,0.361-0.523
		c0.285,0.028,0.57-0.305,0.732-0.535c0.172-0.104,0.353-0.256,0.601-0.228c0.038,0.133,0.01,0.228,0.019,0.342
		c-0.209,0.143-0.437-0.095-0.522,0.229c0,0.142-0.19,0.19-0.181,0.342c-0.133,0.057-0.22,0.152-0.277,0.277
		c0.029,0.085,0.114,0.028,0.181,0.046c0.199-0.163,0.38-0.466,0.619-0.59c0.429,0.104,0.457-0.561,0.866-0.437
		c0.076-0.144,0.219-0.02,0.323,0c0.096,0.132-0.113,0.124-0.161,0.181c-0.067-0.02-0.095,0.038-0.142,0.066
		c0.057,0.095-0.029,0.305,0.162,0.19c0.01-0.029,0.047-0.029,0.066-0.029c0.009,0.049,0.067,0.078,0.095,0.115
		c-0.294,0.066-0.191,0.448-0.457,0.485c-0.114,0.095-0.304,0.209-0.295,0.381c0.029,0.046,0.076,0.056,0.114,0.027
		c0.105-0.313,0.306,0.134,0.428-0.162c0.077-0.305,0.362-0.066,0.534-0.132c0,0.056,0.086,0.066,0.066,0.132
		c-0.181,0.135-0.371,0.324-0.6,0.276c-0.066,0.191-0.314,0.276-0.41,0.429c-0.324,0.409-0.732,0.76-1.045,1.19
		c-0.183,0.227-0.334,0.477-0.391,0.75c-0.266,0.097-0.048,0.342-0.21,0.504c-0.028,0.418-0.305,0.772-0.199,1.209
		c0.018,0.296,0.122,0.562,0.199,0.828c0.077,0.163,0.143,0.305,0.189,0.476c0.211,0.248,0.324,0.676,0.707,0.713
		c0.323,0.266,0.714,0.372,1.046,0.609c0.447-0.065,0.704,0.353,1.142,0.209c0.219,0.039,0.457,0.011,0.646,0.134
		c0.648-0.085,1.344,0.067,1.98,0.027c0.409-0.293,0.847,0.097,1.256-0.161c0.257,0.02,0.457-0.114,0.713-0.114
		c0.182-0.104,0.429-0.056,0.619-0.161c0.276,0.036,0.504-0.229,0.753-0.068c0.027-0.181,0.228-0.038,0.313-0.114
		c0.324-0.134,0.685-0.161,1.028-0.248c0.229-0.189,0.608-0.095,0.827-0.341c0.22-0.058,0.373-0.276,0.62-0.258
		c0.17-0.123,0.456-0.113,0.569-0.276c0.458-0.256,0.856-0.638,1.372-0.77c0.494-0.343,1.028-0.592,1.485-1.029
		c0.114,0,0.152-0.095,0.228-0.18c0.667-0.458,1.182-1,1.799-1.561c0.124-0.181,0.267-0.458,0.504-0.496
		c0.418-0.448,0.865-0.837,1.238-1.284c0-0.258,0.36-0.314,0.379-0.57c0.439-0.391,0.725-0.935,0.991-1.438
		c0.229-0.095,0.201-0.333,0.295-0.504c0.468-0.419,0.448-1.047,0.819-1.504c0.095-0.457,0.314-0.867,0.371-1.351
		c0.171-0.276,0.219-0.609,0.229-0.961c0.124-0.209,0.029-0.439,0.085-0.686c0.086-0.542,0.143-1.178-0.047-1.665
		c0.104-0.524-0.342-0.886-0.411-1.371c-0.104-0.153-0.198-0.306-0.341-0.429c-0.143-0.533-0.743-0.6-1.028-1.055
		c-0.303-0.077-0.562-0.287-0.865-0.364c-0.247-0.094-0.514-0.171-0.751-0.294c-0.161-0.085-0.354-0.113-0.523-0.162
		c-0.058-0.171-0.212,0-0.306-0.144c-0.171,0.021-0.324-0.009-0.476-0.065c-0.703,0-1.476-0.2-2.217,0
		c-0.22-0.057-0.458,0.123-0.658,0.028c-0.038,0.066-0.113,0.144-0.209,0.114c-0.124-0.132-0.294,0.048-0.457,0.018
		c-0.028-0.055-0.085-0.046-0.132-0.046c-0.104,0.229-0.324,0.038-0.487,0.161c-0.228,0.067-0.532,0.038-0.703,0.21
		c-0.133,0.038-0.286,0-0.39,0.114c-0.278-0.066-0.534,0.18-0.801,0.065c-0.219,0.144-0.475,0.172-0.704,0.296
		c-0.285,0.113-0.626,0.125-0.847,0.322c-0.152,0.011-0.247,0.152-0.408,0.135c-0.201,0.124-0.4,0.237-0.647,0.248
		c-0.171,0-0.191,0.361-0.409,0.229c-0.267,0.114-0.515,0.304-0.82,0.324c-0.027,0.104-0.143,0.113-0.227,0.133
		c-0.211,0.162-0.467,0.182-0.64,0.418c-0.227,0.086-0.484,0.181-0.666,0.343c-0.124,0.046-0.257,0.066-0.362,0.152
		c-0.047-0.039-0.104,0.056-0.115,0.095c0.02,0.105-0.103,0.048-0.141,0.114c-0.42,0.342-0.914,0.589-1.276,0.962
		c-0.247-0.097-0.143,0.228-0.343,0.228c-0.227,0.342-0.656,0.418-0.942,0.732c-0.693,0.485-1.237,1.18-1.914,1.714
		c-0.057,0-0.104,0.017-0.142,0.066c0,0.285-0.295,0.418-0.476,0.619c-0.238,0.152-0.248,0.495-0.523,0.589
		c-0.21,0.133-0.239,0.372-0.438,0.523c0.047,0.314-0.314,0.38-0.475,0.572c-0.239-0.125-0.505,0.265-0.668-0.068
		c-0.171,0.028-0.218-0.124-0.314-0.228c0.029-0.152,0.057-0.38-0.115-0.457c-0.209,0.019-0.379-0.181-0.598-0.21
		c-0.372-0.428-0.391-1.057-0.505-1.618c-0.096-0.284,0.172-0.409,0.21-0.665c0.181-0.238,0.419-0.485,0.618-0.705
		c0.077-0.038,0.057-0.124,0.085-0.18c0.487-0.6,1.094-0.971,1.562-1.582c0.152-0.2,0.457-0.228,0.494-0.503
		c0.352-0.114,0.457-0.62,0.848-0.686c0.391-0.296,0.772-0.57,1.171-0.913c0.494-0.601,1.216-0.772,1.779-1.371
		c0.362-0.181,0.675-0.504,1.076-0.609c0.531-0.667,1.369-0.77,2.073-1.124c0.324-0.267,0.695-0.381,1.048-0.552
		c0.256-0.105,0.532-0.152,0.797-0.23c0.174-0.057,0.345-0.104,0.507-0.18c0.237,0,0.456-0.066,0.637-0.2
		c0.646-0.125,1.227-0.429,1.855-0.505c0.048-0.028,0.104-0.045,0.161-0.066c0.505,0.047,1.019-0.086,1.503-0.096
		c0.306-0.066,0.611-0.075,0.895,0.048C577.766,21.988,577.87,21.968,577.963,21.95L577.963,21.95z"/>
	<path fill="#FFFFFF" d="M563.889,36.34c-0.115,0.038-0.04,0.181-0.153,0.199c-0.104,0.031-0.219-0.084-0.275,0.048
		c-0.029,0.038,0.057,0.066,0,0.095c-0.152-0.075-0.152-0.256-0.049-0.372c0.134-0.077,0.296-0.228,0.437-0.132
		C563.86,36.226,563.909,36.263,563.889,36.34L563.889,36.34z"/>
	<path fill="#FFFFFF" d="M554.714,45.268c0.2,0.133,0.313,0.485,0.571,0.361c0.122,0.058,0.285,0.058,0.381,0.191
		c0.333,0.029,0.427,0.458,0.798,0.361c0.038,0.22,0.228,0.39,0.191,0.637c0.123,0.038,0.21,0.181,0.248,0.295
		c0.151,0.142-0.096,0.277-0.049,0.457c-0.238,0.277-0.599,0.459-0.817,0.733c-0.172-0.028-0.105,0.22-0.277,0.181
		c-0.267,0.362-0.713,0.313-0.933,0.714c-0.514,0.342-0.893,0.847-1.418,1.161c-0.065,0.152-0.208,0.219-0.295,0.373
		c-0.646,0.561-1.417,1.198-2.083,1.75c-0.209,0-0.134,0.304-0.362,0.324c-0.009,0.162-0.238,0.046-0.208,0.227
		c-0.181,0.153-0.362,0.324-0.523,0.525c-0.514,0.457-0.934,0.952-1.438,1.465c0.019,0.095-0.116,0.076-0.116,0.163
		c-0.124,0.066-0.124,0.238-0.293,0.228c-0.047,0.18-0.305,0.209-0.325,0.408c-0.066,0.115-0.236,0.059-0.228,0.229
		c-0.352,0.19-0.304,0.676-0.685,0.799c-0.342,0.353-0.581,0.733-0.961,1.095c0.019,0.105-0.105,0.145-0.133,0.228
		c-0.22,0-0.124,0.324-0.343,0.362c0,0.219-0.208,0.296-0.324,0.439c-0.086,0.142-0.228,0.313-0.362,0.437
		c-0.104,0.247-0.381,0.437-0.391,0.724c-0.247,0.285-0.571,0.569-0.637,0.942c-0.248,0.371-0.362,0.828-0.667,1.16
		c-0.094,0.314-0.36,0.571-0.36,0.895c-0.162,0.143-0.095,0.381-0.277,0.524c0.049,0.104-0.065,0.208-0.132,0.274
		c0.018,0.201-0.135,0.287-0.144,0.477c-0.076,0.268-0.104,0.544-0.313,0.752c0.142,0.162-0.134,0.285-0.049,0.438
		c-0.172,0.095-0.104,0.314-0.181,0.457c0.106,0.104-0.124,0.246,0.02,0.362c-0.095,0.371-0.181,0.79-0.049,1.189
		c-0.038,0.324-0.046,0.684,0.184,0.942c-0.117,0.238,0.122,0.438,0.141,0.686c0.029,0.095,0.115,0.181,0.181,0.266
		c-0.132,0.172,0.142,0.22,0.114,0.372c0.162,0.144,0.257,0.392,0.476,0.428c0.019,0.125,0.151,0.133,0.144,0.258
		c0.332,0.142,0.531,0.476,0.865,0.542c0.096,0.085,0.209,0.163,0.343,0.163c0.218,0.227,0.561,0.238,0.866,0.276
		c0.389,0.181,0.799,0.314,1.237,0.391c0.076-0.077,0.229-0.059,0.314-0.029c0.209,0.169,0.514-0.039,0.714,0.094
		c0.114,0.02,0.324-0.047,0.429,0.067c0.189-0.037,0.37-0.104,0.571-0.114c0.267-0.018,0.514,0.134,0.761,0.047
		c0.437-0.037,0.819-0.104,1.209-0.209c0.162,0.038,0.285-0.066,0.408,0.048c0.239-0.057,0.516-0.163,0.754-0.086
		c0.256-0.114,0.533,0.029,0.798-0.047c0.323-0.086,0.695-0.182,0.981-0.21c0.258,0.078,0.457-0.227,0.714-0.084
		c0.409-0.077,0.819-0.229,1.228-0.229c0.066-0.057,0.161-0.104,0.228-0.047c0.114,0.056,0.182-0.124,0.305-0.113
		c0.229-0.144,0.589,0.046,0.771-0.209c0.115-0.021,0.286,0.114,0.344-0.066c0.227-0.049,0.465-0.078,0.684-0.163
		c0.399-0.028,0.799-0.2,1.19-0.296c0.304-0.19,0.705-0.245,1.046-0.274c0.286-0.258,0.677-0.238,0.991-0.41
		c0.151-0.152,0.429-0.067,0.542-0.248c0.19-0.125,0.428,0.057,0.571-0.162c0.305-0.057,0.582-0.21,0.799-0.409
		c0.218-0.039,0.486,0,0.601-0.229c0.094-0.047,0.114,0.124,0.228,0.066c0.229-0.153,0.466-0.457,0.798-0.37
		c0.01,0.067-0.169,0.19-0.047,0.304c-0.057,0.181-0.257,0-0.322,0.152c-0.286-0.038-0.382,0.276-0.62,0.342
		c-0.037-0.009-0.058,0.031-0.085,0.048c0,0.058,0.019,0.106,0.066,0.144c0.125-0.134,0.362-0.03,0.409-0.229
		c0.343,0.057,0.486-0.227,0.734-0.342c0.209-0.114,0.438-0.401,0.704-0.257c0,0.104-0.038,0.238-0.152,0.257
		c-0.106,0.009-0.057,0.115-0.114,0.153c0.124,0.266,0.313-0.153,0.475,0.076c0.145-0.285,0.639,0.01,0.619-0.418
		c0.114-0.143,0.305-0.191,0.477-0.134c0.085,0.037,0.201,0.105,0.227,0.181c-0.266,0.124-0.302,0.522-0.656,0.438
		c-0.077,0.123-0.219,0.115-0.275,0.228c0.085,0.143,0.123-0.039,0.199,0.113c0.229,0.105,0.399-0.313,0.551,0
		c0.077,0.01,0.155-0.056,0.21,0.02c0.009,0.237-0.276,0.19-0.342,0.371c-0.114,0-0.219,0.057-0.277,0.132
		c-0.076,0.335-0.465,0.183-0.619,0.476c0.057,0.115,0.154,0.182,0.278,0.115c0.142-0.314,0.512,0.066,0.589-0.314
		c0.095-0.029,0.229,0,0.324,0.047c-0.094,0.124,0.019,0.428-0.229,0.381c-0.113,0.124-0.343,0.047-0.39,0.228
		c0.305,0.077-0.104,0.049-0.133,0.115c-0.19,0.238-0.561,0.172-0.714,0.485c-0.124-0.009-0.181,0.161-0.313,0.132
		c-0.494,0.315-1.038,0.497-1.514,0.847c-0.133,0.106-0.342,0.029-0.458,0.181c-0.103-0.008-0.084,0.124-0.18,0.144
		c-0.333,0.172-0.724,0.229-1.075,0.362c-0.028,0.057-0.104,0.161-0.182,0.095c0.011,0.161-0.199,0.066-0.274,0.153
		c-0.258,0.104-0.486,0.057-0.706,0.229c-0.39,0.038-0.685,0.285-1.075,0.323c-0.324,0.172-0.734,0.125-1.048,0.324
		c-0.142-0.065-0.284,0.01-0.389,0.114c-0.401,0.096-0.896-0.028-1.238,0.199c-0.389,0.097-0.733,0.059-1.113,0.163
		c-0.161,0.056-0.408-0.038-0.552,0.114c-0.171,0.124-0.39-0.058-0.551,0.047c-0.419-0.094-0.829,0.057-1.276,0.114
		c-0.057-0.067-0.163-0.075-0.229-0.047c-0.125,0.067-0.305-0.02-0.457-0.02c-0.249,0.087-0.637,0.03-0.914,0.04
		c-0.191,0.181-0.399,0.057-0.619,0.028c-0.342-0.019-0.75,0.143-1.028-0.047c-0.162,0.077-0.305,0.047-0.475,0.02
		c-0.457-0.057-0.916-0.238-1.419-0.248c-0.075-0.095-0.227-0.01-0.323-0.066c-0.363-0.19-0.818-0.182-1.181-0.372
		c-0.723-0.085-1.284-0.543-1.989-0.658c-0.323-0.113-0.608-0.314-0.866-0.523c-0.132-0.228-0.505-0.066-0.599-0.342
		c-0.342-0.229-0.656-0.533-1.028-0.684c-0.19-0.258-0.428-0.514-0.685-0.668c-0.21-0.36-0.619-0.655-0.705-1.074
		c-0.086-0.218-0.399-0.342-0.391-0.589c-0.295-0.496-0.553-1-0.618-1.581c-0.258-0.313-0.048-0.742-0.276-1.076
		c0.057-0.199-0.19-0.323-0.039-0.495c-0.019-0.218,0.029-0.458,0.039-0.686c-0.039-0.029-0.039-0.066-0.067-0.094
		c-0.056-0.457,0.124-0.924,0.028-1.371c-0.009-0.372,0.285-0.648,0.182-1.029c0.114-0.133,0.037-0.36,0.16-0.504
		c0.125-0.39,0.096-0.846,0.344-1.188c0.038-0.266,0.161-0.515,0.181-0.8c0.104-0.228,0.181-0.466,0.342-0.684
		c-0.095-0.257,0.248-0.41,0.248-0.657c0.065,0.028,0.124-0.047,0.143-0.096c0.047-0.134,0.151-0.258,0.227-0.39
		c0.086-0.343,0.485-0.592,0.411-0.981c0.36-0.447,0.732-0.875,0.932-1.418c0.257-0.133,0.295-0.418,0.523-0.571
		c0.029-0.172,0.199-0.287,0.305-0.429c0.285-0.313,0.485-0.722,0.771-1.027c0.171-0.437,0.685-0.646,0.913-1.075
		c0.437-0.361,0.627-0.97,1.122-1.237c0.257-0.229,0.39-0.496,0.659-0.752c0.17-0.22,0.36-0.467,0.598-0.619
		c0.381-0.39,0.657-0.857,1.075-1.228c0.02-0.172,0.201-0.229,0.343-0.276c0.294-0.267,0.581-0.582,0.932-0.732
		c0.134-0.115,0.134-0.353,0.324-0.391c-0.018-0.029,0.038-0.029,0.02-0.066c0.238-0.143,0.485-0.229,0.637-0.504
		c0.391-0.172,0.523-0.656,0.942-0.799c0.182-0.191,0.515-0.228,0.657-0.477c0.218-0.209,0.476-0.524,0.8-0.571
		c0.228-0.172,0.437-0.465,0.713-0.551c0.115,0.114,0.237-0.011,0.38,0.028c0.153-0.181,0.391,0,0.571,0
		C554.658,45.275,554.695,45.304,554.714,45.268L554.714,45.268z"/>
	<path fill="#FFFFFF" d="M548.661,49.15c-0.029,0.01-0.077-0.029-0.029-0.047C548.642,49.112,548.661,49.132,548.661,49.15
		L548.661,49.15z"/>
	<path fill="#FFFFFF" d="M0,47.394h28.046v23.098c5.407-2.038,10.995-3.065,16.769-3.065c11.358,0.095,20.558,3.683,27.6,10.771
		c7.177,7.091,10.814,16.291,10.906,27.604c0,8.861-2.946,17.019-8.827,24.471c-6.064,7.904-15.628,11.95-28.694,12.131H0V47.394z
		 M28.046,118.085c3.766,0.642,6.996,0.96,9.677,0.96c5.416,0,9.653-1.302,12.715-3.913c3.105-2.464,4.708-5.85,4.805-10.145
		c0-4.301-1.485-7.755-4.45-10.358c-3.112-2.47-7.162-3.75-12.153-3.845c-3.295,0-6.829,0.575-10.594,1.718V118.085z"/>
	<path fill="#FFFFFF" d="M87.073,105.522C86.98,95.577,90.41,86.829,97.37,79.286c6.819-7.721,17.676-11.673,32.573-11.859
		c15.436,0.275,26.494,4.389,33.181,12.339c6.553,7.674,9.788,16.261,9.696,25.757c0,10.178-3.454,18.923-10.365,26.238
		c-7.002,7.723-17.749,11.675-32.243,11.853c-15.255-0.269-26.292-4.401-33.114-12.4C90.322,123.492,86.98,114.925,87.073,105.522z
		 M115.122,105.522c0,4.24,1.379,7.654,4.142,10.25c2.665,2.689,6.223,4.031,10.667,4.031c4.492,0,8.071-1.342,10.74-4.031
		c2.714-2.596,4.071-6.01,4.071-10.25c0-4.279-1.357-7.718-4.071-10.315c-2.669-2.644-6.248-3.965-10.74-3.965
		c-4.445,0-8.002,1.321-10.667,3.965C116.501,97.805,115.122,101.243,115.122,105.522z"/>
	<path fill="#FFFFFF" d="M176.353,47.394h28.047v95.008h-28.047V47.394z"/>
	<path fill="#FFFFFF" d="M226.182,109.466c4.744,0.091,8.65,1.705,11.725,4.841c3.069,3.182,4.648,7.244,4.737,12.195
		c-0.089,4.818-1.668,8.815-4.737,11.994c-3.075,3.31-6.981,5.016-11.725,5.105c-4.701-0.089-8.559-1.795-11.59-5.105
		c-3.332-3.178-5.001-7.176-5.001-11.994c0-4.951,1.669-9.014,5.006-12.195C217.624,111.171,221.487,109.557,226.182,109.466z"/>
	<path fill="#FFFFFF" d="M307.142,139.065c-8.35,3.124-15.912,4.643-22.679,4.548c-12.04-0.086-21.75-3.606-29.128-10.558
		c-7.47-6.907-11.249-15.924-11.337-27.056c0-9.674,3.186-18.419,9.558-26.234c6.416-7.95,16.457-12.064,30.123-12.339
		c7.821,0,15.469,1.281,22.939,3.846v24.537c-6.028-3.044-11.967-4.567-17.814-4.567c-5.059,0-9.084,1.321-12.073,3.965
		c-3.124,2.598-4.683,6.08-4.683,10.457c0,4.328,1.669,7.693,5.013,10.108c3.118,2.689,7.299,4.031,12.532,4.031
		c4.706,0.091,10.557-1.424,17.55-4.539V139.065z"/>
	<path fill="#FFFFFF" d="M312.176,105.522c-0.092-9.946,3.337-18.693,10.294-26.237c6.822-7.721,17.683-11.673,32.58-11.859
		c15.433,0.275,26.491,4.389,33.182,12.339c6.553,7.674,9.784,16.261,9.692,25.757c0,10.178-3.454,18.923-10.361,26.238
		c-6.999,7.723-17.746,11.675-32.24,11.853c-15.258-0.269-26.298-4.401-33.117-12.4
		C315.427,123.492,312.084,114.925,312.176,105.522z M340.223,105.522c0,4.24,1.381,7.654,4.147,10.25
		c2.662,2.689,6.219,4.031,10.664,4.031c4.493,0,8.075-1.342,10.743-4.031c2.711-2.596,4.069-6.01,4.069-10.25
		c0-4.279-1.357-7.718-4.069-10.315c-2.668-2.644-6.25-3.965-10.743-3.965c-4.445,0-8.002,1.321-10.664,3.965
		C341.604,97.805,340.223,101.243,340.223,105.522z"/>
	<path fill="#FFFFFF" d="M402.696,68.777h28.077v9.683c6.651-7.36,14.391-11.046,23.248-11.046
		c9.854-0.091,17.306,4.279,22.343,13.1c7.617-8.644,16.444-13.011,26.482-13.1c8.13,0.089,14.042,2.843,17.728,8.247
		c3.692,5.41,5.538,11.93,5.538,19.564v47.165h-28.077v-42.171c0-2.72-0.684-4.869-2.072-6.461
		c-1.467-1.584-3.466-2.381-5.984-2.381c-4.469,0.141-8.319,2.66-11.554,7.55v43.463h-28.047v-41.624
		c0-2.903-0.714-5.19-2.146-6.868c-1.473-1.543-3.576-2.381-6.296-2.521c-4.004,0.141-7.727,2.66-11.163,7.55v43.463h-28.077V68.777
		z"/>
</g>
</svg>
