<svg viewBox="0 0 876 209" xmlns="http://www.w3.org/2000/svg">
    <path fill="#0000a4" d="M-.25,68.9H40.61v33.85a69.64,69.64,0,0,1,24.94-4.46c32.1,0,55.37,23.51,55.37,55.73,0,24.32-16.65,53.09-54.57,53.09H-.25ZM40.61,171.65a91.23,91.23,0,0,0,15.46,1.42c14.64,0,24.27-7.91,24.27-20.27,0-12.16-9.43-20.47-23.07-20.47a55.07,55.07,0,0,0-16.66,2.44Zm149-73.36c45.14,0,62.4,29.38,62.4,55.32,0,28.37-19.86,55.33-62,55.33-45.14,0-62.79-29.18-62.79-55.33C127.25,126.05,145.91,98.29,189.64,98.29Zm0,76c12.76,0,21.55-8.51,21.55-20.67s-8.79-20.67-21.55-20.67-21.54,8.51-21.54,20.67S176.89,174.28,189.64,174.28ZM260.33,68.9h40.81V207.11H260.33ZM354.59,184c0,13.78-10.67,24.93-24.11,24.93s-24.3-11.15-24.3-24.93a24.43,24.43,0,0,1,24.3-24.72C343.92,159.29,354.59,170.23,354.59,184Zm92.31,18.24c-13.56,5.07-21.82,6.69-33,6.69-34.8,0-59-22.5-59-54.72,0-26.75,17.49-55.93,57.79-55.93a104.88,104.88,0,0,1,33.41,5.47v35.46c-9-4.25-17.29-6.28-25.94-6.28-14.55,0-24.38,8.51-24.38,20.88,0,12.16,10.42,20.46,25.56,20.46,7.66,0,14.35-1.82,25.55-6.68Zm67.82-104c45.14,0,62.4,29.38,62.4,55.32,0,28.37-19.87,55.33-62,55.33-45.14,0-62.79-29.18-62.79-55.33C452.33,126.05,471,98.29,514.72,98.29Zm0,76c12.76,0,21.54-8.51,21.54-20.67s-8.78-20.67-21.54-20.67-21.54,8.51-21.54,20.67S502,174.28,514.72,174.28ZM586,100.11h40.79V114.3c9.88-11,21.52-16,34.42-16,14.72,0,24.2,5.67,32.06,19,10.69-12.36,23.8-19,37.91-19,24,0,34.39,19,34.39,40.33v68.49H724.75v-61.4c0-7.7-4.52-12.77-11.37-12.77-6,0-12.85,3.85-17.08,10.95v63.22H655.22V146.52c0-7.9-4.72-13.58-12-13.58-5.25,0-12,3.85-16.48,10.95v63.22H586ZM813.85,3.9c31.94,0,57.93,26.31,57.93,58.65s-26,58.62-57.93,58.62-58-26.3-58-58.62,26-58.65,58-58.65m0-4c-34.14,0-61.92,28.08-61.92,62.61s27.78,62.58,61.92,62.58,61.9-28.07,61.9-62.58S848-.06,813.85-.06ZM785.14,68.2c-8,0-16.66-5.52-16.66-14.45,0-17,21.56-32.59,29-36.06,1.16-.54,3,1.67,3.67,3.06.57,1.14.34,1.56.05,1.71h0c-13.53,7.25-28.1,20.85-28.1,33.59,0,5.52,2.9,7.67,10.35,7.67,8.76,0,28.64-12.06,28.64-20.76,0-3.25-2.41-4.9-7.17-4.9-11.8,0-18.16,7.69-20,14.27-.14.49-.68.71-1.4.56-.94-.2-1.89-.92-1.79-1.76.76-5.84,7-18.65,20.45-18.65,6.05,0,13.43,5.43,13.43,11.76C815.59,56.58,798.44,68.2,785.14,68.2ZM801,22l.12.24L801,22Zm3.55,87.42c-6.66,0-17.94-3-17.94-14.3,0-8.71,7.3-18.95,21.1-29.6l.35-.26c.92-.72,3.22.73,4.26,2s.5,1.74.27,1.93h0c-6.57,5.5-22,18.38-22,28.82,0,4,3.24,6.57,8.46,6.57,6.84,0,15.36-2,24-5.57,1.11-.45,2.41,1,3,2.22s.48,1.93-.1,2.25C818.24,107.68,812,109.4,804.5,109.4Zm29.11-40.58c-14.57,0-14.74-10.74-14.74-11.2a7.07,7.07,0,0,1,2.32-5c.61-.59,1.88-.28,2.39-.12,1,.32,2.1,1,2.25,1.67a.79.79,0,0,1-.31.79c-2,1.75-3,3-3,5.43,0,2.08,2.17,4.29,6.19,4.29,15.83,0,25.93-13.61,25.93-20.73,0-6.49-4.77-7.85-8.77-7.85-13.89,0-24.07,13.28-24.5,13.85h0a.92.92,0,0,1-.87.35c-1.09-.14-2.59-1.81-3.16-3.16a1.73,1.73,0,0,1,0-1.73,48.61,48.61,0,0,1,8.73-8.3c5.63-4.17,11.11-6.28,16.26-6.28,11.06,0,16.11,8.09,16.11,15.6C858.38,58.37,846.8,68.82,833.61,68.82Z"></path>
</svg>