<?xml version="1.0" encoding="UTF-8" standalone="no"?>
<svg
   xmlns:dc="http://purl.org/dc/elements/1.1/"
   xmlns:cc="http://creativecommons.org/ns#"
   xmlns:rdf="http://www.w3.org/1999/02/22-rdf-syntax-ns#"
   xmlns:svg="http://www.w3.org/2000/svg"
   xmlns="http://www.w3.org/2000/svg"
   viewBox="0 0 800.20001 190.14667"
   height="190.14667"
   width="800.20001"
   xml:space="preserve"
   id="svg2"
   version="1.1"><metadata
     id="metadata8"><rdf:RDF><cc:Work
         rdf:about=""><dc:format>image/svg+xml</dc:format><dc:type
           rdf:resource="http://purl.org/dc/dcmitype/StillImage" /></cc:Work></rdf:RDF></metadata><defs
     id="defs6" /><g
     transform="matrix(1.3333333,0,0,-1.3333333,0,190.14667)"
     id="g10"><g
       transform="scale(0.1)"
       id="g12"><path
         id="path14"
         style="fill:#231f20;fill-opacity:1;fill-rule:nonzero;stroke:none"
         d="m 5560.93,465.438 h 7.34 v 19.289 h 4.37 c 5.62,0 7.8,-1.954 13.54,-12.172 l 4.02,-7.117 h 8.95 l -5.51,8.843 c -3.79,6.078 -6.66,9.985 -10.56,11.36 v 0.226 c 7.69,0.461 12.97,5.738 12.97,13.086 0,4.942 -3.79,11.934 -15.03,11.934 h -20.09 z m 7.34,25.597 v 13.656 h 11.83 c 4.82,0 8.15,-2.636 8.15,-6.765 0,-4.707 -3.79,-6.891 -9.42,-6.891 z m 11.13,40.059 c -23.4,0 -42.23,-18.824 -42.23,-42.242 0,-23.414 18.83,-42.348 42.23,-42.348 23.42,0 42.36,18.934 42.36,42.348 0,23.418 -18.94,42.242 -42.36,42.242 z m 0,-6.996 c 19.52,0 35.36,-15.731 35.36,-35.246 0,-19.512 -15.84,-35.352 -35.36,-35.352 -19.51,0 -35.23,15.84 -35.23,35.352 0,19.515 15.72,35.246 35.23,35.246" /><path
         id="path16"
         style="fill:#0d80c8;fill-opacity:1;fill-rule:nonzero;stroke:none"
         d="m 5577.25,577.684 c 234.28,0 424.22,189.933 424.22,424.226 0,234.3 -189.94,424.22 -424.22,424.22 -234.29,0 -424.21,-189.92 -424.21,-424.22 0,-234.293 189.92,-424.226 424.21,-424.226 v 0" /><path
         id="path18"
         style="fill:#ffffff;fill-opacity:1;fill-rule:nonzero;stroke:none"
         d="m 5474.42,1303.04 c 3.44,-0.66 -1.04,-4.94 3.05,-4.56 0.68,-1.24 2.28,-1.53 3.63,-1.62 1.04,-0.77 2.94,-1.34 2.74,-2.95 2.01,-1.05 -0.26,-2.85 2.01,-3.71 2.29,0.09 2.18,-2.95 3.71,-3.9 1.43,-0.29 -0.1,-2.39 1.33,-2.01 0.29,-2.39 3.34,-4.37 0.29,-6.38 -2.19,-1.7 -3.61,-4.94 -6.85,-4.37 -0.87,-1.34 -2.76,-1.23 -4.19,-1.82 -4.28,-1.52 -7.79,-6.08 -12.56,-7.33 -2.19,-3.32 -6.38,-2.46 -8.38,-5.69 -2.85,-3.44 -7.71,-2.1 -10.27,-5.9 -2.77,-0.78 -4.67,-3.13 -6.86,-4.85 -3.14,-1.44 -6.28,-2.77 -8.95,-5.25 -1.41,-0.17 -1.8,-2.38 -3.42,-2.47 -3.79,-5.05 -10.08,-4.85 -13.52,-9.9 -6.18,-3.13 -10.66,-9.32 -16.66,-12.56 -1.33,-3.13 -4.46,-3.9 -6.37,-6.56 -2.85,-0.68 -3.81,-4.39 -6.66,-5.06 -3.05,-4.08 -6.94,-6.84 -9.99,-10.45 -2.1,-2.87 -5.04,-5.34 -7.52,-8 -1.8,-4.77 -8.47,-5.43 -9.14,-10.76 -3.62,-2.67 -6.66,-6.18 -8.75,-10.09 -1.23,0.1 -0.86,-1.41 -1.53,-2 -4.55,-5.12 -9.42,-9.04 -12.56,-15.13 -3.03,-3.61 -5.8,-6.09 -7.99,-10 -2.01,-2.45 -4.67,-5.23 -4.86,-8.26 -2.85,-2.59 -4.76,-6.29 -7.52,-8.69 0.38,-0.66 0.38,-1.59 0,-2.27 -1.9,-3.04 -3.8,-6.18 -5.91,-9.14 1.06,-2.09 -1.88,-2.57 -1.61,-4.36 -3.41,-2.39 -0.65,-7.43 -4.08,-9.82 -1.33,-1.61 -1.05,-3.89 -2.29,-5.42 0.57,-1.43 -1.04,-1.9 -1.13,-3.05 -1.26,-2.85 -2.5,-6.37 -1.63,-9.51 -2,-2.01 -0.67,-5.41 -2.96,-7.34 1.15,-6.94 -2.36,-12.35 -0.47,-18.92 -1.14,-6.01 0.19,-10.2 -0.28,-15.82 -1.52,-1.89 0.94,-3.32 1.43,-5.03 0.18,-2.37 -0.39,-4 0.47,-6.38 -0.29,-2.48 2.09,-3.89 1.99,-6.37 0.67,-0.58 0.58,-1.33 0.67,-2.1 2.2,-2.76 4,-6 6.48,-8.19 3.24,-0.09 3.81,-4.36 6.85,-4.56 1.33,-1.72 3.53,-1.33 4.95,-2.76 2.28,-0.85 4.29,-2.007 6.66,-2.472 2.95,-0.578 5.8,-1.524 8.47,-2.754 2.85,-0.387 5.53,-1.348 8.46,-1.621 10.96,-2 21.7,-1.91 32.18,-1.809 0.85,1.133 2,-0.39 2.95,0.481 3.9,0.261 7.24,1.976 11.23,1.976 2.76,-0.941 4.76,1.828 7.33,1.145 6.37,2.097 12.85,4.014 19.12,6.374 0.58,2.3 3.24,1.25 4.58,2.57 3.06,1.16 6.56,1.25 9.14,3.43 1.13,0.49 2.48,1.05 3.22,2.01 5.34,0.46 8.77,5.52 14.19,5.69 1.43,1.35 2.57,3.16 4.57,3.25 1.43,2.38 3.9,1.89 5.71,3.43 2.28,0.47 4.67,1.81 6.84,3.23 1.53,0 2.48,1.81 4.11,1.81 0.67,1.06 1.9,1.15 2.47,2 3.24,0.96 6.28,3.33 9.41,5.53 0.48,0.56 1.25,0.47 2.02,0.47 1.5,2.47 3.79,2.19 5.69,4.29 5.24,0.17 7.9,6.56 12.86,7.12 0.39,1.73 2.85,1.24 2.94,2.96 2.86,1.8 5.16,4.46 8.19,6.18 0.85,1.05 2.39,1.05 2.76,2.29 2.68,1.33 3.51,5.05 6.65,6.38 5.53,4.19 10.68,10.46 16.19,15.33 2.1,0.75 3.24,3.03 5.05,4.74 2.28,2.58 3.71,5.9 5.9,8.66 2.57,1.34 4.09,4.48 6,6.47 0.56,3.43 4.19,4.95 4.74,8.38 2.49,2.86 2.49,6.57 4.77,9.42 0.57,3.05 3.62,5.05 2.77,8.66 1.24,1.62 1.13,3.62 0.47,5.53 1.42,6.84 -0.1,13.61 -3.91,18.94 0.67,4.18 -4.48,5.61 -5.7,8.86 -2.85,1.69 -5.34,4.17 -8.66,4.84 -1.81,1.61 -4.1,2.28 -6.38,2.95 -3.15,2.56 -7.14,0.67 -10.56,2.49 -4.39,0.18 -9.05,1.81 -13.22,0.46 -2,-0.77 -4.01,0.55 -5.91,0.29 -2.19,-1.24 -4.68,1.43 -6.86,-0.48 -4.94,-0.27 -10.56,0.48 -15.32,-1.42 -0.38,0.27 -0.85,0.27 -1.14,0.76 -0.95,-1.43 -2.67,-1.04 -3.9,-1.14 -1.81,-0.29 -3.62,-1.34 -5.44,-0.96 -3.03,-1.62 -6.46,-2.39 -9.61,-3.62 -2.56,-1.51 -5.6,-2.48 -8.27,-3.05 -0.78,-1.04 -2.1,-0.66 -3.14,-1.12 -4.96,-2.87 -10.66,-3.82 -15.34,-7.53 -3.99,-1.04 -5.88,-6.2 -10.07,-6.37 -2.2,-2.77 -6,-2.29 -8,-5.23 -3.71,-3.16 -7.43,-6.11 -11.42,-8.48 -1.24,-3.05 -4.57,-3.72 -6.37,-6.38 -0.49,-0.28 -1.05,-0.39 -1.35,-0.95 -0.55,-1.42 -2.66,-2.76 -3.7,-4.29 -4.47,-4.28 -7.14,-9.22 -10.46,-13.99 0.66,-3.33 -4.11,-2.76 -3.43,-6.17 -1.8,-2.01 -3.15,-4.4 -3.24,-6.87 -0.85,-0.94 0.19,-3.51 -2,-3.41 -1.52,-1.25 -0.67,-3.81 -2.56,-4.77 -1.24,-2.1 -0.11,-4.38 -1.81,-6.37 -0.28,-1.35 -1.53,-2.29 -1.62,-3.72 -0.67,-1.04 -1.53,-1.99 -1.34,-3.43 -1.62,0 -0.66,-2.37 -0.94,-2.95 -1.06,-0.84 -1.91,-1.99 -1.81,-3.42 0.48,-0.29 0.66,-0.78 0.66,-1.32 -2.19,-0.3 0.66,-3.91 -1.52,-2.58 -0.78,0 -1.24,-0.66 -2.11,-0.38 -0.08,2.18 1.25,4.86 -0.16,6.56 1.23,0.67 1.11,2.29 1.78,3.43 -0.18,0.66 -1.03,1.33 -1.62,0.66 -0.27,-0.57 -1.03,-1.14 -0.16,-1.8 0,-0.67 -0.98,-1.53 -1.44,-2.29 -0.1,-0.76 0.57,-1.42 -0.2,-1.99 0,-0.48 -0.66,-0.19 -0.95,-0.29 -1.14,0.86 -1.71,2.19 -1.14,3.42 0.57,1.43 -0.09,3.06 0.66,4.57 -0.37,0.57 -1.03,0.96 -1.51,0.48 -1.16,-1.32 -0.58,-3.33 -1.44,-4.77 0.2,-1.12 0.67,-3.03 -0.46,-3.89 -0.86,0.29 -2.11,0.48 -2.48,1.62 0.86,0.76 -0.2,1.52 0.48,2.47 3.42,1.53 0.55,3.91 2.46,5.9 -1.62,3.72 1.15,7.04 1.15,10.28 -0.29,0.28 -0.48,0.67 -0.87,0.47 -2.19,-2.46 -1.51,-6.47 -4.38,-8.19 0.1,-1.03 0.2,-2.26 1.16,-2.75 -0.67,-0.28 -1.06,-1.23 -1.63,-1.62 -3.89,-1.43 -1.62,3.24 -2.28,4.57 2.19,1.05 -0.46,3.23 1.43,4.38 0.38,4.96 1.81,8.75 2.28,13.7 1.52,0.67 -0.27,2 0.68,2.96 0.29,2.46 2.94,3.98 2.29,6.85 3.8,5.23 3.23,12.47 8.46,16.94 0.47,2 1.99,3.52 1.99,5.72 3.62,4.94 7.43,9.79 10.1,15.21 2.18,3.44 5.43,6.67 7.32,10.1 5.14,2.28 5.52,8.37 10.94,10.47 4.77,3.99 9.13,10.18 15.04,12.84 1.15,1.24 2.29,2.19 3.91,2.28 5.61,5.25 12.07,8.2 18.75,10.95 1.99,1.62 4.37,2.47 6.84,3.23 3.25,2.3 6.86,3.72 10.75,4.29 3.82,3.42 9.73,1.91 14.1,3.91 3.04,1.03 7.03,-0.29 9.89,1.14 4.1,1.23 9.33,1.61 13.71,0.48 8.28,-0.11 16.27,-0.29 23.5,-3.43 2.87,0.28 5.44,-1.43 8.48,-1.62 3.61,-3.04 8.66,-2.76 12.27,-5.9 4.2,-0.86 7.71,-3.24 11.71,-4.58 2.68,-3.32 6.28,-5.69 9.81,-7.62 1.32,-1.71 3.12,-3.03 3.9,-5.21 1.99,-2.11 4.47,-3.15 4.95,-6.19 2.67,-2.96 3.8,-6.57 6.47,-9.53 0.28,-4.18 4.27,-6.85 4.75,-11.23 0.1,-2.75 3.34,-4.38 2.48,-7.5 1.99,-3.34 1.91,-7.53 2.27,-11.43 2.2,-2.29 -0.18,-5.14 0.49,-7.52 -1.14,-1.62 0.39,-3.42 -0.49,-5.04 -1.13,-3.35 -0.36,-8 -1.99,-11.43 -0.28,-2 -1.43,-3.43 -1.43,-5.52 0.49,-1.81 -1.61,-2.86 -0.85,-4.57 -2.57,-1.33 -0.76,-3.61 -2.57,-5.22 0.47,-4.67 -4.28,-7.24 -4.28,-11.62 -0.95,-0.85 -1.23,-2.01 -1.44,-3.24 -1.12,-3.05 -3.79,-5.53 -5.23,-8.46 -2.27,-3.05 -4.47,-6.38 -6.56,-9.34 -4,-3.42 -5.06,-8.18 -9.9,-10.93 -4.38,-4.49 -7.71,-8.57 -12.28,-12.57 -1.52,-2 -3.42,-3.71 -5.72,-4.56 -1.71,-4.19 -5.8,-4.19 -8.46,-7.62 -1.33,-0.1 -1.51,-1.82 -2.75,-2.28 -3.72,-0.58 -4,-5.52 -7.72,-5.43 -0.19,-1.23 -1.32,-1.62 -2.28,-2.11 -2.38,0 -3.8,-2.56 -5.52,-3.61 -5.25,-2.56 -10.19,-5.8 -15.32,-8.64 -4.01,-3.629 -9.24,-4.004 -13.24,-7.629 -2,-1.515 -4.46,-2.758 -6.85,-3.801 -5.14,-0.664 -8.74,-4.855 -13.9,-5.527 -1.8,-0.566 -3.42,-1.621 -5.32,-1.805 -0.66,-1.238 -2.28,-0.378 -2.95,-1.613 -2.18,-0.39 -2.85,-0.769 -4.75,-1.629 -3.24,-0.281 -5.42,-3.129 -8.96,-2.937 -1.61,-1.242 -3.7,-1.43 -5.71,-1.821 -1.41,-1.238 -3.71,-1.418 -5.42,-2.285 -1.61,0.379 -3.05,0.207 -4.58,-0.664 -2.94,0.664 -4.75,-1.336 -7.31,-1.422 -1.53,-0.484 -3.05,-0.859 -4.57,-1.332 -1.82,0.274 -3.22,-1.531 -4.86,-0.48 -1.81,-0.66 -4.39,-1.527 -6.57,-1.149 -2.27,0.68 -4.57,-0.179 -6.84,-0.179 -2.78,-0.766 -5.43,-0.575 -8.01,0.179 -1.52,-0.179 -4.28,1.629 -5.51,-0.656 -5.14,0.278 -9.14,1.145 -14.19,1.805 -2.66,1.242 -5.69,2.48 -8.84,1.812 -0.58,1.325 -1.73,0.379 -2.28,0 -2.01,0.086 -3.15,2.559 -5.52,1.618 -2.2,1.8 -5.43,1.222 -8,2.285 -2.48,0.761 -5.04,1.898 -7.04,3.422 -1.81,-0.668 -2.67,1.039 -4.39,0.953 -1.9,1.238 -3.43,3.144 -5.89,2.953 -4.67,2.867 -8.94,7.137 -13.7,9.324 -6.95,4.57 -13.42,11.148 -18.57,17.608 -1.14,2.85 -5.23,2.76 -5.23,6.19 -4.19,4.26 -5.33,10.08 -9.81,14.17 0.09,1.43 -0.94,2.56 -0.94,4.09 -0.19,2.95 -3.43,5.23 -2.28,8.2 -1.25,2.85 -1.15,6.27 -1.8,9.42 -0.59,5.04 0.26,9.22 -0.69,13.89 -0.75,1.71 0.69,3.62 0.2,5.53 1.14,2.85 -0.95,5.32 0,8.18 -0.39,3.8 1.62,6.94 1.89,10.27 0.59,5.33 2.3,10.28 3.16,15.51 1.99,3.15 0.84,7.62 2.76,10.75 0.47,1.91 1.81,3.53 2.27,5.54 2.58,2.56 2.38,6.28 4.38,9.13 0,0.19 0,0.38 0,0.66 3.33,5.89 5.42,12.38 10,17.81 0.86,3.42 3.7,5.88 4.56,9.32 4,6.38 8.57,12.47 12.56,18.75 4,5.23 7.99,10.29 12.86,15.13 0.95,3.24 4.95,4.38 6.56,7.24 0.19,0 0.29,0 0.49,0 3.22,5.33 8.36,8.07 11.4,13.49 11.52,11.06 22.37,22.47 34.27,32.95 1.91,0.27 2.48,2.47 3.43,3.8 4.37,3.81 9.89,5.15 13.51,10.28 4.28,3.14 7.99,7.71 12.27,10.77 2.57,-0.48 1.82,2.94 3.91,2.94 0.39,2.47 3.06,1.33 4.1,3.04 3.79,1.06 6.38,5.24 10.27,6.11 2.95,1.41 3.43,4.54 6.38,5.98 2.28,2.86 6.29,1.62 8.76,4.28 1.42,-0.48 1.24,1.43 2.47,1.61 4.48,0.67 6.75,5.06 11.23,6.01 3.13,1.81 7.24,1.32 9.52,5.43 2.37,0.19 4,2.18 6.18,2.75 2.38,-1.72 6.08,-0.86 7.51,-3.62 v 0" /><path
         id="path20"
         style="fill:#ffffff;fill-opacity:1;fill-rule:nonzero;stroke:none"
         d="m 5779.64,1216.62 c 4.29,-0.37 9.63,0 13.91,-1.13 2.38,0.96 3.42,-1.54 5.51,-1.34 1.06,-2.37 3.43,-0.28 5.06,-0.95 2.65,-0.66 5.12,-2.38 7.98,-1.99 4.19,-2.95 9.51,-3.26 13.42,-6.85 2.57,-1.06 4.66,-2.39 6.66,-4.1 4.37,-0.85 5.91,-5.63 10.28,-6.67 2.86,-4.66 8.76,-4.46 10.94,-9.8 3.52,-4.67 8.67,-8.18 11.43,-13.52 0.66,-1.61 1.43,-3.61 3.42,-4.08 2.29,-2.67 2.38,-6.19 3.91,-9.14 -0.39,-1.52 1.72,-1.89 1.8,-3.24 0.56,-3.42 1.34,-6.94 2.96,-9.99 1.33,-6.66 2.95,-13.23 3.89,-20.08 0.87,-1.44 0.29,-4.28 0.48,-5.99 -0.57,-1.15 -0.57,-2.57 0.48,-3.62 0,-2.38 0,-4.67 -0.96,-6.67 1.71,-1.24 -0.67,-3.33 1.14,-4.57 -1.33,-2.57 -1.14,-6 -2.08,-8.47 1.33,-3.7 -3.44,-6.27 -2.28,-10.28 -0.78,-1.13 -0.18,-3.12 -1.82,-3.8 -0.28,-3.05 -1.25,-5.71 -1.81,-8.48 -1.43,-1.51 -1.12,-3.71 -1.8,-5.51 -1.04,-3.14 -3.63,-5.71 -4.57,-8.85 0.57,-2 -2.01,-2.67 -2.58,-4.18 -0.46,-1.43 -1.8,-2.59 -1.53,-4.29 -1.5,-1.24 -3.32,-2.67 -3.41,-4.56 -2.38,-4.38 -5.43,-7.81 -7.99,-12.09 -2.77,-2.38 -4.67,-5.24 -6.48,-7.81 -3.7,-2.68 -4.67,-7.61 -8.66,-9.8 -1.72,-4.29 -6.47,-4.38 -8.17,-8.67 -0.68,-1.53 -2.88,-0.38 -2.96,-2.28 -2.58,-3.41 -6.95,-4.562 -9.42,-7.804 -1.91,-0.196 -3.05,-3.891 -4.77,-2.754 -0.94,-2.559 -4.26,-2.293 -5.98,-4.574 -0.67,-1.043 -1.92,0.57 -2.28,-1.126 -0.87,0 -1.74,-0.589 -2,-1.347 -3.63,-1.617 -7.25,-3.039 -10.77,-5.055 -2.38,0.402 -3.61,-1.515 -5.89,-1.805 -2.2,-1.714 -4.86,-2.269 -7.14,-3.886 -2.29,0.082 -3.34,-1.336 -5.23,-2.289 -2.87,0.468 -5.24,-1.61 -8.01,-2.098 -4.37,-1.238 -8.76,-2.941 -13.22,-3.418 -2.95,-1.434 -7.24,-0.961 -10.28,-2.668 -3.14,1.141 -6.01,-1.148 -9.43,-0.773 -2.2,-0.754 -4.85,-1.235 -7.05,-1.328 -2.46,-0.196 -4.75,0.375 -7.5,0.679 -2.1,-1.715 -5.25,-0.762 -7.81,-0.484 -4.28,-0.574 -8.85,1.133 -13.43,1.133 -4.26,0.675 -8.37,-0.469 -11.89,1.914 -2.85,-1.914 -4.86,2.004 -7.79,0.668 -0.67,1.336 -2.47,0.383 -2.96,1.808 -3.8,1.043 -8.19,0.375 -11.23,3.422 -3.71,0.195 -6.67,2.192 -9.99,3.434 -2.1,2.461 -5.23,4 -8.28,5.23 -1.81,3.235 -6,4.457 -7.71,7.504 -0.65,1.629 -2.28,0.586 -2.95,1.918 0.19,3.434 -4.48,3.906 -5.05,6.859 -2.76,2.278 -2.95,6.07 -5.51,8.64 -2.47,4.28 -4.37,8.86 -6.19,13.43 -2.29,4.56 -2,10.57 -2.96,15.33 -1.62,3.51 2,5.41 1.43,8.65 0.29,4 0.86,7.7 3.81,10.57 1.44,4.19 3.34,8.36 7.15,11.43 0.29,2.27 3.89,0.83 4.56,3.6 0.66,0.19 1.24,0.67 2,0.48 0.47,-0.57 1.14,-1.52 0.28,-2.09 -3.62,-0.67 -1.32,-4.86 -4.57,-5.9 -0.18,-0.77 -0.66,-1.61 -0.46,-2.29 2.19,0.76 2.37,3.06 4.56,4.09 0.19,2.86 4.47,2.11 3.61,5.23 2.85,-0.28 5.7,3.05 7.32,5.35 1.72,1.04 3.53,2.55 6.01,2.27 0.38,-1.33 0.1,-2.27 0.18,-3.42 -2.09,-1.43 -4.37,0.95 -5.22,-2.3 0,-1.42 -1.91,-1.9 -1.81,-3.41 -1.33,-0.58 -2.19,-1.53 -2.77,-2.77 0.29,-0.85 1.14,-0.28 1.81,-0.47 1.99,1.63 3.81,4.67 6.19,5.9 4.29,-1.03 4.57,5.61 8.66,4.37 0.76,1.44 2.19,0.2 3.22,0 0.97,-1.32 -1.12,-1.23 -1.6,-1.81 -0.68,0.2 -0.95,-0.37 -1.43,-0.66 0.57,-0.95 -0.29,-3.05 1.62,-1.9 0.1,0.29 0.47,0.29 0.66,0.29 0.09,-0.48 0.67,-0.77 0.96,-1.15 -2.94,-0.66 -1.91,-4.48 -4.58,-4.85 -1.14,-0.95 -3.04,-2.1 -2.94,-3.82 0.29,-0.46 0.75,-0.56 1.14,-0.26 1.05,3.13 3.06,-1.35 4.28,1.61 0.77,3.05 3.62,0.67 5.34,1.33 0,-0.56 0.86,-0.66 0.66,-1.33 -1.8,-1.35 -3.71,-3.23 -6,-2.76 -0.66,-1.91 -3.14,-2.76 -4.1,-4.29 -3.23,-4.09 -7.31,-7.6 -10.45,-11.9 -1.82,-2.27 -3.34,-4.77 -3.91,-7.51 -2.66,-0.96 -0.49,-3.42 -2.1,-5.04 -0.28,-4.19 -3.05,-7.73 -1.99,-12.09 0.18,-2.96 1.22,-5.62 1.99,-8.28 0.77,-1.63 1.43,-3.04 1.9,-4.76 2.11,-2.47 3.24,-6.756 7.06,-7.131 3.23,-2.664 7.14,-3.722 10.46,-6.093 4.48,0.652 7.04,-3.528 11.43,-2.09 2.19,-0.387 4.56,-0.11 6.46,-1.34 6.47,0.852 13.43,-0.668 19.79,-0.274 4.1,2.934 8.47,-0.968 12.57,1.614 2.57,-0.196 4.56,1.136 7.13,1.136 1.82,1.043 4.3,0.563 6.19,1.606 2.76,-0.359 5.05,2.289 7.53,0.68 0.27,1.804 2.28,0.375 3.13,1.14 3.25,1.34 6.85,1.614 10.29,2.477 2.28,1.894 6.08,0.949 8.26,3.414 2.2,0.571 3.73,2.761 6.2,2.581 1.71,1.23 4.56,1.13 5.7,2.76 4.58,2.56 8.56,6.38 13.72,7.69 4.94,3.43 10.28,5.93 14.85,10.29 1.13,0 1.52,0.95 2.27,1.81 6.67,4.57 11.82,10 18,15.6 1.23,1.81 2.67,4.59 5.03,4.96 4.19,4.48 8.66,8.37 12.38,12.84 0,2.59 3.6,3.14 3.79,5.71 4.4,3.91 7.25,9.34 9.91,14.38 2.29,0.95 2.01,3.33 2.95,5.04 4.67,4.19 4.47,10.47 8.19,15.04 0.95,4.56 3.14,8.67 3.71,13.51 1.71,2.77 2.19,6.09 2.29,9.61 1.24,2.09 0.29,4.39 0.85,6.86 0.86,5.42 1.43,11.78 -0.47,16.65 1.04,5.24 -3.42,8.85 -4.11,13.7 -1.04,1.53 -1.98,3.06 -3.41,4.29 -1.43,5.33 -7.43,6 -10.29,10.55 -3.03,0.77 -5.61,2.87 -8.65,3.64 -2.47,0.94 -5.14,1.71 -7.51,2.94 -1.61,0.86 -3.54,1.13 -5.23,1.62 -0.58,1.71 -2.12,0 -3.06,1.44 -1.71,-0.21 -3.23,0.09 -4.76,0.65 -7.03,0 -14.76,2 -22.17,0 -2.19,0.57 -4.57,-1.23 -6.57,-0.28 -0.38,-0.66 -1.14,-1.44 -2.1,-1.14 -1.24,1.32 -2.94,-0.48 -4.57,-0.18 -0.28,0.55 -0.85,0.45 -1.32,0.45 -1.04,-2.28 -3.24,-0.37 -4.87,-1.6 -2.28,-0.68 -5.32,-0.39 -7.03,-2.11 -1.34,-0.37 -2.86,0 -3.9,-1.14 -2.78,0.67 -5.33,-1.79 -8.01,-0.65 -2.18,-1.44 -4.74,-1.72 -7.04,-2.96 -2.85,-1.14 -6.26,-1.25 -8.46,-3.22 -1.53,-0.12 -2.47,-1.53 -4.09,-1.35 -2.01,-1.23 -4,-2.37 -6.47,-2.48 -1.71,0 -1.91,-3.61 -4.09,-2.28 -2.67,-1.14 -5.16,-3.05 -8.2,-3.24 -0.28,-1.04 -1.43,-1.13 -2.27,-1.33 -2.11,-1.62 -4.67,-1.81 -6.39,-4.18 -2.27,-0.87 -4.84,-1.81 -6.66,-3.44 -1.23,-0.46 -2.56,-0.65 -3.62,-1.51 -0.46,0.39 -1.03,-0.56 -1.15,-0.95 0.2,-1.06 -1.03,-0.48 -1.4,-1.15 -4.2,-3.41 -9.15,-5.89 -12.76,-9.62 -2.47,0.97 -1.44,-2.27 -3.44,-2.27 -2.27,-3.43 -6.55,-4.18 -9.41,-7.33 -6.94,-4.85 -12.37,-11.8 -19.14,-17.14 -0.57,0 -1.04,-0.17 -1.42,-0.66 0,-2.85 -2.95,-4.18 -4.76,-6.19 -2.38,-1.52 -2.47,-4.95 -5.23,-5.89 -2.1,-1.33 -2.39,-3.72 -4.38,-5.24 0.47,-3.14 -3.14,-3.8 -4.75,-5.72 -2.39,1.25 -5.05,-2.64 -6.68,0.68 -1.71,-0.28 -2.18,1.24 -3.14,2.28 0.29,1.53 0.57,3.81 -1.14,4.57 -2.1,-0.19 -3.8,1.81 -5.98,2.1 -3.72,4.27 -3.91,10.56 -5.06,16.18 -0.95,2.84 1.72,4.09 2.11,6.65 1.8,2.38 4.18,4.85 6.17,7.05 0.77,0.37 0.57,1.23 0.86,1.8 4.87,6 10.93,9.71 15.61,15.81 1.53,2 4.57,2.28 4.95,5.04 3.52,1.14 4.56,6.2 8.47,6.85 3.91,2.97 7.73,5.71 11.72,9.13 4.93,6.01 12.16,7.72 17.79,13.71 3.63,1.8 6.75,5.04 10.76,6.09 5.31,6.66 13.68,7.7 20.73,11.23 3.24,2.67 6.95,3.81 10.48,5.52 2.56,1.05 5.32,1.52 7.97,2.3 1.74,0.57 3.45,1.05 5.08,1.8 2.36,0 4.55,0.66 6.37,1.99 6.46,1.25 12.26,4.29 18.55,5.06 0.48,0.28 1.04,0.45 1.61,0.66 5.05,-0.47 10.19,0.86 15.03,0.96 3.06,0.66 6.11,0.75 8.95,-0.48 0.97,0.28 2.01,0.48 2.95,0.65 v 0" /><path
         id="path22"
         style="fill:#ffffff;fill-opacity:1;fill-rule:nonzero;stroke:none"
         d="m 5638.89,1072.72 c -1.15,-0.37 -0.39,-1.8 -1.52,-1.98 -1.05,-0.31 -2.19,0.84 -2.76,-0.49 -0.29,-0.37 0.57,-0.66 0,-0.95 -1.52,0.75 -1.52,2.56 -0.49,3.72 1.34,0.77 2.97,2.28 4.38,1.32 0.11,-0.47 0.59,-0.84 0.39,-1.62 v 0" /><path
         id="path24"
         style="fill:#ffffff;fill-opacity:1;fill-rule:nonzero;stroke:none"
         d="m 5547.14,983.453 c 2.01,-1.336 3.14,-4.851 5.72,-3.609 1.22,-0.578 2.85,-0.578 3.81,-1.914 3.33,-0.289 4.27,-4.575 7.97,-3.614 0.39,-2.199 2.28,-3.898 1.92,-6.371 1.23,-0.383 2.1,-1.808 2.48,-2.949 1.51,-1.422 -0.96,-2.769 -0.49,-4.566 -2.38,-2.77 -5.99,-4.59 -8.17,-7.332 -1.72,0.281 -1.06,-2.2 -2.77,-1.809 -2.66,-3.617 -7.13,-3.137 -9.33,-7.141 -5.14,-3.421 -8.93,-8.468 -14.19,-11.605 -0.65,-1.523 -2.08,-2.191 -2.95,-3.727 -6.45,-5.605 -14.16,-11.98 -20.83,-17.504 -2.09,0 -1.34,-3.042 -3.62,-3.238 -0.09,-1.613 -2.38,-0.461 -2.09,-2.269 -1.81,-1.532 -3.62,-3.243 -5.22,-5.25 -5.15,-4.563 -9.34,-9.516 -14.38,-14.653 0.19,-0.953 -1.16,-0.761 -1.16,-1.625 -1.23,-0.664 -1.23,-2.379 -2.93,-2.281 -0.47,-1.797 -3.05,-2.09 -3.25,-4.078 -0.66,-1.152 -2.36,-0.586 -2.28,-2.293 -3.52,-1.902 -3.03,-6.758 -6.84,-7.988 -3.43,-3.532 -5.82,-7.328 -9.62,-10.949 0.19,-1.051 -1.05,-1.446 -1.33,-2.278 -2.21,0 -1.24,-3.242 -3.43,-3.625 0,-2.191 -2.09,-2.965 -3.24,-4.394 -0.86,-1.414 -2.28,-3.133 -3.62,-4.371 -1.04,-2.469 -3.81,-4.368 -3.91,-7.235 -2.46,-2.847 -5.7,-5.687 -6.37,-9.418 -2.47,-3.711 -3.61,-8.277 -6.66,-11.601 -0.94,-3.145 -3.6,-5.711 -3.6,-8.954 -1.62,-1.425 -0.96,-3.804 -2.78,-5.238 0.49,-1.035 -0.65,-2.086 -1.32,-2.738 0.18,-2.008 -1.34,-2.867 -1.43,-4.766 -0.76,-2.679 -1.04,-5.437 -3.13,-7.523 1.42,-1.617 -1.34,-2.852 -0.49,-4.383 -1.72,-0.945 -1.04,-3.144 -1.81,-4.566 1.06,-1.043 -1.24,-2.461 0.2,-3.621 -0.95,-3.711 -1.81,-7.895 -0.49,-11.895 -0.37,-3.242 -0.46,-6.84 1.84,-9.418 -1.17,-2.379 1.21,-4.379 1.4,-6.855 0.29,-0.954 1.16,-1.809 1.81,-2.657 -1.32,-1.718 1.42,-2.199 1.15,-3.714 1.62,-1.438 2.56,-3.918 4.75,-4.278 0.19,-1.25 1.52,-1.336 1.44,-2.586 3.32,-1.418 5.31,-4.758 8.65,-5.414 0.96,-0.848 2.09,-1.625 3.43,-1.625 2.19,-2.269 5.61,-2.383 8.66,-2.758 3.89,-1.808 7.99,-3.14 12.37,-3.914 0.76,0.774 2.29,0.586 3.14,0.293 2.09,-1.691 5.14,0.395 7.14,-0.941 1.14,-0.199 3.24,0.473 4.28,-0.668 1.9,0.371 3.7,1.039 5.71,1.141 2.67,0.175 5.14,-1.336 7.61,-0.473 4.37,0.371 8.2,1.043 12.09,2.09 1.62,-0.379 2.86,0.664 4.08,-0.477 2.39,0.57 5.16,1.629 7.54,0.863 2.56,1.141 5.33,-0.293 7.99,0.469 3.23,0.863 6.94,1.817 9.8,2.106 2.58,-0.782 4.57,2.269 7.14,0.843 4.09,0.766 8.19,2.289 12.28,2.289 0.67,0.575 1.62,1.04 2.28,0.473 1.14,-0.559 1.82,1.238 3.05,1.137 2.29,1.433 5.9,-0.465 7.7,2.094 1.16,0.203 2.86,-1.145 3.44,0.664 2.27,0.488 4.65,0.773 6.84,1.629 4,0.281 7.99,1.996 11.9,2.96 3.04,1.899 7.05,2.45 10.47,2.739 2.86,2.578 6.77,2.383 9.9,4.097 1.51,1.516 4.29,0.668 5.42,2.473 1.9,1.25 4.28,-0.566 5.71,1.617 3.05,0.567 5.82,2.102 7.99,4.086 2.18,0.395 4.86,0 6.01,2.297 0.94,0.473 1.14,-1.234 2.28,-0.664 2.3,1.527 4.66,4.566 7.99,3.699 0.09,-0.668 -1.7,-1.898 -0.48,-3.035 -0.56,-1.812 -2.57,0 -3.22,-1.519 -2.86,0.375 -3.82,-2.762 -6.2,-3.422 -0.37,0.086 -0.58,-0.309 -0.85,-0.481 0,-0.574 0.19,-1.058 0.66,-1.433 1.25,1.336 3.62,0.3 4.09,2.289 3.42,-0.571 4.86,2.269 7.34,3.422 2.09,1.144 4.38,4.011 7.04,2.57 0,-1.047 -0.38,-2.383 -1.52,-2.57 -1.06,-0.09 -0.57,-1.153 -1.14,-1.528 1.23,-2.656 3.13,1.528 4.74,-0.762 1.45,2.852 6.39,-0.097 6.2,4.184 1.13,1.434 3.05,1.91 4.76,1.34 0.85,-0.371 2.01,-1.051 2.27,-1.809 -2.66,-1.238 -3.02,-5.222 -6.55,-4.383 -0.77,-1.226 -2.2,-1.148 -2.75,-2.281 0.84,-1.426 1.23,0.387 1.98,-1.133 2.29,-1.05 4,3.137 5.52,0 0.77,-0.097 1.54,0.563 2.09,-0.195 0.09,-2.371 -2.76,-1.902 -3.41,-3.711 -1.15,0 -2.19,-0.57 -2.78,-1.324 -0.76,-3.348 -4.65,-1.824 -6.19,-4.758 0.58,-1.152 1.54,-1.816 2.79,-1.152 1.41,3.137 5.11,-0.664 5.88,3.137 0.95,0.293 2.3,0 3.24,-0.465 -0.94,-1.239 0.18,-4.285 -2.29,-3.817 -1.13,-1.234 -3.43,-0.468 -3.9,-2.273 3.05,-0.774 -1.04,-0.488 -1.34,-1.149 -1.9,-2.379 -5.61,-1.718 -7.13,-4.855 -1.24,0.094 -1.81,-1.609 -3.13,-1.32 -4.94,-3.157 -10.38,-4.965 -15.14,-8.473 -1.33,-1.059 -3.42,-0.289 -4.57,-1.809 -1.03,0.078 -0.84,-1.238 -1.81,-1.433 -3.32,-1.723 -7.23,-2.285 -10.75,-3.617 -0.28,-0.575 -1.04,-1.614 -1.82,-0.95 0.11,-1.609 -1.99,-0.664 -2.74,-1.527 -2.58,-1.047 -4.86,-0.57 -7.06,-2.285 -3.9,-0.375 -6.84,-2.852 -10.74,-3.227 -3.24,-1.718 -7.34,-1.257 -10.49,-3.238 -1.42,0.652 -2.84,-0.098 -3.88,-1.145 -4.01,-0.957 -8.96,0.282 -12.39,-1.992 -3.89,-0.968 -7.32,-0.586 -11.12,-1.629 -1.61,-0.562 -4.08,0.379 -5.52,-1.136 -1.72,-1.243 -3.9,0.574 -5.52,-0.477 -4.19,0.938 -8.29,-0.566 -12.76,-1.14 -0.56,0.671 -1.62,0.75 -2.28,0.472 -1.25,-0.668 -3.05,0.199 -4.57,0.199 -2.49,-0.867 -6.37,-0.297 -9.14,-0.394 -1.91,-1.805 -3.99,-0.57 -6.19,-0.277 -3.42,0.183 -7.5,-1.43 -10.28,0.472 -1.62,-0.765 -3.04,-0.472 -4.74,-0.195 -4.57,0.57 -9.16,2.383 -14.2,2.476 -0.75,0.946 -2.26,0.102 -3.23,0.661 -3.62,1.898 -8.18,1.82 -11.81,3.714 -7.23,0.848 -12.84,5.43 -19.88,6.579 -3.24,1.132 -6.09,3.144 -8.67,5.234 -1.32,2.277 -5.05,0.664 -5.98,3.422 -3.43,2.285 -6.57,5.328 -10.28,6.84 -1.91,2.578 -4.28,5.136 -6.85,6.683 -2.1,3.602 -6.19,6.555 -7.05,10.742 -0.86,2.184 -3.99,3.418 -3.91,5.895 -2.95,4.957 -5.53,9.996 -6.18,15.805 -2.57,3.136 -0.48,7.422 -2.75,10.757 0.56,1.993 -1.91,3.227 -0.39,4.95 -0.19,2.179 0.29,4.574 0.39,6.851 -0.39,0.289 -0.39,0.664 -0.67,0.946 -0.56,4.562 1.23,9.238 0.28,13.703 -0.09,3.718 2.85,6.484 1.82,10.289 1.14,1.328 0.36,3.597 1.6,5.043 1.25,3.898 0.96,8.465 3.44,11.886 0.38,2.661 1.61,5.145 1.81,8.004 1.04,2.278 1.8,4.66 3.42,6.84 -0.95,2.574 2.48,4.098 2.48,6.57 0.65,-0.281 1.23,0.477 1.43,0.957 0.47,1.34 1.51,2.579 2.27,3.899 0.86,3.426 4.85,5.918 4.1,9.809 3.61,4.468 7.32,8.75 9.33,14.179 2.56,1.332 2.94,4.188 5.23,5.707 0.29,1.727 1.99,2.867 3.05,4.293 2.84,3.137 4.85,7.223 7.71,10.274 1.71,4.371 6.85,6.465 9.13,10.754 4.37,3.605 6.27,9.695 11.22,12.367 2.57,2.293 3.9,4.957 6.59,7.519 1.7,2.196 3.6,4.672 5.98,6.188 3.81,3.894 6.57,8.574 10.75,12.273 0.2,1.727 2.01,2.289 3.43,2.766 2.95,2.672 5.82,5.812 9.32,7.324 1.34,1.145 1.34,3.527 3.24,3.906 -0.17,0.285 0.38,0.285 0.21,0.664 2.37,1.426 4.85,2.286 6.37,5.043 3.9,1.719 5.23,6.563 9.41,7.993 1.82,1.914 5.15,2.281 6.57,4.765 2.18,2.098 4.76,5.238 8,5.715 2.28,1.719 4.36,4.652 7.13,5.512 1.15,-1.145 2.38,0.113 3.81,-0.278 1.53,1.805 3.91,0 5.71,0 0.2,0.391 0.58,0.102 0.76,0.469 v 0" /><path
         id="path26"
         style="fill:#ffffff;fill-opacity:1;fill-rule:nonzero;stroke:none"
         d="m 5486.61,944.629 c -0.29,-0.102 -0.76,0.289 -0.29,0.469 0.1,-0.086 0.29,-0.293 0.29,-0.469 v 0" /><path
         id="path28"
         style="fill:#231f20;fill-opacity:1;fill-rule:nonzero;stroke:none"
         d="M 0,962.188 H 280.465 V 731.211 c 54.07,20.383 109.945,30.652 167.68,30.652 113.582,-0.945 205.578,-36.828 276,-107.707 71.769,-70.914 108.144,-162.91 109.058,-276.035 0,-88.609 -29.465,-170.187 -88.269,-244.707 C 684.289,54.375 588.652,13.9102 457.988,12.1055 H 0 Z M 280.465,255.277 c 37.652,-6.422 69.961,-9.597 96.769,-9.597 54.161,0 96.528,13.019 127.149,39.125 31.055,24.636 47.074,58.5 48.051,101.445 0,43.008 -14.856,77.551 -44.504,103.582 -31.118,24.699 -71.614,37.508 -121.528,38.453 -32.945,0 -68.285,-5.746 -105.937,-17.176 V 255.277" /><path
         id="path30"
         style="fill:#231f20;fill-opacity:1;fill-rule:nonzero;stroke:none"
         d="m 870.73,380.902 c -0.921,99.457 33.375,186.934 102.973,262.368 68.197,77.214 176.757,116.73 325.727,118.593 154.36,-2.754 264.95,-43.89 331.82,-123.39 65.53,-76.746 97.87,-162.61 96.96,-257.571 0,-101.781 -34.55,-189.226 -103.66,-262.379 C 1554.54,41.293 1447.07,1.77344 1302.13,0 1149.58,2.68359 1039.21,44.0117 970.984,124 903.223,201.207 869.809,286.879 870.73,380.902 Z m 280.5,0 c 0,-42.394 13.78,-76.539 41.41,-102.496 26.66,-26.886 62.23,-40.304 106.68,-40.304 44.92,0 80.71,13.418 107.4,40.304 27.14,25.957 40.71,60.102 40.71,102.496 0,42.793 -13.57,77.18 -40.71,103.157 -26.69,26.437 -62.48,39.648 -107.4,39.648 -44.45,0 -80.02,-13.211 -106.68,-39.648 -27.63,-25.977 -41.41,-60.364 -41.41,-103.157" /><path
         id="path32"
         style="fill:#231f20;fill-opacity:1;fill-rule:nonzero;stroke:none"
         d="m 1763.53,12.1055 h 280.469 v 950.082 H 1763.53 Z" /><path
         id="path34"
         style="fill:#231f20;fill-opacity:1;fill-rule:nonzero;stroke:none"
         d="m 2261.82,341.469 c 47.44,-0.914 86.5,-17.051 117.25,-48.414 30.7,-31.817 46.49,-72.442 47.38,-121.953 -0.89,-48.176 -16.68,-88.1528 -47.38,-119.934 C 2348.32,18.0664 2309.26,1.00781 2261.82,0.117188 2214.81,1.00781 2176.24,18.0664 2145.93,51.168 c -33.32,31.7812 -50.01,71.758 -50.01,119.934 0,49.511 16.69,90.136 50.06,121.953 30.26,31.363 68.9,47.5 115.84,48.414" /><path
         id="path36"
         style="fill:#231f20;fill-opacity:1;fill-rule:nonzero;stroke:none"
         d="M 3071.42,45.4766 C 2987.92,14.2422 2912.3,-0.945312 2844.63,0 c -120.4,0.859375 -217.51,36.0625 -291.28,105.574 -74.71,69.074 -112.49,159.238 -113.38,270.559 0,96.738 31.86,184.187 95.58,262.34 64.16,79.5 164.57,120.636 301.23,123.39 78.21,0 154.69,-12.808 229.39,-38.457 V 478.035 c -60.28,30.442 -119.67,45.672 -178.14,45.672 -50.59,0 -90.84,-13.211 -120.73,-39.648 -31.24,-25.977 -46.83,-60.797 -46.83,-104.567 0,-43.281 16.69,-76.933 50.13,-101.086 31.18,-26.886 72.99,-40.304 125.32,-40.304 47.06,-0.914 105.57,14.242 175.5,45.39 V 45.4766" /><path
         id="path38"
         style="fill:#231f20;fill-opacity:1;fill-rule:nonzero;stroke:none"
         d="m 3121.76,380.902 c -0.92,99.457 33.38,186.934 102.94,262.368 68.22,77.214 176.83,116.73 325.8,118.593 154.32,-2.754 264.9,-43.89 331.81,-123.39 65.53,-76.746 97.85,-162.61 96.92,-257.571 0,-101.781 -34.53,-189.226 -103.61,-262.379 C 3805.63,41.293 3698.16,1.77344 3553.21,0 c -152.58,2.68359 -262.98,44.0117 -331.17,124 -67.77,77.207 -101.2,162.879 -100.28,256.902 z m 280.47,0 c 0,-42.394 13.81,-76.539 41.47,-102.496 26.62,-26.886 62.19,-40.304 106.64,-40.304 44.94,0 80.76,13.418 107.44,40.304 27.11,25.957 40.68,60.102 40.68,102.496 0,42.793 -13.57,77.18 -40.68,103.157 -26.68,26.437 -62.5,39.648 -107.44,39.648 -44.45,0 -80.02,-13.211 -106.64,-39.648 -27.66,-25.977 -41.47,-60.364 -41.47,-103.157" /><path
         id="path40"
         style="fill:#231f20;fill-opacity:1;fill-rule:nonzero;stroke:none"
         d="m 4026.96,748.355 h 280.77 v -96.832 c 66.52,73.602 143.91,110.465 232.48,110.465 98.54,0.91 173.06,-42.793 223.43,-131.004 76.17,86.438 164.45,130.114 264.82,131.004 81.31,-0.89 140.42,-28.429 177.28,-82.468 36.92,-54.094 55.38,-119.297 55.38,-195.645 V 12.2266 H 4980.35 V 433.934 c 0,27.199 -6.84,48.687 -20.72,64.609 -14.67,15.844 -34.67,23.816 -59.84,23.816 -44.69,-1.406 -83.2,-26.597 -115.54,-75.5 V 12.2266 H 4503.78 V 428.461 c 0,29.035 -7.15,51.898 -21.46,68.684 -14.73,15.433 -35.76,23.808 -62.96,25.214 -40.04,-1.406 -77.27,-26.597 -111.63,-75.5 V 12.2266 H 4026.96 V 748.355" /></g></g></svg>