<?xml version="1.0" encoding="UTF-8" standalone="no"?>
<svg
   xmlns:dc="http://purl.org/dc/elements/1.1/"
   xmlns:cc="http://creativecommons.org/ns#"
   xmlns:rdf="http://www.w3.org/1999/02/22-rdf-syntax-ns#"
   xmlns:svg="http://www.w3.org/2000/svg"
   xmlns="http://www.w3.org/2000/svg"
   viewBox="0 0 330.01334 304.67999"
   height="304.67999"
   width="330.01334"
   xml:space="preserve"
   id="svg2"
   version="1.1"><metadata
     id="metadata8"><rdf:RDF><cc:Work
         rdf:about=""><dc:format>image/svg+xml</dc:format><dc:type
           rdf:resource="http://purl.org/dc/dcmitype/StillImage" /></cc:Work></rdf:RDF></metadata><defs
     id="defs6"><clipPath
       id="clipPath24"
       clipPathUnits="userSpaceOnUse"><path
         id="path22"
         d="M 1078.4,1642.53 H 692.055 382.73 376.402 c -5.996,0 -10.855,-4.87 -10.855,-10.86 V 672.762 c 0,-6 4.859,-10.864 10.855,-10.864 h 6.328 115.864 68.679 112.18 9.949 v 6.543 c 0.578,1.329 0.907,2.77 0.907,4.321 v 73.269 243.348 386.281 c 0,4.1 0.621,8.05 1.746,11.78 v 2.57 c 5.804,15.39 20.636,26.36 38.058,26.36 22.485,0 40.707,-18.23 40.707,-40.71 V 989.379 746.031 672.762 c 0,-6 4.864,-10.864 10.86,-10.864 h 112.175 68.684 115.861 c 5.99,0 10.86,4.864 10.86,10.864 v 958.908 c 0,5.99 -4.87,10.86 -10.86,10.86 z" /></clipPath><linearGradient
       id="linearGradient30"
       spreadMethod="pad"
       gradientTransform="matrix(-4.29e-5,-980.635,-980.635,4.29e-5,727.402,1642.53)"
       gradientUnits="userSpaceOnUse"
       y2="0"
       x2="1"
       y1="0"
       x1="0"><stop
         id="stop26"
         offset="0"
         style="stop-opacity:1;stop-color:#ffffff" /><stop
         id="stop28"
         offset="1"
         style="stop-opacity:1;stop-color:#d2d3d3" /></linearGradient><clipPath
       id="clipPath40"
       clipPathUnits="userSpaceOnUse"><path
         id="path38"
         d="m 1879.91,661.91 h -386.35 -309.32 -6.33 c -6,0 -10.85,4.852 -10.85,10.852 v 958.908 c 0,6 4.85,10.86 10.85,10.86 h 6.33 115.86 68.68 112.19 9.95 v -6.54 c 0.57,-1.32 0.9,-2.78 0.9,-4.32 V 1558.4 1315.05 928.77 c 0,-4.102 0.61,-8.04 1.74,-11.782 v -2.558 c 5.81,-15.391 20.64,-26.371 38.06,-26.371 22.48,0 40.71,18.23 40.71,40.711 v 386.28 243.35 73.27 c 0,6 4.86,10.86 10.85,10.86 h 112.18 68.69 115.86 c 6,0 10.85,-4.86 10.85,-10.86 V 672.762 c 0,-6 -4.85,-10.852 -10.85,-10.852 z" /></clipPath><linearGradient
       id="linearGradient46"
       spreadMethod="pad"
       gradientTransform="matrix(-4.29e-5,980.615,-980.615,-4.29e-5,1528.92,661.91)"
       gradientUnits="userSpaceOnUse"
       y2="0"
       x2="1"
       y1="0"
       x1="0"><stop
         id="stop42"
         offset="0"
         style="stop-opacity:1;stop-color:#ffffff" /><stop
         id="stop44"
         offset="1"
         style="stop-opacity:1;stop-color:#d2d3d3" /></linearGradient></defs><g
     transform="matrix(1.3333333,0,0,-1.3333333,0,304.68)"
     id="g10"><g
       transform="scale(0.1)"
       id="g12"><path
         id="path14"
         style="fill:#24275a;fill-opacity:1;fill-rule:nonzero;stroke:none"
         d="m 2030.59,1142.57 c 0,130.24 100.04,237.04 227.49,247.89 -113.25,511.81 -569.64,894.67 -1115.52,894.67 C 511.547,2285.13 0,1773.58 0,1142.57 0,511.551 511.547,0 1142.56,0 1688.44,0 2144.84,382.852 2258.08,894.668 2130.63,905.52 2030.59,1012.32 2030.59,1142.57" /><path
         id="path16"
         style="fill:#de2325;fill-opacity:1;fill-rule:nonzero;stroke:none"
         d="m 2083.84,1142.57 c 0,108.03 87.58,195.62 195.61,195.62 108.05,0 195.63,-87.59 195.63,-195.62 0,-108.05 -87.58,-195.621 -195.63,-195.621 -108.03,0 -195.61,87.571 -195.61,195.621" /><g
         id="g18"><g
           clip-path="url(#clipPath24)"
           id="g20"><path
             id="path32"
             style="fill:url(#linearGradient30);fill-opacity:1;fill-rule:nonzero;stroke:none"
             d="M 1078.4,1642.53 H 376.402 c -5.996,0 -10.855,-4.87 -10.855,-10.86 V 672.762 c 0,-6 4.859,-10.864 10.855,-10.864 h 313 v 6.543 c 0.578,1.329 0.907,2.77 0.907,4.321 v 702.898 c 0,4.1 0.621,8.05 1.746,11.78 v 2.57 c 5.804,15.39 20.636,26.36 38.058,26.36 22.485,0 40.707,-18.23 40.707,-40.71 V 672.762 c 0,-6 4.864,-10.864 10.86,-10.864 h 296.72 c 5.99,0 10.86,4.864 10.86,10.864 v 958.908 c 0,5.99 -4.87,10.86 -10.86,10.86" /></g></g><g
         id="g34"><g
           clip-path="url(#clipPath40)"
           id="g36"><path
             id="path48"
             style="fill:url(#linearGradient46);fill-opacity:1;fill-rule:nonzero;stroke:none"
             d="m 1879.91,661.91 h -702 c -6,0 -10.85,4.852 -10.85,10.852 v 958.908 c 0,6 4.85,10.86 10.85,10.86 h 313.01 v -6.54 c 0.57,-1.32 0.9,-2.78 0.9,-4.32 v -702.9 c 0,-4.102 0.61,-8.04 1.74,-11.782 v -2.558 c 5.81,-15.391 20.64,-26.371 38.06,-26.371 22.48,0 40.71,18.23 40.71,40.711 v 702.9 c 0,6 4.86,10.86 10.85,10.86 h 296.73 c 6,0 10.85,-4.86 10.85,-10.86 V 672.762 c 0,-6 -4.85,-10.852 -10.85,-10.852" /></g></g><path
         id="path50"
         style="fill:#ffffff;fill-opacity:1;fill-rule:nonzero;stroke:none"
         d="m 2267.06,1052.71 v 74.3 c 0,13.6 -2.05,23.12 -6.14,28.56 -4.09,5.45 -10.95,8.18 -20.58,8.18 -5.16,0 -10.56,-1.55 -16.22,-4.66 -5.64,-3.1 -9.98,-6.91 -13,-11.45 v -94.93 h -22.65 v 127.73 h 15.49 l 7.16,-16.45 c 7.47,12.56 19.68,18.84 36.62,18.84 27.98,0 41.98,-17.02 41.98,-51.04 v -79.08 h -22.66" /><path
         id="path52"
         style="fill:#ffffff;fill-opacity:1;fill-rule:nonzero;stroke:none"
         d="m 2316.39,1088.85 v 143.95 h 22.65 v -140.13 c 0,-6.84 1.97,-12.23 5.91,-16.16 3.93,-3.94 9.07,-5.91 15.44,-5.91 v -20.27 c -29.34,0 -44,12.84 -44,38.52" /></g></g></svg>