<svg xmlns:rdf="http://www.w3.org/1999/02/22-rdf-syntax-ns#" xmlns="http://www.w3.org/2000/svg" xmlns:cc="http://creativecommons.org/ns#" xmlns:dc="http://purl.org/dc/elements/1.1/" id="svg2" xml:space="preserve" height="148px" width="182px" version="1.1" viewBox="0 0 182.66667 150.66667"  xmlns:xlink="http://www.w3.org/1999/xlink"><rect id="svgEditorBackground" x="0" y="0" width="182.6666717529297" height="150.6666717529297" style="fill: none; stroke: none;"/><metadata id="metadata8"><rdf:RDF><cc:Work rdf:about=""><dc:format>image/svg+xml</dc:format><dc:type rdf:resource="http://purl.org/dc/dcmitype/StillImage"/></cc:Work></rdf:RDF></metadata><defs id="defs6"><clipPath id="clipPath20" clipPathUnits="userSpaceOnUse"><path id="path18" d="m0 10.012h1366.9v1110.9h-1366.9z"/></clipPath></defs><g id="g10" transform="matrix(1.3333 0 0 -1.3333 0 150.67)"><g id="g12" transform="scale(.1)"><g id="g14"><g id="g16" clip-path="url(#clipPath20)"><path id="path22" d="M1366.9,989.39c-50.26999999999998,-22.30899999999997,-104.32999999999993,-37.38700000000006,-161.04999999999995,-44.17999999999995c57.8900000000001,34.722999999999956,102.33999999999992,89.67900000000009,123.27999999999997,155.1500000000001c-54.180000000000064,-32.15000000000009,-114.18000000000006,-55.47000000000003,-178.08999999999992,-68.03999999999996c-51.13000000000011,54.49000000000001,-124.01999999999998,88.54999999999995,-204.68000000000006,88.54999999999995c-154.89,0,-280.43000000000006,-125.54999999999995,-280.43000000000006,-280.43000000000006c0,-21.988000000000056,2.4569999999999936,-43.398000000000025,7.258000000000038,-63.90999999999997c-233.08000000000004,11.67999999999995,-439.72,123.36000000000001,-578.04,293.0099999999999c-24.14099999999999,-41.40000000000009,-37.969,-89.56700000000001,-37.969,-140.97000000000003c0,-97.30799999999999,49.489,-183.13,124.75999999999999,-233.44000000000005c-45.968999999999994,1.4370000000000118,-89.218,14.057999999999993,-127.03,35.077999999999975c-0.04299999999999926,-1.17999999999995,-0.04299999999999926,-2.3479999999999563,-0.04299999999999926,-3.519999999999982c0,-135.89999999999998,96.68,-249.22000000000003,224.96,-275c-23.512,-6.410000000000025,-48.281000000000006,-9.800000000000011,-73.86000000000001,-9.800000000000011c-18.089,0,-35.627999999999986,1.7110000000000127,-52.781000000000006,5c35.71100000000001,-111.41000000000003,139.26,-192.5,262,-194.77c-96.05799999999999,-75.22999999999999,-216.96,-120.03999999999999,-348.36,-120.03999999999999c-22.620999999999995,0,-44.961,1.3319999999999936,-66.918,3.9099999999999966c124.16,-79.568,271.55,-125.98,429.94,-125.98c515.82,0,797.86,427.31,797.86,797.93c0,12.15300000000002,-0.2799999999999727,24.222999999999956,-0.7899999999999636,36.25c54.76999999999998,39.571000000000026,102.30999999999995,88.95000000000005,139.93000000000006,145.19999999999993" fill="#55acee"/></g></g></g></g></svg>